<?xml version="1.0" encoding="UTF-8" standalone="no"?>
<svg
   viewBox="0,0,256,256"
   width="30px"
   height="30px"
   version="1.1"
   id="svg2"
   sodipodi:docname="soc-youtube.svg"
   inkscape:version="1.3.2 (091e20ef0f, 2023-11-25, custom)"
   xmlns:inkscape="http://www.inkscape.org/namespaces/inkscape"
   xmlns:sodipodi="http://sodipodi.sourceforge.net/DTD/sodipodi-0.dtd"
   xmlns="http://www.w3.org/2000/svg"
   xmlns:svg="http://www.w3.org/2000/svg">
  <defs
     id="defs2" />
  <sodipodi:namedview
     id="namedview2"
     pagecolor="#ffffff"
     bordercolor="#000000"
     borderopacity="0.25"
     inkscape:showpageshadow="2"
     inkscape:pageopacity="0.0"
     inkscape:pagecheckerboard="0"
     inkscape:deskcolor="#d1d1d1"
     inkscape:zoom="28.603504"
     inkscape:cx="14.998163"
     inkscape:cy="16.431554"
     inkscape:window-width="2560"
     inkscape:window-height="1382"
     inkscape:window-x="0"
     inkscape:window-y="0"
     inkscape:window-maximized="1"
     inkscape:current-layer="svg2" />
  <g
     fill="#fa5252"
     fill-rule="nonzero"
     stroke="none"
     stroke-width="1"
     stroke-linecap="butt"
     stroke-linejoin="miter"
     stroke-miterlimit="10"
     stroke-dasharray="none"
     stroke-dashoffset="0"
     font-family="none"
     font-weight="none"
     font-size="none"
     text-anchor="none"
     style="mix-blend-mode:normal"
     id="g2"
     transform="matrix(1.3497752,0,0,1.3497752,-44.556208,-44.782288)">
    <g
       transform="scale(8.53333)"
       id="g1">
      <path
         d="M 6,4 C 4.895,4 4,4.895 4,6 v 18 c 0,1.105 0.895,2 2,2 h 18 c 1.105,0 2,-0.895 2,-2 V 6 C 26,4.895 25.105,4 24,4 Z M 9.38086,6.22266 H 10.5293 L 10.98828,8.375 c 0.117,0.53 0.20377,0.98147 0.25977,1.35547 h 0.03516 c 0.039,-0.268 0.12477,-0.71666 0.25977,-1.34766 l 0.47656,-2.16016 h 1.14844 l -1.33203,4.74805 v 2.27734 H 10.69532 V 10.9707 Z m 5.11328,1.79297 c 0.38,0 0.68311,0.07737 0.91211,0.23438 0.229,0.156 0.39595,0.40142 0.50195,0.73242 0.106,0.332 0.16016,0.77417 0.16016,1.32617 v 0.74609 c 0,0.548 -0.05325,0.98636 -0.15625,1.31836 -0.103,0.332 -0.27095,0.57647 -0.50195,0.73047 -0.231,0.154 -0.54541,0.22851 -0.94141,0.22851 -0.407,0 -0.72698,-0.07737 -0.95898,-0.23437 -0.232,-0.156 -0.39614,-0.39852 -0.49414,-0.72851 -0.098,-0.33 -0.14648,-0.76745 -0.14648,-1.31445 v -0.74609 c 0,-0.553 0.05501,-0.99603 0.16601,-1.33203 0.112,-0.333 0.28839,-0.57942 0.52539,-0.73242 0.237,-0.154 0.54759,-0.22852 0.93359,-0.22852 z m 2.17578,0.0996 h 1.1543 v 3.76953 c 0,0.229 0.02517,0.39223 0.07617,0.49023 0.051,0.098 0.13395,0.14648 0.25195,0.14648 0.1,0 0.19606,-0.0298 0.28906,-0.0918 0.092,-0.061 0.16108,-0.13938 0.20508,-0.23438 V 8.11521 h 1.15625 v 5.13477 h -0.90625 l -0.09961,-0.62891 h -0.02539 c -0.245,0.475 -0.61252,0.71289 -1.10352,0.71289 -0.34,0 -0.59386,-0.11294 -0.75586,-0.33594 -0.162,-0.223 -0.24219,-0.57188 -0.24219,-1.04687 z M 14.46875,8.8125 c -0.156,0 -0.26608,0.08391 -0.33008,0.25391 -0.064,0.171 -0.0957,0.44059 -0.0957,0.80859 v 1.59961 c 0,0.38 0.0298,0.65331 0.0918,0.82031 0.062,0.167 0.17394,0.25195 0.33594,0.25195 0.161,-10e-4 0.27389,-0.08395 0.33789,-0.25195 0.064,-0.167 0.0957,-0.44131 0.0957,-0.82031 V 9.875 c 0,-0.369 -0.0317,-0.63859 -0.0957,-0.80859 -0.064,-0.171 -0.17784,-0.25391 -0.33984,-0.25391 z m -5.69141,5.41016 h 12.44531 c 0.978,0 1.77734,0.79934 1.77734,1.77734 v 6.22266 C 22.99999,23.20066 22.20065,24 21.22265,24 H 8.77734 C 7.79934,24 7,23.20066 7,22.22266 V 16 C 7,15.022 7.79934,14.22266 8.77734,14.22266 Z M 15.04492,16 v 6.15039 h 0.80469 l 0.09961,-0.41016 h 0.02148 c 0.076,0.147 0.18784,0.26266 0.33984,0.34766 0.151,0.084 0.31795,0.12695 0.50195,0.12695 0.33,0 0.57056,-0.15108 0.72656,-0.45508 0.156,-0.304 0.23438,-0.77978 0.23438,-1.42578 v -0.68555 h -0.002 c 0,-0.485 -0.02889,-0.86467 -0.08789,-1.13867 -0.059,-0.273 -0.15416,-0.47075 -0.28516,-0.59375 -0.131,-0.123 -0.31392,-0.18359 -0.54492,-0.18359 -0.18,0 -0.34695,0.05134 -0.50195,0.15234 -0.156,0.101 -0.27633,0.23344 -0.36133,0.39844 h -0.0059 V 16 Z m -5.83398,0.2207 v 0.7832 h 0.96875 v 5.14648 h 0.95312 V 17.0039 h 0.96875 v -0.7832 z m 10.31836,1.51368 c -0.485,0 -0.82734,0.14922 -1.02734,0.44922 -0.2,0.3 -0.30078,0.77478 -0.30078,1.42578 v 0.75586 c 0,0.632 0.09702,1.09939 0.29102,1.40039 0.194,0.301 0.53072,0.45313 1.01172,0.45313 0.401,0 0.70969,-0.09887 0.92969,-0.29687 0.22,-0.197 0.33008,-0.49744 0.33008,-0.89844 0,-0.066 -0.0038,-0.11825 -0.0078,-0.15625 l -0.8418,-0.05078 c -0.004,0.264 -0.03389,0.45341 -0.08789,0.56641 -0.054,0.113 -0.15578,0.16992 -0.30078,0.16992 -0.108,0 -0.18823,-0.0317 -0.24023,-0.0957 -0.052,-0.063 -0.08456,-0.16569 -0.10156,-0.30469 -0.017,-0.139 -0.02539,-0.347 -0.02539,-0.625 v -0.2207 h 1.63086 v -0.74023 c 0,-0.457 -0.03637,-0.81617 -0.10937,-1.07617 -0.074,-0.259 -0.19991,-0.44831 -0.37891,-0.57031 -0.18,-0.123 -0.43648,-0.18555 -0.77148,-0.18555 z m -7.71875,0.08203 v 3.23828 c 0,0.4 0.06808,0.69577 0.20508,0.88477 0.137,0.188 0.34677,0.2832 0.63477,0.2832 0.415,0 0.72755,-0.20152 0.93555,-0.60352 h 0.01953 l 0.08398,0.53125 h 0.76367 0.002 v -4.33398 h -0.97461 v 3.44336 c -0.038,0.08 -0.09583,0.14626 -0.17383,0.19727 -0.077,0.052 -0.15914,0.07813 -0.24414,0.07813 -0.1,0 -0.16894,-0.04005 -0.21094,-0.12305 -0.043,-0.082 -0.06445,-0.22106 -0.06445,-0.41406 v -3.18164 z m 7.69922,0.57812 c 0.104,0 0.18047,0.02889 0.23047,0.08789 0.05,0.059 0.08456,0.15873 0.10156,0.30273 0.019,0.144 0.02734,0.35677 0.02734,0.63477 v 0.31055 h -0.71289 v -0.31055 c 0,-0.283 0.0084,-0.49577 0.02539,-0.63477 0.016,-0.139 0.04766,-0.23783 0.09766,-0.29883 0.05,-0.06 0.12647,-0.0918 0.23047,-0.0918 z m -3.09571,0.03125 c 0.1,0 0.17647,0.03824 0.23047,0.11523 0.053,0.077 0.09228,0.20858 0.11328,0.39258 0.021,0.184 0.03125,0.44516 0.03125,0.78516 v 0.55859 c 0,0.316 -0.01111,0.56419 -0.03711,0.74219 -0.026,0.18 -0.07081,0.30781 -0.13281,0.38281 -0.062,0.075 -0.14209,0.11328 -0.24609,0.11328 -0.081,0 -0.15466,-0.02159 -0.22266,-0.05859 -0.068,-0.038 -0.12402,-0.09392 -0.16602,-0.16992 v -2.45898 c 0.033,-0.117 0.08992,-0.21502 0.16992,-0.29102 0.08,-0.076 0.16577,-0.11133 0.25977,-0.11133 z"
         id="path1" />
    </g>
  </g>
</svg>
