<?xml version="1.0" encoding="utf-8" ?>
<svg xmlns="http://www.w3.org/2000/svg" xmlns:xlink="http://www.w3.org/1999/xlink" width="851" height="530">
	<path fill="#70ACD8" d="M84.8604 208.458L85.1043 208.043C89.7918 200.136 96.8521 192.989 103.299 186.501C124.451 165.218 148.546 146.466 175.697 133.403C186.095 128.401 196.904 123.648 207.812 119.893C225.905 113.666 244.874 109.21 263.32 104.059L352.199 79.3622L515.668 34.1356C536.439 28.4041 557.019 21.9594 577.891 16.6177C578.006 19.1335 570.178 29.3751 568.239 31.4535C567.95 31.7638 567.672 31.9584 567.325 32.1982C563.478 34.655 549.959 36.98 544.681 38.3812L502.073 49.9242L318.577 100.553L260.77 116.265C250.742 118.951 240.488 121.222 230.599 124.365C206.438 132.045 183.452 145.79 164.18 162.225C158.125 167.389 152.976 173.934 146.474 178.509C141.931 181.705 135.388 182.945 130.188 184.946C123.175 187.645 116.088 190.684 109.346 194.001Q103.478 196.879 98.0221 200.48C93.965 203.119 89.4132 206.881 84.8604 208.458Z"/>
	<path fill="#70ACD8" d="M793.191 304.782C796.383 303.714 808.705 287.3 811.695 283.313C829.466 259.619 841.543 233.371 847.145 204.205C847.992 199.8 849.739 193.405 849.129 189.101C850.088 191.44 850.787 193.649 850.572 196.203L850.896 196.203C851.096 201.816 851.228 207.6 850.881 213.208L850.522 213.208C850.958 221.195 849.426 230.405 848.021 238.228C840.559 279.791 820.052 319.717 791.93 351.115C788.101 355.39 784.333 359.88 780.282 363.935C754.441 389.802 723.345 409.512 690.41 424.998C664.504 437.178 636.718 443.881 609.314 451.637L511.012 479.585L413.757 507.05C386.052 514.991 351.513 527.318 323.089 528.873C318.496 529.125 310.06 528.671 306.086 530L304.296 530C299.686 528.518 290.512 529.121 285.225 528.77C273.267 527.976 257.231 526.103 245.781 522.542C252.795 521.779 259.809 519.189 266.563 517.2C273.715 515.093 280.907 513.151 288.083 511.13L376.262 486.602L540.779 440.947L587.645 427.959C602.756 423.767 617.729 419.85 632.163 413.602C650.023 405.871 667.885 395.23 682.512 382.31C688.844 376.717 694.296 369.594 701.521 365.114C706.988 361.725 713.583 360.671 719.503 358.311C729.793 354.21 740.485 348.415 749.782 342.429C763.213 333.78 774.626 324.075 786.056 313.007C788.071 311.056 792.602 307.501 793.191 304.782ZM850.572 196.203C850.721 201.829 850.073 207.612 850.522 213.208L850.881 213.208C851.228 207.6 851.096 201.816 850.896 196.203L850.572 196.203Z"/>
	<path fill="#70ACD8" fill-opacity="0.94117647" d="M850.572 196.203L850.896 196.203C851.096 201.816 851.228 207.6 850.881 213.208L850.522 213.208C850.073 207.612 850.721 201.829 850.572 196.203Z"/>
	<path fill="#04315C" d="M577.891 16.6177L578.134 16.44C582.292 13.3666 586.07 9.36213 590.5 6.68107C597.788 2.27006 616.064 -0.0960955 624.854 1.19944C634.924 2.68369 649.333 9.07466 655.393 17.4558C655.631 17.784 655.565 17.6919 655.688 18.0951C676.291 21.5045 696.53 26.2993 716.861 30.9876C725.565 32.9944 734.483 33.5772 743.186 35.8173C773.739 43.6818 804.004 61.9855 822.514 87.8973C840.43 112.977 849.814 141.41 850.056 172.193C850.094 177.103 850.524 182.838 849.702 187.661C849.613 188.182 849.393 188.647 849.129 189.101C849.739 193.405 847.992 199.8 847.145 204.205C841.543 233.371 829.466 259.619 811.695 283.313C808.705 287.3 796.383 303.714 793.191 304.782C790.68 308.225 786.563 311.622 783.369 314.427Q777.314 319.753 770.868 324.599Q764.422 329.445 757.623 333.782Q750.825 338.119 743.714 341.921Q736.603 345.723 729.221 348.969C722.589 351.91 715.157 352.968 708.877 356.746C701.668 361.083 696.747 368.219 690.385 373.584Q687.104 376.378 683.707 379.03Q680.31 381.682 676.803 384.186Q673.296 386.69 669.685 389.043Q666.075 391.395 662.367 393.591Q658.659 395.788 654.861 397.824Q651.063 399.86 647.182 401.732Q643.301 403.604 639.343 405.309Q635.386 407.014 631.359 408.548C621.729 412.253 611.815 414.841 601.887 417.591L567.165 427.225L451.328 459.349L313.765 497.544C296.912 502.265 280.089 507.412 263.183 511.891C258.946 513.014 254.606 513.729 250.362 514.826C242.453 516.87 234.724 519.233 226.704 520.872C207.707 524.754 188.11 527.011 168.723 525.317C118.422 520.923 70.6948 501.625 37.6301 462.132C9.04941 427.994 -2.45236 385.101 1.56995 341.072C5.12202 302.191 24.8017 262.319 52.6994 235.106C62.6518 225.397 74.2075 217.36 84.8604 208.458C89.4132 206.881 93.965 203.119 98.0221 200.48Q103.478 196.88 109.346 194.001C116.088 190.684 123.175 187.645 130.188 184.946C135.388 182.945 141.931 181.705 146.474 178.509C152.976 173.934 158.125 167.389 164.18 162.225C183.452 145.79 206.438 132.045 230.599 124.365C240.488 121.222 250.742 118.951 260.77 116.265L318.577 100.553L502.073 49.9242L544.681 38.3812C549.959 36.98 563.478 34.655 567.325 32.1982C567.672 31.9584 567.95 31.7638 568.239 31.4535C570.178 29.3751 578.006 19.1335 577.891 16.6177Z"/>
	<path fill="#70ACD8" d="M648.445 27.227C655.837 28.2059 706.976 37.672 710.409 41.1098L703.799 41.2194C698.286 41.1723 692.69 40.9637 687.189 41.3571C677.016 42.0846 666.905 44.309 656.945 46.4375C658.435 40.0625 650.461 32.6893 648.445 27.227Z"/>
	<path fill="#F96F5B" d="M103.283 452.294L104.036 452.574C105.697 456.624 104.754 469.944 104.601 474.812C93.0554 477.531 81.4393 481.196 70.0831 484.66C66.7754 482.09 63.5841 479.427 60.427 476.674C57.1639 473.666 53.9646 470.636 50.8849 467.439C67.9565 461.477 85.923 457.429 103.283 452.294Z"/>
	<path fill="#F96F5B" d="M103.492 262.37L104.121 262.768C105.727 269.085 104.619 277.118 104.569 283.639C95.6967 285.653 86.9525 288.625 78.193 291.104L26.9621 305.502C26.3226 305.444 26.33 305.399 25.866 304.943C25.5301 299.879 36.3895 284.974 39.604 280.598C46.3753 277.417 54.8938 275.916 62.109 273.924L103.492 262.37Z"/>
	<path fill="#F96F5B" d="M102.163 414.503C102.968 414.362 103.1 414.355 103.86 414.643C105.404 418.214 104.588 431.436 104.62 435.993C83.2282 442.43 61.0824 447.262 39.9871 454.545C38.6235 452.8 37.3493 450.972 36.0411 449.184C32.9831 444.731 30.1893 440.196 27.8393 435.327Q64.9323 424.668 102.163 414.503Z"/>
	<path fill="#F96F5B" d="M605.575 26.3953C609.439 26.0496 613.122 26.3129 616.89 27.2582C625.073 29.3112 633.022 34.3972 637.35 41.785C638.764 44.1973 640.199 48.1064 639.46 50.903C635.435 54.0072 611.471 58.9895 605.086 60.471C601.398 62.984 585.598 66.3243 580.42 67.0644C580.695 64.6205 579.333 61.7613 578.737 59.3836C577.232 53.388 578.996 45.9195 582.164 40.7215C587.35 32.2114 596.388 28.7053 605.575 26.3953Z"/>
	<path fill="white" d="M605.684 38.8656Q606.044 38.8148 606.405 38.779C610.86 38.3498 616.812 39.5633 620.277 42.5302C621.471 43.5522 622.52 44.8528 622.65 46.4676C617.838 49.4673 610.195 50.3881 604.664 51.647C601.795 53.9326 594.719 54.7478 591.065 55.4567C593.73 53.234 594.071 48.3564 595.477 45.3036C597.165 41.634 602.175 40.1047 605.684 38.8656Z"/>
	<path fill="#F96F5B" d="M103.175 376.269L103.777 376.622C105.537 381.021 104.51 392.811 104.237 397.778C88.1073 402.494 71.8216 406.633 55.6906 411.326C44.6937 414.525 33.1807 419.071 21.8416 420.715C20.6741 420.236 20.4798 419.458 19.8836 418.404C18.0389 412.65 16.4946 406.858 14.9616 401.015C25.8062 397.206 37.1604 394.437 48.2305 391.347Q75.6595 383.648 103.175 376.269Z"/>
	<path fill="#F96F5B" d="M103.151 300.199C103.367 300.246 103.75 300.581 103.937 300.713C105.411 305.021 104.579 316.711 104.568 321.767C74.639 329.687 45.1817 339.036 15.0609 346.32L14.1253 346.185L13.5542 345.336C12.6466 339.034 16.1798 330.187 17.9419 324.084C28.666 319.789 40.3555 317.608 51.4849 314.533C68.689 309.779 85.8356 304.508 103.151 300.199Z"/>
	<path fill="#F96F5B" d="M102.011 338.418C103.074 338.366 103.116 338.25 103.968 338.974C105.85 344.521 104.568 354.171 104.222 360.157C92.4294 362.326 80.8629 366.213 69.334 369.486L14.2557 384.855C13.8537 384.93 13.3688 384.837 12.9588 384.807C10.569 382.101 11.4763 367.584 11.4848 363.622Q56.6616 350.708 102.011 338.418Z"/>
	<path fill="#70ACD8" d="M355.225 214.348C359.368 214.762 367.628 211.507 371.935 210.203C372.355 264.212 371.583 318.23 372.31 372.235C368.696 373.154 358.125 374.971 355.453 377.336C354.74 357.295 355.329 337.065 355.325 317.003L355.225 214.348Z"/>
	<path fill="#70ACD8" d="M410.992 197.985Q419.363 195.728 427.674 193.261C428.513 201.157 428.299 209.25 428.294 217.183L428.273 249.579L428.286 357.605C422.591 359.146 416.863 360.648 411.316 362.677L411.299 239.089L411.303 211.858C411.308 207.554 412.001 202.107 410.992 197.985Z"/>
	<path fill="#70ACD8" d="M601.904 145.495C611.379 141.408 624.194 139.568 633.952 143.38C641.928 146.496 647.5 153.072 650.795 160.825C657.611 176.859 655.635 196.572 649.187 212.383C646.694 218.498 639.331 233.041 633.168 235.617C633.094 235.648 633.018 235.674 632.944 235.703C634.556 237.133 635.531 239.228 636.545 241.103C640.939 249.233 644.493 257.791 648.583 266.074C651.871 272.733 655.691 279.138 658.841 285.864C659.587 287.457 660.92 289.749 660.957 291.499C660.965 291.879 660.917 292.242 660.853 292.613C657.74 295.288 647.958 297.773 643.891 297.619C643.999 297.308 644.087 297.062 644.061 296.726C643.751 292.675 616.726 237.577 614.089 235.018C614.594 234.822 615.085 234.594 615.547 234.308C625.941 227.885 632.987 214.738 635.904 203.204C639.237 190.023 638.936 173.587 631.713 161.694C624.006 149.005 614.657 148.657 601.904 145.495Z"/>
	<path fill="#70ACD8" d="M491.632 176.105C500.877 172.49 512.918 171.877 522.115 175.909C529.914 179.329 535.19 186.086 538.165 193.915C544.781 211.326 541.944 233.543 534.368 250.179C525.796 269.004 510.81 283.654 491.339 290.858C488.724 291.826 485.956 292.739 483.244 293.386L483.266 342.395C478.455 343.742 472.236 344.875 467.86 347.104C467.28 325.308 467.523 303.502 467.458 281.701C479.487 278.935 491.871 276.099 502.152 268.922C513.96 260.68 521.445 246.883 523.916 232.891C526.348 219.122 526.153 200.867 517.743 188.997C511.157 179.702 502.087 177.957 491.632 176.105Z"/>
	<path fill="#70ACD8" d="M716.291 115.144C727.02 112.058 739.546 113.05 749.411 118.462C756.589 122.4 761.63 128.935 763.905 136.772C768.797 153.619 766.682 210.378 763.217 228.274C761.607 236.595 758.792 245.477 754.651 252.909C747.653 265.469 735.017 272.429 721.559 276.199C713.243 278.528 694.843 282.235 687.192 278.016C683.536 276 683.482 272.617 680.923 269.857C694.131 271.957 711.421 266.701 722.682 259.773Q723.847 259.05 724.976 258.272Q726.104 257.493 727.194 256.661Q728.283 255.828 729.33 254.943Q730.378 254.058 731.38 253.123Q732.383 252.188 733.339 251.205Q734.295 250.222 735.202 249.194Q736.109 248.165 736.965 247.094Q737.821 246.022 738.623 244.91Q739.426 243.798 740.173 242.649Q740.92 241.499 741.61 240.314Q742.3 239.129 742.932 237.912Q743.564 236.694 744.135 235.448Q744.706 234.201 745.216 232.928Q745.726 231.655 746.173 230.359Q746.62 229.062 747.004 227.746Q747.387 226.429 747.706 225.095C751.134 210.679 749.183 194.996 749.226 180.293C749.259 168.908 750.371 157.132 748.837 145.823C748.124 140.566 746.694 135.346 743.845 130.822C737.372 120.541 727.41 117.621 716.291 115.144Z"/>
	<path fill="white" d="M410.992 197.985C412.001 202.107 411.308 207.554 411.303 211.858L411.299 239.089L411.316 362.677C404.596 364.23 398.084 366.558 391.289 367.852L391.276 203.337L410.992 197.985Z"/>
	<path fill="#70ACD8" d="M199.433 257.522C211.02 252.91 222.049 251.302 233.933 256.399C241.92 259.825 248.158 266.04 251.422 274.118C256.976 287.867 254.462 309.438 254.497 324.239C254.526 336.509 255.454 348.95 253.976 361.171C253.259 367.105 251.805 372.664 249.437 378.158C241.073 397.564 224.83 412.372 205.298 420.07C190.351 425.96 174.238 429.206 158.745 433.39L158.8 316.356L158.774 283.903C158.768 278.937 158.216 273.158 158.952 268.261C159.417 273.925 159.101 279.834 159.1 285.525L159.095 317.416L159.103 418.74C179.744 411.982 203.835 410.615 221.025 395.881Q222.013 395.039 222.959 394.148Q223.904 393.257 224.804 392.321Q225.704 391.384 226.556 390.404Q227.408 389.423 228.21 388.402Q229.012 387.38 229.762 386.32Q230.512 385.26 231.209 384.163Q231.905 383.067 232.546 381.937Q233.187 380.808 233.771 379.647Q234.355 378.487 234.88 377.299Q235.406 376.111 235.871 374.898Q236.337 373.686 236.741 372.451Q237.146 371.217 237.489 369.964Q237.831 368.711 238.111 367.443Q238.391 366.174 238.607 364.893Q238.823 363.612 238.975 362.322Q239.127 361.032 239.215 359.736C240.017 349.154 239.3 338.271 239.273 327.658C239.227 309.571 242.89 284.52 230.108 269.833C221.975 260.488 211.129 258.354 199.433 257.522Z"/>
	<path fill="#70ACD8" d="M558.57 59.2305C559.209 59.1539 559.881 59.0096 560.505 59.2168C561.064 59.4021 561.502 60.3367 561.715 60.8304C562.9 63.581 564.46 69.0869 563.364 71.9232C561.185 73.6263 484.833 93.7008 475.197 96.3529Q327.046 136.573 179.328 178.368L173.945 179.915C187.367 168.861 204.267 159.078 220.407 152.791C232.25 148.177 244.68 145.449 256.929 142.161L311.992 127.177L497.223 76.1122L534.662 66.0065C542.727 63.8784 550.794 62.3417 558.57 59.2305Z"/>
	<path fill="#70ACD8" d="M659.2 376.403C660.315 376.242 661.189 375.894 662.197 376.466C661.862 377.605 661.404 378.03 660.545 378.813C651.976 386.626 631.815 397.029 620.313 401.216C611.326 404.487 601.912 406.783 592.688 409.284L554.829 419.659L430.332 454.453L287.758 494.082L240.892 506.937C229.538 510.032 218.191 513.366 206.628 515.602C191.258 518.574 175.839 518.237 160.291 517.472C159.448 517.466 158.765 517.285 157.959 517.049L157.859 516.424C160.41 514.596 226.032 496.8 233.539 494.73L534.596 411.018L625.004 386.085Q635.387 383.184 645.81 380.43C650.196 379.255 655.071 378.295 659.2 376.403Z"/>
	<path fill="white" d="M491.632 176.105C502.087 177.957 511.157 179.702 517.743 188.997C526.153 200.867 526.348 219.122 523.916 232.891C521.445 246.883 513.96 260.68 502.152 268.922C491.871 276.099 479.487 278.935 467.458 281.701C467.523 303.502 467.28 325.308 467.86 347.104Q457.384 349.723 447.039 352.82C446.731 333.822 446.99 314.775 446.989 295.772L446.984 187.644C461.915 183.904 476.62 179.561 491.632 176.105Z"/>
	<path fill="#70ACD8" d="M467.738 201.744C473.798 199.847 480.116 197.66 486.457 196.973C490.761 196.506 495.258 197.078 498.694 199.919C503.139 203.595 504.043 209.504 504.512 214.918C505.618 226.203 506.285 239.444 498.556 248.751C494.85 253.214 489.788 255.766 484.379 257.585C478.889 259.244 473.31 260.592 467.751 261.994C468.097 241.937 467.805 221.806 467.738 201.744Z"/>
	<path fill="#04315C" d="M483.511 208.44C486.78 207.522 490.826 206.758 494.212 207.235C499.129 207.928 501.763 211.168 504.512 214.918C505.618 226.203 506.285 239.444 498.556 248.751C494.85 253.214 489.788 255.766 484.379 257.585C482.309 255.468 483.503 215.577 483.511 208.44Z"/>
	<path fill="white" d="M716.291 115.144C727.41 117.621 737.372 120.541 743.845 130.822C746.694 135.346 748.124 140.566 748.837 145.823C750.371 157.132 749.259 168.908 749.226 180.293C749.183 194.996 751.134 210.679 747.706 225.095Q747.387 226.429 747.004 227.746Q746.62 229.062 746.173 230.359Q745.726 231.655 745.216 232.928Q744.706 234.201 744.135 235.448Q743.564 236.694 742.932 237.912Q742.3 239.129 741.61 240.314Q740.92 241.499 740.173 242.649Q739.426 243.798 738.623 244.91Q737.821 246.022 736.965 247.094Q736.109 248.165 735.202 249.194Q734.295 250.222 733.339 251.205Q732.383 252.188 731.38 253.123Q730.378 254.058 729.33 254.943Q728.283 255.828 727.194 256.661Q726.104 257.493 724.976 258.272Q723.847 259.05 722.682 259.773C711.421 266.701 694.131 271.957 680.923 269.857C678.814 265.982 671.836 263.22 670.652 256.955C669.059 248.529 669.897 238.78 670.053 230.184Q670.371 214.207 670.527 198.227C670.64 188.834 670.918 179.41 670.871 170.02C670.823 160.209 670.36 150.307 671.59 140.537C672.064 136.773 673.316 132.753 675.546 129.647C680.443 122.826 691.542 118.216 699.639 116.847C705.127 115.919 710.78 115.994 716.291 115.144Z"/>
	<path fill="#70ACD8" d="M708.363 244.94C707.91 245.345 707.305 245.499 706.722 245.624C703.21 246.374 699.103 244.241 696.314 242.316C694.142 240.816 691.411 238.504 690.93 235.771C689.45 227.376 690.328 213.765 690.229 204.947Q689.947 185.391 690.021 165.833C690.02 159.434 689.632 152.758 690.161 146.391C690.266 145.13 690.456 144.043 691.21 142.99C694.254 138.746 701.247 137.311 706.146 136.456C711.666 135.491 717.348 135.445 722.082 138.859C726.201 141.831 727.91 146.347 728.634 151.205C729.017 153.774 729.44 156.248 727.815 158.418C728.739 159.417 728.937 160.535 729.093 161.835C730.087 170.106 729.323 178.624 729.332 186.943C729.341 195.462 729.888 204.041 729.55 212.548C729.112 223.589 727.569 231.078 718.978 238.992C716.129 241.617 712.303 244.402 708.363 244.94Z"/>
	<path fill="#04315C" d="M706.566 150.587Q708.252 150.292 709.949 150.065C714.669 149.439 720.49 149.821 724.389 152.897C725.997 154.165 727.6 156.354 727.815 158.418C728.739 159.417 728.937 160.535 729.093 161.835C730.087 170.106 729.323 178.624 729.332 186.943C729.341 195.462 729.888 204.041 729.55 212.548C729.112 223.589 727.569 231.078 718.978 238.992C716.129 241.617 712.303 244.402 708.363 244.94C707.656 244.483 707.7 243.681 707.686 242.876C707.293 220.612 707.748 198.254 707.735 175.98C707.732 171.468 708.344 153.63 706.566 150.587Z"/>
	<path fill="white" d="M601.904 145.495C614.657 148.657 624.006 149.005 631.713 161.694C638.936 173.587 639.237 190.023 635.904 203.204C632.987 214.738 625.941 227.885 615.547 234.308C615.085 234.594 614.594 234.822 614.089 235.018C616.726 237.577 643.751 292.675 644.061 296.726C644.087 297.062 643.999 297.308 643.891 297.619C642.291 299.942 626.676 302.856 623.368 303.516C623.483 303.183 623.526 303.137 623.515 302.729C623.437 299.907 605.785 262.996 603.064 258.318C602.631 257.574 602.143 257.018 601.444 256.507C598.73 257.181 595.944 258.047 593.146 258.23C594.979 261.331 595.918 305.362 594.839 309.932C594.729 310.4 594.504 310.876 594.223 311.264C591.256 314.454 580.984 316.247 576.658 316.697C573.474 319.221 561.496 321.089 557.191 321.884C557.343 321.629 557.486 321.374 557.602 321.099C558.776 318.329 558.686 176.727 558.191 161.694C558.137 160.054 558.052 158.534 557.445 156.994C563.565 155.846 569.683 153.77 575.686 152.093Q588.687 148.366 601.904 145.495Z"/>
	<path fill="#04315C" d="M609.067 170.784C611.603 171.53 613.904 174.355 615.146 176.604C619.074 183.72 618.251 194.971 615.958 202.51C613.397 210.931 607.557 219.443 599.58 223.54C598.013 224.345 596.327 225.04 594.579 225.307C593.427 216.902 596.181 178.583 593.243 175.288C597.851 174.91 605.186 173.306 609.067 170.784Z"/>
	<path fill="#70ACD8" d="M576.668 170.816C584.931 169.312 598.344 162.942 606.396 167.614C607.577 168.3 608.723 169.5 609.067 170.784C605.186 173.306 597.851 174.91 593.243 175.288C596.181 178.583 593.427 216.902 594.579 225.307C594.512 225.409 594.449 225.515 594.377 225.614C592.618 228.061 579.969 230.339 576.662 230.908C576.974 230.471 577.236 229.995 577.361 229.469C578.181 226.02 577.691 221.479 577.759 217.893C577.933 208.807 577.842 199.787 577.799 190.707C577.772 185.161 578.003 179.447 577.513 173.926C577.413 172.796 577.263 171.811 576.668 170.816Z"/>
	<path fill="#70ACD8" d="M596.346 244.541C597.268 245.185 597.953 246.007 598.529 246.963C599.947 249.315 602.158 253.712 601.444 256.507C598.73 257.181 595.944 258.047 593.146 258.23C594.979 261.331 595.918 305.362 594.839 309.932C594.729 310.4 594.504 310.876 594.223 311.264C591.256 314.454 580.984 316.247 576.658 316.697C577.303 316.138 577.499 315.522 577.652 314.705C578.806 308.572 579.1 252.875 576.785 249.607C582.62 249.145 591.205 247.274 596.346 244.541Z"/>
	<path fill="white" d="M334.928 219.07C338.867 218.011 352.484 213.544 355.225 214.348L355.325 317.003C355.329 337.065 354.74 357.295 355.453 377.336C351.692 379.107 347.171 380.009 343.167 381.151C330.989 359.459 320.165 336.997 308.385 315.081C307.445 324.198 307.95 333.772 307.956 342.94L308.031 391.522C302.676 392.748 297.427 394.232 292.156 395.766C285.556 396.975 279.112 399.171 272.7 401.114L272.669 235.862Q280.391 233.872 288.047 231.639Q294.587 229.611 301.195 227.816C305.868 237.143 329.645 286.954 334.898 291.49C335.507 267.411 334.934 243.166 334.928 219.07Z"/>
	<path fill="#70ACD8" d="M288.047 231.639Q294.587 229.611 301.195 227.816C305.868 237.143 329.645 286.954 334.898 291.49C335.266 302.296 334.107 313.479 335.334 324.206C331.07 316.422 327.227 308.344 323.2 300.432L301.405 257.478C298.982 252.635 290.962 234.852 288.047 231.639Z"/>
	<path fill="#70ACD8" d="M292.124 282.152C296.672 293.5 303.787 303.72 308.385 315.081C307.445 324.198 307.95 333.772 307.956 342.94L308.031 391.522C302.676 392.748 297.427 394.232 292.156 395.766C290.962 378.707 291.722 361.217 291.728 344.111C291.735 323.51 291.161 302.728 292.124 282.152Z"/>
	<path fill="white" d="M199.433 257.522C211.129 258.354 221.975 260.488 230.108 269.833C242.89 284.52 239.227 309.571 239.273 327.658C239.3 338.271 240.017 349.154 239.215 359.736Q239.127 361.032 238.975 362.322Q238.823 363.612 238.607 364.893Q238.391 366.174 238.111 367.443Q237.831 368.711 237.489 369.964Q237.146 371.217 236.741 372.451Q236.337 373.686 235.871 374.898Q235.406 376.111 234.88 377.299Q234.355 378.487 233.771 379.647Q233.187 380.808 232.546 381.937Q231.905 383.067 231.209 384.163Q230.512 385.26 229.762 386.32Q229.012 387.38 228.21 388.402Q227.408 389.424 226.556 390.404Q225.704 391.384 224.804 392.321Q223.904 393.257 222.959 394.148Q222.013 395.039 221.025 395.881C203.835 410.615 179.744 411.982 159.103 418.74L159.095 317.416L159.1 285.525C159.101 279.834 159.417 273.925 158.952 268.261Q179.096 262.526 199.433 257.522Z"/>
	<path fill="#70ACD8" d="M178.996 282.036C185.619 280.007 192.865 277.342 199.875 277.727C204.755 277.995 209.708 279.858 213.005 283.576C216.853 287.916 217.73 294.133 217.425 299.728C214.351 294.906 211.423 291.089 205.513 289.805C202.039 289.05 198.335 289.265 194.798 289.288L194.799 355.674C194.794 367.11 193.889 378.665 195.092 390.054C189.941 391.886 184.363 392.964 179.045 394.232L178.996 282.036Z"/>
	<path fill="#04315C" d="M194.798 289.288C198.335 289.265 202.039 289.05 205.513 289.805C211.423 291.089 214.351 294.906 217.425 299.728C218.227 312.577 217.883 325.453 217.988 338.317C218.066 347.762 219.201 358.002 217.46 367.324C216.572 372.079 214.654 376.675 211.467 380.354C207.369 385.084 201.042 388.267 195.092 390.054C193.889 378.665 194.794 367.11 194.799 355.674L194.798 289.288Z"/>
	<path fill="#70ACD8" d="M670.827 94.568C676.519 93.8405 682.875 94.198 688.516 95.2355C691.932 95.8637 698.432 97.1574 700.443 100.075C699.109 101.452 695.616 102.098 693.762 102.613Q416.538 177.687 140.148 255.792C140.599 263.421 140.265 271.219 140.266 278.867L140.267 321.931L140.272 454.949Q195.134 440.558 249.659 424.939L460.994 366.544Q543.15 344.176 625.045 320.876L675.601 306.83C687.093 303.661 698.69 300.711 710.005 296.951C717.281 294.534 725.186 291.455 731.199 286.577C730.65 289.195 728.955 290.399 726.864 291.819C726.794 292.232 726.673 292.578 726.467 292.945C721.723 301.392 701.353 312.558 692.278 316.009C684.901 318.814 677.193 320.676 669.589 322.752L637.311 331.64L530.332 361.534L267.777 434.49C219.446 447.906 170.75 460.532 122.749 475.078C121.986 449.628 122.963 424.037 122.987 398.575Q123.257 322.316 122.652 246.058C142.639 241.224 162.304 235.101 182.092 229.515L287.625 199.88Q478.949 146.204 670.827 94.568Z"/>
	<path fill="#F96F5B" d="M692.487 57.5723Q694.769 57.4623 697.053 57.4307Q699.337 57.399 701.621 57.4457Q703.905 57.4924 706.186 57.6174Q708.467 57.7424 710.743 57.9455Q713.018 58.1487 715.285 58.4297Q717.552 58.7108 719.808 59.0694Q722.065 59.428 724.307 59.8638Q726.55 60.2995 728.776 60.8119Q731.002 61.3244 733.209 61.9128Q735.417 62.5013 737.603 63.1651Q739.789 63.8289 741.951 64.5672Q744.113 65.3056 746.248 66.1177Q748.383 66.9297 750.49 67.8146Q752.596 68.6994 754.67 69.6559Q756.745 70.6124 758.786 71.6395Q760.827 72.6666 762.831 73.7631Q764.128 74.4838 765.407 75.2365Q766.686 75.9891 767.946 76.7732Q769.206 77.5573 770.446 78.3723Q771.686 79.1873 772.906 80.0328Q774.125 80.8783 775.323 81.7536Q776.522 82.629 777.698 83.5338Q778.874 84.4386 780.028 85.3723Q781.181 86.3059 782.312 87.2679Q783.442 88.2298 784.548 89.2194Q785.654 90.209 786.735 91.2256Q787.816 92.2423 788.871 93.2854Q789.927 94.3286 790.957 95.3975Q791.986 96.4664 792.989 97.5605Q793.992 98.6546 794.967 99.7732Q795.942 100.892 796.89 102.034Q797.837 103.177 798.756 104.342Q799.675 105.508 800.565 106.695Q801.454 107.883 802.315 109.093Q803.175 110.302 804.005 111.533Q804.835 112.763 805.634 114.014Q806.433 115.265 807.201 116.535Q807.969 117.805 808.705 119.093Q809.442 120.382 810.146 121.689Q810.85 122.995 811.522 124.319Q812.194 125.642 812.833 126.982Q813.472 128.322 814.077 129.677Q814.682 131.032 815.254 132.402Q815.826 133.772 816.364 135.155Q816.901 136.538 817.405 137.935Q817.908 139.331 818.377 140.74Q818.845 142.148 819.279 143.568Q819.713 144.987 820.111 146.417C831.038 184.451 822.895 226.911 803.944 261.042Q802.234 264.137 800.409 267.166Q798.584 270.195 796.647 273.153Q794.71 276.112 792.663 278.996Q790.617 281.879 788.464 284.684Q786.31 287.489 784.054 290.211Q781.797 292.933 779.44 295.569Q777.083 298.205 774.628 300.75Q772.174 303.296 769.626 305.747Q767.078 308.199 764.44 310.553Q761.802 312.908 759.078 315.162Q756.354 317.415 753.547 319.566Q750.74 321.716 747.855 323.759Q744.969 325.802 742.01 327.736Q739.05 329.67 736.019 331.491Q732.989 333.313 729.893 335.019Q726.796 336.726 723.638 338.315C699.946 350.2 667.225 357.458 641.419 364.495L539.008 392.709L120.184 509.431C109.001 506.219 98.2102 501.148 87.9308 495.749C93.2283 494.01 98.6295 492.544 103.985 490.99L104.072 497.474L537.762 376.496C578.281 365.193 618.987 354.545 659.426 342.962C667.518 340.644 696.17 333.157 701.29 329.432C701.461 329.392 701.632 329.354 701.803 329.311C708.083 327.753 714.51 323.924 720.064 320.727Q722.561 319.311 725.01 317.816Q727.46 316.32 729.86 314.747Q732.261 313.173 734.609 311.523Q736.957 309.872 739.251 308.147Q741.545 306.422 743.782 304.624Q746.019 302.826 748.197 300.956Q750.375 299.086 752.491 297.148Q754.608 295.209 756.661 293.203Q758.714 291.197 760.701 289.125Q762.688 287.054 764.607 284.92Q766.527 282.786 768.376 280.591Q770.226 278.395 772.004 276.142Q773.781 273.888 775.486 271.578Q777.19 269.269 778.819 266.905Q780.448 264.542 782 262.127Q783.552 259.712 785.025 257.248C802.997 226.567 810.085 189.641 800.932 154.94Q800.604 153.694 800.245 152.456Q799.886 151.219 799.497 149.991Q799.107 148.762 798.687 147.544Q798.268 146.326 797.818 145.119Q797.368 143.911 796.889 142.715Q796.409 141.519 795.9 140.336Q795.391 139.152 794.853 137.981Q794.315 136.81 793.748 135.653Q793.181 134.496 792.586 133.354Q791.99 132.211 791.367 131.084Q790.743 129.956 790.092 128.844Q789.441 127.733 788.762 126.637Q788.084 125.542 787.378 124.464Q786.673 123.386 785.941 122.326Q785.209 121.265 784.451 120.223Q783.693 119.182 782.909 118.159Q782.126 117.136 781.317 116.133Q780.509 115.13 779.676 114.147Q778.842 113.165 777.985 112.203Q777.128 111.241 776.247 110.301Q775.366 109.361 774.463 108.443Q773.559 107.525 772.633 106.629Q771.706 105.734 770.758 104.862Q769.81 103.989 768.841 103.141Q767.871 102.292 766.881 101.468Q765.891 100.644 764.881 99.8447Q763.87 99.0453 762.841 98.2712Q761.811 97.497 760.762 96.7487Q759.714 96.0003 758.647 95.2781Q757.58 94.556 756.496 93.8605Q755.412 93.1649 754.311 92.4965Q753.209 91.828 752.092 91.1871C730.214 78.5098 703.879 73.3835 678.79 75.8414C657.662 77.9113 636.548 85.6261 616.139 91.2988L515.012 119.337L105.017 233.359L105.107 246.151C89.0319 250.204 73.0704 254.911 57.0338 259.148C72.065 241.382 100.515 221.558 121.671 212.909C133.183 208.203 145.287 205.211 157.235 201.857L207.685 187.786L370.035 142.855L573.736 86.6879L626.637 72.0887C648.488 65.9676 669.762 59.5216 692.487 57.5723Z"/>
</svg>
