<?xml version="1.0" encoding="utf-8" ?>
<svg xmlns="http://www.w3.org/2000/svg" xmlns:xlink="http://www.w3.org/1999/xlink" width="840" height="840">
	<path fill="#02203B" transform="scale(0.820312 0.820312)" d="M537.724 923.864C537.814 923.644 537.857 923.398 537.994 923.205C538.575 922.389 539.481 922.151 540.409 922.028C542.857 921.703 545.531 922.072 548.01 922.036C551.398 921.987 554.853 921.574 558.243 921.36C616.604 917.671 665.423 906.813 720.567 887.785C729.774 884.608 739.016 881.311 748.052 877.673C753.729 875.388 778.485 863.592 782.384 863.265C783.685 863.156 783.923 863.526 784.893 864.289C725.931 913.395 648.758 943.742 573.119 954.109C562.956 955.501 552.5 957.071 542.265 957.551C539.939 951.623 538.878 931.683 537.724 923.864Z"/>
	<path fill="#BD6130" transform="scale(0.820312 0.820312)" d="M418.893 850.063L427.253 850.45C439.875 851.073 451.192 855.163 463.385 857.719C471.287 860.411 478.578 863.795 484.696 869.6C494.089 864.134 504.132 864.427 514.064 860.949C515.508 864.728 516.816 869.469 518.938 872.862C524.18 886.982 528.955 901.681 534.873 915.502L537.724 923.864C538.878 931.683 539.939 951.623 542.265 957.551Q526.477 959.311 510.602 958.7C466.967 958.198 425.287 952.204 383.428 939.961C375.651 936.895 367.477 934.509 359.593 931.668L354.486 929.805C349.596 927.572 344.517 925.68 339.53 923.671L335.434 921.907C330.921 919.405 325.792 917.437 321.085 915.264C327.624 897.557 345.363 883.782 359.703 872.315C382.837 857.601 391.052 852.943 418.893 850.063Z"/>
	<path fill="#854512" transform="scale(0.820312 0.820312)" d="M401.925 861.656C411.705 860.369 421.282 862.72 430.787 864.686C422.179 865.134 413.471 865.232 404.951 866.632C382.743 870.282 361.467 882.425 345.091 897.669C341.788 900.555 338.593 903.678 335.733 907.011C334.46 908.493 333.53 910.259 332.004 911.495C332.049 910.351 333.223 908.971 333.889 908.036C349.334 886.355 375.311 866.111 401.925 861.656Z"/>
	<path fill="#854512" transform="scale(0.820312 0.820312)" d="M354.486 929.805C364.304 917.277 388.331 905.355 403.975 903.413C415.971 901.924 427.873 906.357 439.145 909.877C431.702 909.637 424.308 909.256 416.882 910.007C398.328 911.881 375.201 921.248 359.593 931.668L354.486 929.805Z"/>
	<path fill="#854512" transform="scale(0.820312 0.820312)" d="M335.434 921.907C340.051 909.388 367.907 891.633 379.426 886.304C401.944 875.885 410.857 881.258 432.959 887.833C398.951 886.213 369.017 896.275 343.758 919.499Q341.59 921.53 339.53 923.671L335.434 921.907Z"/>
	<path fill="#854512" transform="scale(0.820312 0.820312)" d="M507.07 917.662C509.878 929.569 511.209 946.095 511.002 958.424L510.602 958.7C466.967 958.198 425.287 952.204 383.428 939.961C383.492 939.823 383.543 939.679 383.62 939.547C385.989 935.482 393.224 933.876 397.451 932.734C409.872 929.379 422.6 927.467 435.445 929.25C452.6 931.632 471.173 943.603 488.748 938.478C499.174 935.437 502.479 926.366 507.07 917.662Z"/>
	<path fill="#5D2816" transform="scale(0.820312 0.820312)" d="M514.064 860.949C515.508 864.728 516.816 869.469 518.938 872.862C524.18 886.982 528.955 901.681 534.873 915.502L537.724 923.864C538.878 931.683 539.939 951.623 542.265 957.551Q526.477 959.311 510.602 958.7L511.002 958.424C511.209 946.095 509.878 929.569 507.07 917.662C505.242 902.076 497.928 884.982 487.389 873.294C486.309 872.215 485.532 870.869 484.696 869.6C494.089 864.134 504.132 864.427 514.064 860.949Z"/>
	<path fill="#854512" transform="scale(0.820312 0.820312)" d="M514.064 860.949C515.508 864.728 516.816 869.469 518.938 872.862C524.18 886.982 528.955 901.681 534.873 915.502C530.158 916.811 524.438 917.487 519.629 916.424C507.663 913.781 504.89 899.539 501.042 889.723C499.048 884.634 496.285 878.773 493.207 874.237C492.125 872.642 491.034 871.066 489.038 870.704C487.787 871.406 487.852 871.972 487.389 873.294C486.309 872.215 485.532 870.869 484.696 869.6C494.089 864.134 504.132 864.427 514.064 860.949Z"/>
	<defs>
		<linearGradient id="gradient_0" gradientUnits="userSpaceOnUse" x1="688.76318" y1="929.95245" x2="708.2774" y2="581.88617">
			<stop offset="0" stop-color="#05233F"/>
			<stop offset="1" stop-color="#023E6B"/>
		</linearGradient>
	</defs>
	<path fill="url(#gradient_0)" transform="scale(0.820312 0.820312)" d="M852.203 584.464C868.858 635.812 871.227 682.258 871.067 735.584C871.043 743.518 870.602 751.288 869.954 759.195C869.508 764.646 868.042 771.974 868.868 777.337C851.131 802.909 830.176 824.811 807.207 845.723C800.102 852.192 792.985 859.067 784.893 864.289C783.923 863.526 783.685 863.156 782.384 863.265C778.485 863.592 753.729 875.388 748.052 877.673C739.016 881.311 729.774 884.608 720.567 887.785C665.423 906.813 616.604 917.671 558.243 921.36C554.853 921.574 551.398 921.987 548.01 922.036C545.531 922.072 542.857 921.703 540.409 922.028C539.481 922.151 538.575 922.389 537.994 923.205C537.857 923.398 537.814 923.644 537.724 923.864L534.873 915.502C528.955 901.681 524.18 886.982 518.938 872.862C520.141 874.134 521.503 875.271 522.805 876.441C529.296 876.603 535.782 877.239 542.278 877.426Q564.346 877.995 586.382 876.676C646.15 872.799 705.407 857.829 757.841 828.463C769.762 821.787 781.909 814.607 792.263 805.635L793.088 805.749L793.187 804.884C795.596 802.424 798.424 800.307 801.044 798.068C812.261 788.48 822.481 777.462 830.433 765.01C855.221 726.2 860.798 675.071 857.805 630.065C857.274 622.08 856.158 613.918 854.851 606.032C853.745 599.361 851.545 591.778 852.148 584.99C852.163 584.814 852.185 584.639 852.203 584.464Z"/>
	<path fill="#083F6D" transform="scale(0.820312 0.820312)" d="M383.956 468.246C382.266 477.086 368.426 492.666 363.312 501.261C353.937 517.017 345.449 533.596 336.947 549.847C328.453 566.084 318.557 583.361 313.284 600.967C312.623 603.529 311.914 606.043 311.094 608.561C325.735 615.636 339.798 625.386 353.607 633.963C349.278 636.557 316.456 653.477 316.16 655.062C315.984 656.005 316.437 656.965 316.739 657.846C316.575 664.921 321.468 673.084 324.139 679.498Q327.705 688.105 331.538 696.597Q335.37 705.089 339.464 713.458Q343.559 721.827 347.911 730.064Q352.264 738.302 356.87 746.4Q361.477 754.499 366.332 762.45Q371.188 770.401 376.289 778.198Q381.39 785.994 386.73 793.628Q392.071 801.262 397.646 808.727Q407.959 822.668 418.698 836.285C420.84 838.947 426.398 843.949 427.4 846.944C426.712 847.477 426.091 847.799 425.289 848.137C425.415 849.27 425.477 849.277 426.397 849.921C426.672 850.113 426.968 850.273 427.253 850.45L418.893 850.063C391.052 852.943 382.837 857.601 359.703 872.315C345.363 883.782 327.624 897.557 321.085 915.264Q316.112 912.87 311.199 910.353Q306.286 907.837 301.436 905.201Q296.587 902.564 291.804 899.809Q287.021 897.054 282.307 894.182Q277.593 891.31 272.952 888.322Q268.31 885.335 263.744 882.234Q259.177 879.134 254.689 875.921Q250.2 872.709 245.792 869.387Q241.384 866.065 237.058 862.635Q232.733 859.206 228.494 855.671Q224.255 852.136 220.104 848.497Q215.953 844.859 211.893 841.119Q207.833 837.38 203.866 833.541Q199.9 829.703 196.029 825.768Q192.158 821.833 188.385 817.804Q184.612 813.775 180.94 809.654C173.863 801.601 166.723 794.095 160.947 785.011C156.431 779.619 152.611 773.389 148.715 767.529C138.42 752.047 129.127 736.301 119.721 720.28C101.786 688.015 80.4703 629.556 76.2675 592.825C77.7335 591.196 80.3324 591.191 82.4373 591.085C94.8838 590.46 107.441 591.814 119.901 591.874C145.323 591.996 170.857 591.401 196.26 592.074C199.693 592.164 210.057 592.076 212.9 593.46C216.524 587.456 218.865 579.968 221.884 573.575C229.824 556.767 240.021 540.086 252.663 526.421C272.737 506.447 342.89 483.371 371.954 473.056Q375.859 471.285 379.815 469.633L383.956 468.246Z"/>
	<path fill="#6FC1E6" transform="scale(0.820312 0.820312)" d="M119.721 720.28C128.537 719.687 137.575 716.492 146.156 714.428C156.889 711.845 167.721 709.665 178.49 707.235C175.054 721.948 171.368 736.66 168.262 751.444C166.581 759.443 164.019 778.854 160.947 785.011C156.431 779.619 152.611 773.389 148.715 767.529C138.42 752.047 129.127 736.301 119.721 720.28Z"/>
	<path fill="#02203B" transform="scale(0.820312 0.820312)" d="M208.715 777.596Q214.546 745.877 221.92 714.48C228.305 686.955 235.274 659.473 240.307 631.662C242.311 620.591 244.192 609.217 245.234 598.022C246.205 587.597 247.451 565.402 250.107 556.28C248.049 585.255 248.72 614.978 250.191 644.001C250.762 655.268 252.213 666.646 252.396 677.896C254.465 707.954 258.165 738.314 264.914 767.689C267.27 777.946 269.699 788.237 272.48 798.387C273.929 803.679 276.188 809.246 277.052 814.629C287.693 817.963 297.973 822.35 308.538 825.906C323.823 831.052 339.913 834.93 355.771 837.845Q369.614 840.426 383.509 842.707C391.04 843.87 409.496 844.869 415.391 847.873L418.766 849.593L418.893 850.063C391.052 852.943 382.837 857.601 359.703 872.315C344.933 863.843 329.507 856.704 314.171 849.336C303.917 844.41 293.618 838.935 282.991 834.877L270.252 829.441C258.796 825.965 247.784 821.056 236.21 817.709C224.001 814.179 210.521 812.376 198.803 807.602C203.613 807.546 208.446 806.878 213.25 806.576Q225.143 805.752 237.033 806.619C222.451 798.612 211.529 794.485 194.909 792.805C204.945 787.485 215.076 784.832 226.373 783.787Q217.766 780.06 208.715 777.596Z"/>
	<path fill="#A2D5EA" transform="scale(0.820312 0.820312)" d="M76.2675 592.825C77.7335 591.196 80.3324 591.191 82.4373 591.085C94.8838 590.46 107.441 591.814 119.901 591.874C145.323 591.996 170.857 591.401 196.26 592.074C199.693 592.164 210.057 592.076 212.9 593.46C197.76 630.143 189.221 669.139 178.49 707.235C167.721 709.665 156.889 711.845 146.156 714.428C137.575 716.492 128.537 719.687 119.721 720.28C101.786 688.015 80.4703 629.556 76.2675 592.825Z"/>
	<defs>
		<linearGradient id="gradient_1" gradientUnits="userSpaceOnUse" x1="347.625" y1="855.3291" x2="316.30518" y2="474.90863">
			<stop offset="0" stop-color="#062A49"/>
			<stop offset="1" stop-color="#085B9B"/>
		</linearGradient>
	</defs>
	<path fill="url(#gradient_1)" transform="scale(0.820312 0.820312)" d="M383.956 468.246C382.266 477.086 368.426 492.666 363.312 501.261C353.937 517.017 345.449 533.596 336.947 549.847C328.453 566.084 318.557 583.361 313.284 600.967C312.623 603.529 311.914 606.043 311.094 608.561C325.735 615.636 339.798 625.386 353.607 633.963C349.278 636.557 316.456 653.477 316.16 655.062C315.984 656.005 316.437 656.965 316.739 657.846C316.575 664.921 321.468 673.084 324.139 679.498Q327.705 688.105 331.538 696.597Q335.37 705.089 339.464 713.458Q343.559 721.827 347.911 730.064Q352.264 738.302 356.87 746.4Q361.477 754.499 366.332 762.45Q371.188 770.401 376.289 778.198Q381.39 785.994 386.73 793.628Q392.071 801.262 397.646 808.727Q407.959 822.668 418.698 836.285C420.84 838.947 426.398 843.949 427.4 846.944C426.712 847.477 426.091 847.799 425.289 848.137C425.415 849.27 425.477 849.277 426.397 849.921C426.672 850.113 426.968 850.273 427.253 850.45L418.893 850.063L418.766 849.593L415.391 847.873C409.496 844.869 391.04 843.87 383.509 842.707Q369.614 840.426 355.771 837.845C339.913 834.93 323.823 831.052 308.538 825.906C297.973 822.35 287.693 817.963 277.052 814.629C276.188 809.246 273.929 803.679 272.48 798.387C269.699 788.237 267.27 777.946 264.914 767.689C258.165 738.314 254.465 707.954 252.396 677.896C252.213 666.646 250.762 655.268 250.191 644.001C248.72 614.978 248.049 585.255 250.107 556.28L250.415 555.907C251.062 550.455 251.499 544.767 252.591 539.396C253.213 536.335 254.318 533.401 254.768 530.287C254.902 529.36 255.061 528.434 254.721 527.535C254.45 526.818 253.33 526.676 252.663 526.421C272.737 506.447 342.89 483.371 371.954 473.056Q375.859 471.285 379.815 469.633L383.956 468.246Z"/>
	<defs>
		<linearGradient id="gradient_2" gradientUnits="userSpaceOnUse" x1="677.68219" y1="826.10223" x2="592.74963" y2="489.92191">
			<stop offset="0" stop-color="#05213B"/>
			<stop offset="1" stop-color="#045D9B"/>
		</linearGradient>
	</defs>
	<path fill="url(#gradient_2)" transform="scale(0.820312 0.820312)" d="M680.882 466.024C682.816 466.954 684.74 467.957 686.723 468.774C696.106 469.795 706.285 475.273 715.071 478.699C724.107 482.223 733.29 485.378 742.262 489.062Q758.982 495.86 775.085 504.011Q791.188 512.163 806.565 521.613C813.765 526.011 821.305 530.471 828.019 535.584C837.981 543.632 848.398 571.929 852.203 584.464C852.185 584.639 852.163 584.814 852.148 584.99C851.545 591.778 853.745 599.361 854.851 606.032C856.158 613.918 857.274 622.08 857.805 630.065C860.798 675.071 855.221 726.2 830.433 765.01C822.481 777.462 812.261 788.48 801.044 798.068C798.424 800.307 795.596 802.424 793.187 804.884L793.088 805.749L792.263 805.635C781.909 814.607 769.762 821.787 757.841 828.463C705.407 857.829 646.15 872.799 586.382 876.676Q564.346 877.995 542.278 877.426C535.782 877.239 529.296 876.603 522.805 876.441C521.503 875.271 520.141 874.134 518.938 872.862C516.816 869.469 515.508 864.728 514.064 860.949C504.132 864.427 494.089 864.134 484.696 869.6C478.578 863.795 471.287 860.411 463.385 857.719C451.192 855.163 439.875 851.073 427.253 850.45C426.968 850.273 426.672 850.113 426.397 849.921C425.477 849.277 425.415 849.27 425.289 848.137C426.091 847.799 426.712 847.477 427.4 846.944C426.398 843.949 420.84 838.947 418.698 836.285Q407.959 822.668 397.646 808.727Q392.071 801.262 386.73 793.628Q381.39 785.994 376.289 778.198Q371.188 770.401 366.332 762.45Q361.477 754.499 356.87 746.4Q352.264 738.302 347.911 730.064Q343.559 721.827 339.464 713.458Q335.37 705.089 331.538 696.597Q327.705 688.105 324.139 679.498C321.468 673.084 316.575 664.921 316.739 657.846C326.028 675.061 334.956 692.317 344.995 709.129Q359.808 733.399 376.198 756.634Q392.589 779.868 410.483 801.965Q418.667 812.008 427.464 821.518C432.092 826.449 437.002 831.134 441.348 836.32C443.561 839.585 447.026 844.584 450.77 845.993L452.105 845.915C458.738 842.167 466.248 839.348 473.152 836.058Q492.489 826.887 511.082 816.288Q515.789 813.637 520.428 810.869Q525.066 808.1 529.634 805.215Q534.201 802.33 538.694 799.331Q543.187 796.332 547.603 793.22Q552.019 790.109 556.355 786.886Q560.691 783.664 564.944 780.334Q569.197 777.003 573.365 773.566Q577.533 770.129 581.613 766.589Q585.692 763.047 589.681 759.405Q593.67 755.762 597.566 752.019Q601.462 748.277 605.262 744.438Q609.062 740.598 612.764 736.664Q616.466 732.729 620.067 728.703Q623.669 724.677 627.167 720.561Q630.666 716.445 634.06 712.241Q637.453 708.038 640.74 703.751Q650.431 691.065 659.391 677.852C663.021 672.537 666.461 666.876 670.464 661.842L670.77 661.463L671.196 660.958L679.711 660.969C666.511 652.24 652.465 644.776 638.525 637.313C661.897 632.35 684.818 631.949 708.611 631.991C705.241 597.23 704.769 562.477 699.36 527.869C697.592 516.561 695.634 505.405 692.276 494.443C691.18 490.864 690.208 487.104 688.553 483.734C685.48 477.478 681.003 473.354 680.882 466.024Z"/>
	<path fill="#02203B" transform="scale(0.820312 0.820312)" d="M427.253 850.45C426.968 850.273 426.672 850.113 426.397 849.921C425.477 849.277 425.415 849.27 425.289 848.137C426.091 847.799 426.712 847.477 427.4 846.944C426.398 843.949 420.84 838.947 418.698 836.285Q407.959 822.668 397.646 808.727Q392.071 801.262 386.73 793.628Q381.39 785.994 376.289 778.198Q371.188 770.401 366.332 762.45Q361.477 754.499 356.87 746.4Q352.264 738.302 347.911 730.064Q343.559 721.827 339.464 713.458Q335.37 705.089 331.538 696.597Q327.705 688.105 324.139 679.498C321.468 673.084 316.575 664.921 316.739 657.846C326.028 675.061 334.956 692.317 344.995 709.129Q359.808 733.399 376.198 756.634Q392.589 779.868 410.483 801.965Q418.667 812.008 427.464 821.518C432.092 826.449 437.002 831.134 441.348 836.32C443.561 839.585 447.026 844.584 450.77 845.993L452.105 845.915C458.738 842.167 466.248 839.348 473.152 836.058Q492.489 826.887 511.082 816.288Q515.789 813.637 520.428 810.869Q525.066 808.1 529.634 805.215Q534.201 802.33 538.694 799.331Q543.187 796.332 547.603 793.22Q552.019 790.109 556.355 786.886Q560.691 783.664 564.944 780.334Q569.197 777.003 573.365 773.566Q577.533 770.129 581.613 766.589Q585.692 763.047 589.681 759.405Q593.67 755.762 597.566 752.019Q601.462 748.277 605.262 744.438Q609.062 740.598 612.764 736.664Q616.466 732.729 620.067 728.703Q623.669 724.677 627.167 720.561Q630.666 716.445 634.06 712.241Q637.453 708.038 640.74 703.751Q650.431 691.065 659.391 677.852C663.021 672.537 666.461 666.876 670.464 661.842L670.77 661.463Q678.223 666.571 685.95 671.256C677.333 684.721 668.655 698.007 658.904 710.698Q655.635 714.923 652.263 719.066Q648.892 723.209 645.419 727.268Q641.947 731.326 638.375 735.299Q634.804 739.271 631.136 743.154Q627.468 747.037 623.706 750.829Q619.943 754.621 616.089 758.32Q612.235 762.018 608.29 765.62Q604.346 769.222 600.315 772.727Q596.283 776.231 592.167 779.635Q588.05 783.039 583.851 786.341Q579.652 789.642 575.373 792.84Q571.094 796.037 566.738 799.129Q562.382 802.22 557.951 805.203Q553.52 808.187 549.017 811.06Q544.514 813.934 539.942 816.696Q535.37 819.457 530.731 822.106C515.139 831.009 499.061 839.507 482.916 847.341C477.767 849.839 471.99 851.046 467.02 853.886C465.169 854.944 464.059 855.588 463.385 857.719C451.192 855.163 439.875 851.073 427.253 850.45Z"/>
	<path fill="#083F6D" transform="scale(0.820312 0.820312)" d="M514.064 860.949C513.796 860.095 513.578 859.246 513.363 858.378C513.951 857.474 514.543 856.947 515.577 856.572C519.307 855.22 523.654 854.794 527.548 853.528Q552.097 845.285 576.745 837.344L637.556 818.073C673.224 807.059 711.302 795.537 749.004 795.921C764.248 796.076 778.234 800.042 792.263 805.635C781.909 814.607 769.762 821.787 757.841 828.463C705.407 857.829 646.15 872.799 586.382 876.676Q564.346 877.995 542.278 877.426C535.782 877.239 529.296 876.603 522.805 876.441C521.503 875.271 520.141 874.134 518.938 872.862C516.816 869.469 515.508 864.728 514.064 860.949Z"/>
	<defs>
		<linearGradient id="gradient_3" gradientUnits="userSpaceOnUse" x1="691.00201" y1="726.26581" x2="878.53314" y2="635.59088">
			<stop offset="0" stop-color="#063D68"/>
			<stop offset="1" stop-color="#095F95"/>
		</linearGradient>
	</defs>
	<path fill="url(#gradient_3)" transform="scale(0.820312 0.820312)" d="M828.019 535.584C837.981 543.632 848.398 571.929 852.203 584.464C852.185 584.639 852.163 584.814 852.148 584.99C851.545 591.778 853.745 599.361 854.851 606.032C856.158 613.918 857.274 622.08 857.805 630.065C860.798 675.071 855.221 726.2 830.433 765.01C822.481 777.462 812.261 788.48 801.044 798.068C798.424 800.307 795.596 802.424 793.187 804.884C779.451 796.109 759.535 792.378 743.446 790.789C737.092 790.162 730.704 790.127 724.369 789.29C733.9 783.059 744.512 777.277 755.794 775.052C761.001 774.024 766.464 773.736 771.57 772.307C771.719 772.265 771.867 772.22 772.016 772.176C751.065 771.594 735.367 774.414 715.421 780.772C716.734 769.263 717.45 757.674 718.748 746.153C723.867 700.706 732.208 647.061 752.255 605.508C763.755 581.671 785.656 554.774 809.381 542.404C815.222 539.359 821.812 537.727 828.019 535.584Z"/>
	<path fill="#4794BC" transform="scale(0.820312 0.820312)" d="M774.776 152.969C793.708 166.412 810.7 181.753 827.012 198.252C893.069 265.069 933.192 347.392 948.935 439.707Q949.816 445.094 950.566 450.5Q951.316 455.907 951.936 461.33Q952.555 466.753 953.043 472.189Q953.531 477.626 953.887 483.072Q954.243 488.519 954.468 493.973Q954.692 499.426 954.785 504.884Q954.877 510.341 954.838 515.8Q954.798 521.258 954.627 526.713Q954.455 532.169 954.152 537.619Q953.848 543.069 953.413 548.51Q952.978 553.95 952.411 559.379Q951.845 564.808 951.147 570.222Q950.449 575.635 949.621 581.03Q948.792 586.425 947.833 591.799Q946.875 597.172 945.786 602.521Q944.698 607.869 943.48 613.19Q942.263 618.511 940.917 623.801Q939.571 629.091 938.098 634.346Q936.624 639.602 935.024 644.82Q933.424 650.039 931.698 655.217Q929.973 660.396 928.122 665.531Q926.271 670.666 924.297 675.754Q922.323 680.843 920.226 685.883Q918.13 690.922 915.912 695.909Q913.694 700.897 911.356 705.829Q909.018 710.761 906.561 715.635Q904.105 720.51 901.531 725.323Q898.957 730.136 896.268 734.886Q893.578 739.636 890.775 744.319Q887.971 749.003 885.055 753.617Q882.139 758.231 879.112 762.773Q876.086 767.315 872.95 771.783Q870.971 774.606 868.868 777.337C868.042 771.974 869.508 764.646 869.954 759.195C870.602 751.288 871.043 743.518 871.067 735.584C871.227 682.258 868.858 635.812 852.203 584.464C848.398 571.929 837.981 543.632 828.019 535.584C821.305 530.471 813.765 526.011 806.565 521.613Q791.188 512.163 775.085 504.011Q758.982 495.859 742.262 489.062C733.29 485.378 724.107 482.223 715.071 478.699C706.285 475.273 696.106 469.795 686.723 468.774Q687.61 466.981 688.448 465.165C697.85 444.647 690.574 421.764 683.145 401.948C692.546 412.69 698.532 425.426 704.858 438.063C707.231 406.26 702.211 375.277 685.74 347.641C691.389 351.841 696.474 356.359 701.487 361.281C701.579 349.082 700.898 337.97 697.995 326.083C704.291 313.046 707.698 301.54 708.53 287.014C708.547 278.03 707.81 269.255 705.354 260.576C702.219 249.5 696.752 238.808 686.314 233.02C685.005 227.379 684.046 221.711 682.486 216.121C677.508 198.294 668.421 182.953 656.885 168.655C663.974 167.076 670.962 165.097 678.08 163.616Q701.993 158.868 726.228 156.206C742.424 154.458 758.566 154.191 774.776 152.969Z"/>
	<path fill="#803727" transform="scale(0.820312 0.820312)" d="M697.995 326.083C700.898 337.97 701.579 349.082 701.487 361.281C696.474 356.359 691.389 351.841 685.74 347.641C702.211 375.277 707.231 406.26 704.858 438.063C698.532 425.426 692.546 412.69 683.145 401.948C690.574 421.764 697.85 444.647 688.448 465.165Q687.61 466.981 686.723 468.774C684.74 467.957 682.816 466.954 680.882 466.024C681.003 473.354 685.48 477.478 688.553 483.734C690.208 487.104 691.18 490.864 692.276 494.443C695.634 505.405 697.592 516.561 699.36 527.869C704.769 562.477 705.241 597.23 708.611 631.991C684.818 631.949 661.897 632.35 638.525 637.313C652.465 644.776 666.511 652.24 679.711 660.969L671.196 660.958L670.77 661.463L670.464 661.842C666.461 666.876 663.021 672.537 659.391 677.852Q650.431 691.065 640.74 703.751Q637.453 708.038 634.06 712.241Q630.666 716.445 627.168 720.561Q623.669 724.677 620.067 728.703Q616.466 732.729 612.764 736.664Q609.062 740.598 605.262 744.438Q601.462 748.277 597.566 752.019Q593.67 755.762 589.681 759.405Q585.692 763.047 581.613 766.588Q577.533 770.129 573.365 773.566Q569.197 777.003 564.944 780.334Q560.691 783.664 556.355 786.886Q552.019 790.109 547.603 793.22Q543.187 796.332 538.694 799.331Q534.201 802.33 529.634 805.215Q525.066 808.1 520.428 810.869Q515.789 813.637 511.082 816.288Q492.489 826.887 473.152 836.058C466.248 839.348 458.738 842.167 452.105 845.915L450.77 845.993C447.026 844.584 443.561 839.585 441.348 836.32C437.002 831.134 432.092 826.449 427.464 821.518Q418.667 812.008 410.483 801.965Q392.589 779.868 376.198 756.634Q359.808 733.399 344.995 709.129C334.956 692.317 326.028 675.061 316.739 657.846C316.437 656.965 315.984 656.005 316.16 655.062C316.456 653.477 349.278 636.557 353.607 633.963C339.798 625.386 325.735 615.636 311.094 608.561C311.914 606.043 312.623 603.529 313.284 600.967C318.557 583.361 328.453 566.084 336.947 549.847C345.449 533.596 353.937 517.017 363.312 501.261C368.426 492.666 382.266 477.086 383.956 468.246C385.181 467.505 386.342 466.703 387.51 465.878L390.41 464.132C392.27 468.581 392.942 474.279 393.874 479.013C396.491 492.298 398.789 510.156 403.102 522.498C407.182 514.974 411.886 507.763 416.353 500.463C421.749 491.645 426.954 482.742 432.64 474.102C433.813 478.952 435.142 483.712 436.785 488.427C439.875 497.298 452.603 526.562 460.732 529.616C462.019 530.1 462.766 530.101 463.98 529.444C470.809 525.747 475.867 505.31 478.115 497.727C480.056 501.942 481.962 506.247 484.64 510.054C497.442 489.861 510.995 470.385 524.946 450.967C529.322 444.878 536.315 433.463 542.111 429.247C547.555 425.288 556.169 424.899 562.583 423.19C579.445 418.695 602.5 409.351 614.786 397.082C621.787 390.091 622.037 382.901 622.02 373.618C636.61 365.804 648.31 354.919 658.888 342.356C663.549 343.091 667.876 343.965 672.6 343.123C674.365 342.968 676.176 342.884 677.907 342.485C686.145 340.581 693.561 332.922 697.995 326.083Z"/>
	<path fill="#083F6D" transform="scale(0.820312 0.820312)" d="M484.494 530.665C488.652 533.015 492.832 535.33 496.875 537.874C486.29 541.367 467.488 554.628 461.535 563.913C461.394 562.382 460.526 560.465 460.065 558.964C467.94 549.216 475.992 539.879 484.494 530.665Z"/>
	<defs>
		<linearGradient id="gradient_4" gradientUnits="userSpaceOnUse" x1="515.61462" y1="568.06256" x2="462.40219" y2="565.79962">
			<stop offset="0" stop-color="#054CA1"/>
			<stop offset="1" stop-color="#158FE6"/>
		</linearGradient>
	</defs>
	<path fill="url(#gradient_4)" transform="scale(0.820312 0.820312)" d="M496.875 537.874C506.225 543.151 511.603 550.78 517.791 559.33C520.101 562.055 524.379 567.282 524.425 570.953C524.427 571.121 524.357 571.282 524.323 571.447L523.21 573.743C516.116 581.661 511.664 591.526 506.709 600.825C506.633 603.879 506.529 606.933 506.59 609.988C495.807 610.197 484.59 609.906 473.852 608.897C474.092 605.932 473.912 602.962 473.803 599.994L472.267 596.658C470.11 585.74 465.288 574.436 461.535 563.913C467.488 554.628 486.29 541.367 496.875 537.874Z"/>
	<path fill="#083F6D" transform="scale(0.820312 0.820312)" d="M517.791 559.33C520.101 562.055 524.379 567.282 524.425 570.953C524.427 571.121 524.357 571.282 524.323 571.447L523.21 573.743C516.116 581.661 511.664 591.526 506.709 600.825C506.633 603.879 506.529 606.933 506.59 609.988C495.807 610.197 484.59 609.906 473.852 608.897C474.092 605.932 473.912 602.962 473.803 599.994L472.267 596.658C489.376 588.199 504.043 572.283 517.791 559.33Z"/>
	<path fill="#6FC1E6" transform="scale(0.820312 0.820312)" d="M473.803 599.994C480.647 599.989 501.749 599.262 506.709 600.825C506.633 603.879 506.529 606.933 506.59 609.988C495.807 610.197 484.59 609.906 473.852 608.897C474.092 605.932 473.912 602.962 473.803 599.994Z"/>
	<path fill="#BD6130" transform="scale(0.820312 0.820312)" d="M404.47 545.174C410.057 561.77 420.385 579.685 432.298 592.626C442.432 582.136 451.208 570.519 460.065 558.964C460.526 560.465 461.394 562.382 461.535 563.913C465.288 574.436 470.11 585.74 472.267 596.658L473.803 599.994C473.912 602.962 474.092 605.932 473.852 608.897C471.666 619.837 468.516 630.792 465.578 641.558C462.809 654.396 458.893 667.005 455.935 679.814C452.01 694.857 448.543 710.193 444.106 725.082L437.553 751.204C436.233 756.61 435.186 762.182 433.635 767.516C432.347 773.673 430.868 779.849 429.785 786.042C429.746 786.028 429.702 786.022 429.667 786C426.397 783.942 420.568 752.702 419.552 747.654C419.597 741.581 418.231 735.513 417.222 729.549Q415.057 716.991 413.092 704.4Q406.354 658.376 402.751 612.001C401.67 598.019 400.076 583.594 400.702 569.574C401.075 561.222 402.385 553.259 404.47 545.174Z"/>
	<path fill="#FEFEFE" transform="scale(0.820312 0.820312)" d="M697.995 326.083C700.898 337.97 701.579 349.082 701.487 361.281C696.474 356.359 691.389 351.841 685.74 347.641C702.211 375.277 707.231 406.26 704.858 438.063C698.532 425.426 692.546 412.69 683.145 401.948C690.574 421.764 697.85 444.647 688.448 465.165Q687.61 466.981 686.723 468.774C684.74 467.957 682.816 466.954 680.882 466.024C671.702 460.151 663.477 452.8 654.181 447.178C652.121 445.3 649.405 444.02 646.994 442.632C652.875 462.785 656.527 481.713 656.37 502.769C650.115 498.68 644.334 494.134 639.063 488.829C629.59 480.719 620.077 472.642 610.719 464.4C612.737 475.178 615.421 486.154 616.848 497.009C602.833 482.126 589.429 466.651 575.244 451.922C576.578 462.309 578.028 472.728 577.866 483.226C577.62 499.159 572.577 522.611 569.219 538.619Q550.645 504.077 531.024 470.118C530.288 490.237 525.196 502.013 515.283 519.208C512.066 524.788 508.827 530.679 504.853 535.756C496.728 527.876 490.004 520.121 484.64 510.054C497.442 489.861 510.995 470.385 524.946 450.967C529.322 444.878 536.315 433.463 542.111 429.247C547.555 425.288 556.169 424.899 562.583 423.19C579.445 418.695 602.5 409.351 614.786 397.082C621.787 390.091 622.037 382.901 622.02 373.618C636.61 365.804 648.31 354.919 658.888 342.356C663.549 343.091 667.876 343.965 672.6 343.123C674.365 342.968 676.176 342.884 677.907 342.485C686.145 340.581 693.561 332.922 697.995 326.083Z"/>
	<path fill="#2F6688" transform="scale(0.820312 0.820312)" d="M390.41 464.132C392.27 468.581 392.942 474.279 393.874 479.013C396.491 492.298 398.789 510.156 403.102 522.498C390.93 569.247 403.173 677.295 413.934 725.675C415.567 733.018 416.998 740.568 419.552 747.654C420.568 752.702 426.397 783.942 429.667 786C429.702 786.022 429.746 786.028 429.785 786.042L429.515 787.731C429.009 799.544 435.052 814.576 438.493 825.878C439.492 829.161 441.032 832.907 441.348 836.32C437.002 831.134 432.092 826.449 427.464 821.518Q418.667 812.008 410.483 801.965Q392.589 779.868 376.198 756.634Q359.808 733.399 344.995 709.129C334.956 692.317 326.028 675.061 316.739 657.846C316.437 656.965 315.984 656.005 316.16 655.062C316.456 653.477 349.278 636.557 353.607 633.963C339.798 625.386 325.735 615.636 311.094 608.561C311.914 606.043 312.623 603.529 313.284 600.967C318.557 583.361 328.453 566.084 336.947 549.847C345.449 533.596 353.937 517.017 363.312 501.261C368.426 492.666 382.266 477.086 383.956 468.246C385.181 467.505 386.342 466.703 387.51 465.878L390.41 464.132Z"/>
	<path fill="#02203B" transform="scale(0.820312 0.820312)" d="M313.284 600.967C331.372 609.565 349.403 618.799 368.086 626.044C363.3 628.769 358.537 631.502 353.607 633.963C339.798 625.386 325.735 615.636 311.094 608.561C311.914 606.043 312.623 603.529 313.284 600.967Z"/>
	<path fill="#2F6688" transform="scale(0.820312 0.820312)" d="M646.994 442.632C649.405 444.02 652.121 445.3 654.181 447.178C663.477 452.8 671.702 460.151 680.882 466.024C681.003 473.354 685.48 477.478 688.553 483.734C690.208 487.104 691.18 490.864 692.276 494.443C695.634 505.405 697.592 516.561 699.36 527.869C704.769 562.477 705.241 597.23 708.611 631.991C684.818 631.949 661.897 632.35 638.525 637.313C652.465 644.776 666.511 652.24 679.711 660.969L671.196 660.958L670.77 661.463L670.464 661.842C666.461 666.876 663.021 672.537 659.391 677.852Q650.431 691.065 640.74 703.751Q637.453 708.038 634.06 712.241Q630.666 716.445 627.168 720.561Q623.669 724.677 620.067 728.703Q616.466 732.729 612.764 736.664Q609.062 740.598 605.262 744.438Q601.462 748.277 597.566 752.019Q593.67 755.762 589.681 759.405Q585.692 763.047 581.613 766.588Q577.533 770.129 573.365 773.566Q569.197 777.003 564.944 780.334Q560.691 783.664 556.355 786.886Q552.019 790.109 547.603 793.22Q543.187 796.332 538.694 799.331Q534.201 802.33 529.634 805.215Q525.066 808.1 520.428 810.869Q515.789 813.637 511.082 816.288Q492.489 826.887 473.152 836.058C466.248 839.348 458.738 842.167 452.105 845.915L450.77 845.993C447.026 844.584 443.561 839.585 441.348 836.32C441.032 832.907 439.492 829.161 438.493 825.878C435.052 814.576 429.009 799.544 429.515 787.731L429.785 786.042C430.868 779.849 432.347 773.673 433.635 767.516C435.186 762.182 436.233 756.61 437.553 751.204L444.106 725.082C448.543 710.193 452.01 694.857 455.935 679.814C458.893 667.005 462.809 654.396 465.578 641.558C468.516 630.792 471.666 619.837 473.852 608.897C484.59 609.906 495.807 610.197 506.59 609.988C506.529 606.933 506.633 603.879 506.709 600.825C511.664 591.526 516.116 581.661 523.21 573.743L524.323 571.447C527.559 574.747 530.125 578.903 533.011 582.52C539.368 590.486 547.699 596.253 556.432 601.323C572.021 593.344 586.341 580.873 598.159 568.048C601.296 564.644 609.69 553.32 613.332 552.437C613.923 548.62 620.475 534.707 622.264 530.303C627.857 516.528 632.677 502.242 639.063 488.829C644.334 494.134 650.115 498.68 656.37 502.769C656.527 481.713 652.875 462.785 646.994 442.632Z"/>
	<path fill="#02203B" transform="scale(0.820312 0.820312)" d="M654.181 447.178C663.477 452.8 671.702 460.151 680.882 466.024C681.003 473.354 685.48 477.478 688.553 483.734C690.208 487.104 691.18 490.864 692.276 494.443C695.634 505.405 697.592 516.561 699.36 527.869C704.769 562.477 705.241 597.23 708.611 631.991C684.818 631.949 661.897 632.35 638.525 637.313C652.465 644.776 666.511 652.24 679.711 660.969L671.196 660.958C666.508 659.37 661.605 655.735 657.187 653.348C643.397 645.897 629.608 638.719 616.288 630.429C636.096 624.105 663.015 619.025 683.838 617.054C690.246 616.448 696.714 616.387 703.14 615.94Q700.337 586.822 695.544 557.964Q690.751 529.107 683.991 500.646C681.811 491.747 679.785 481.512 675.614 473.324C672.273 466.764 667.568 460.735 662.482 455.441C660.301 453.172 655.664 450.297 654.363 447.691C654.282 447.529 654.241 447.349 654.181 447.178Z"/>
	<path fill="#4794BC" transform="scale(0.820312 0.820312)" d="M433.635 767.516C435.186 762.182 436.233 756.61 437.553 751.204L444.106 725.082C454.377 735.469 464.626 745.526 475.54 755.248C483.881 762.678 492.81 769.685 500.71 777.57L501.812 778.4C499.939 783.488 484.549 803.637 480.67 809.856C475.741 816.88 470.587 823.528 464.885 829.945C460.65 834.713 456.069 839.187 452.108 844.19L452.105 845.915L450.77 845.993C447.026 844.584 443.561 839.585 441.348 836.32C441.032 832.907 439.492 829.161 438.493 825.878C435.052 814.576 429.009 799.544 429.515 787.731L429.785 786.042C430.868 779.849 432.347 773.673 433.635 767.516Z"/>
	<path fill="#0765C6" transform="scale(0.820312 0.820312)" d="M433.635 767.516C441.802 772.931 448.697 779.895 455.816 786.572L480.67 809.856C475.741 816.88 470.587 823.528 464.885 829.945C460.65 834.713 456.069 839.187 452.108 844.19L452.105 845.915L450.77 845.993C447.026 844.584 443.561 839.585 441.348 836.32C441.032 832.907 439.492 829.161 438.493 825.878C435.052 814.576 429.009 799.544 429.515 787.731L429.785 786.042C430.868 779.849 432.347 773.673 433.635 767.516Z"/>
	<path fill="#083F6D" transform="scale(0.820312 0.820312)" d="M429.515 787.731C433.281 800.896 438.605 813.567 444.147 826.068C446.783 832.013 450.196 837.998 452.108 844.19L452.105 845.915L450.77 845.993C447.026 844.584 443.561 839.585 441.348 836.32C441.032 832.907 439.492 829.161 438.493 825.878C435.052 814.576 429.009 799.544 429.515 787.731Z"/>
	<path fill="#BD6130" transform="scale(0.820312 0.820312)" d="M556.432 601.323C572.021 593.344 586.341 580.873 598.159 568.048C601.296 564.644 609.69 553.32 613.332 552.437C605.835 573.095 596.509 593.001 587.509 613.033Q563.902 666.383 537.711 718.513C534.38 725.145 530.483 731.486 527.119 738.071C525.762 740.465 523.201 746.348 520.8 747.37C517.406 754.257 506.673 774.164 501.812 778.4L500.71 777.57C492.81 769.685 483.881 762.678 475.54 755.248C464.626 745.526 454.377 735.469 444.106 725.082C448.543 710.193 452.01 694.857 455.935 679.814C458.893 667.005 462.809 654.396 465.578 641.558C468.516 630.792 471.666 619.837 473.852 608.897C484.59 609.906 495.807 610.197 506.59 609.988C506.529 606.933 506.633 603.879 506.709 600.825C511.664 591.526 516.116 581.661 523.21 573.743L524.323 571.447C527.559 574.747 530.125 578.903 533.011 582.52C539.368 590.486 547.699 596.253 556.432 601.323Z"/>
	<path fill="#803727" transform="scale(0.820312 0.820312)" d="M523.21 573.743L523.102 574.461C521.675 583.481 516.356 591.359 515.565 600.531C514.031 618.328 515.668 636.293 517.162 654.031Q519.612 686.114 524.021 717.987C524.689 723.089 525.209 733.833 527.119 738.071C525.762 740.465 523.201 746.348 520.8 747.37C519.627 743.065 519.627 738.295 518.678 733.852C516.352 717.5 515.311 700.793 513.54 684.358C513.416 674.325 512.061 664.161 511.053 654.176L506.59 609.988C506.529 606.933 506.633 603.879 506.709 600.825C511.664 591.526 516.116 581.661 523.21 573.743Z"/>
	<defs>
		<linearGradient id="gradient_5" gradientUnits="userSpaceOnUse" x1="512.40607" y1="646.20593" x2="466.44119" y2="645.68451">
			<stop offset="0" stop-color="#0353AD"/>
			<stop offset="1" stop-color="#0B6FDE"/>
		</linearGradient>
	</defs>
	<path fill="url(#gradient_5)" transform="scale(0.820312 0.820312)" d="M473.852 608.897C484.59 609.906 495.807 610.197 506.59 609.988L511.053 654.176C512.061 664.161 513.416 674.325 513.54 684.358C508.376 681.28 503.429 675.531 498.956 671.412C488.039 661.361 477.127 650.86 465.578 641.558C468.516 630.792 471.666 619.837 473.852 608.897Z"/>
	<path fill="#4794BC" transform="scale(0.820312 0.820312)" d="M455.935 679.814C458.893 667.005 462.809 654.396 465.578 641.558C477.127 650.86 488.039 661.361 498.956 671.412C503.429 675.531 508.376 681.28 513.54 684.358C515.311 700.793 516.352 717.5 518.678 733.852C514.598 732.112 511.402 728.939 508.143 726.016C497.797 717.657 488.008 708.439 478.009 699.655C470.734 693.264 462.428 686.946 455.935 679.814Z"/>
	<path fill="#0765C6" transform="scale(0.820312 0.820312)" d="M455.935 679.814C462.428 686.946 470.734 693.264 478.009 699.655C488.008 708.439 497.797 717.657 508.143 726.016C511.402 728.939 514.598 732.112 518.678 733.852C519.627 738.295 519.627 743.065 520.8 747.37C517.406 754.257 506.673 774.164 501.812 778.4L500.71 777.57C492.81 769.685 483.881 762.678 475.54 755.248C464.626 745.526 454.377 735.469 444.106 725.082C448.543 710.193 452.01 694.857 455.935 679.814Z"/>
	<path fill="#083F6D" transform="scale(0.820312 0.820312)" d="M500.71 777.57C501.55 770.837 504.336 764.211 505.504 757.47C506.934 749.22 506.439 740.718 507.136 732.387C507.317 730.221 507.521 728.11 508.143 726.016C511.402 728.939 514.598 732.112 518.678 733.852C519.627 738.295 519.627 743.065 520.8 747.37C517.406 754.257 506.673 774.164 501.812 778.4L500.71 777.57Z"/>
	<path fill="#A2D5EA" transform="scale(0.820312 0.820312)" d="M81.6503 402.122C101.69 328.532 128.943 274.182 179.437 216.566Q183.019 212.492 186.7 208.507Q190.381 204.522 194.159 200.63Q197.936 196.737 201.809 192.938Q205.682 189.139 209.646 185.437Q213.611 181.735 217.666 178.131Q221.721 174.527 225.863 171.025Q230.005 167.522 234.233 164.122Q238.46 160.723 242.77 157.428Q247.079 154.133 251.469 150.946Q255.858 147.758 260.325 144.68Q264.791 141.601 269.332 138.634Q273.873 135.666 278.486 132.811Q283.098 129.956 287.78 127.215Q292.461 124.475 297.209 121.85Q301.956 119.226 306.767 116.719Q311.578 114.212 316.448 111.824Q321.319 109.436 326.248 107.169Q331.176 104.902 336.158 102.757Q341.141 100.612 346.175 98.5899Q351.208 96.568 356.291 94.6706Q361.373 92.7733 366.5 91.0015Q371.627 89.2298 376.796 87.5849Q381.966 85.9399 387.174 84.4226Q392.382 82.9054 397.626 81.5168Q402.87 80.1282 408.146 78.8691Q413.423 77.61 418.729 76.4811Q424.035 75.3523 429.367 74.3543Q434.699 73.3564 440.054 72.49Q445.409 71.6236 450.784 70.8893Q456.159 70.155 461.55 69.5532Q466.941 68.9514 472.345 68.4824Q477.75 68.0135 483.164 67.6777Q487.187 67.4137 491.214 67.2224Q495.242 67.0312 499.272 66.9129Q503.302 66.7946 507.333 66.7492Q511.365 66.7038 515.396 66.7313Q519.428 66.7589 523.459 66.8593Q527.489 66.9598 531.517 67.1332Q535.545 67.3066 539.57 67.5528Q543.594 67.799 547.613 68.118Q551.632 68.437 555.645 68.8287Q559.658 69.2203 563.663 69.6845Q567.668 70.1486 571.664 70.6852Q575.659 71.2217 579.645 71.8305Q583.631 72.4393 587.605 73.12Q591.578 73.8008 595.539 74.5533Q599.5 75.3059 603.447 76.1299Q607.394 76.954 611.325 77.8494Q615.256 78.7447 619.17 79.711Q623.084 80.6773 626.981 81.7143Q630.877 82.7513 634.754 83.8585Q638.63 84.9658 642.486 86.1431Q646.343 87.3203 650.177 88.5671Q654.011 89.8139 657.822 91.1299Q661.633 92.4458 665.419 93.8305Q669.206 95.2152 672.967 96.6682Q676.728 98.1212 680.462 99.6419Q684.196 101.163 687.901 102.751Q691.607 104.339 695.284 105.994Q698.96 107.649 702.606 109.37Q706.252 111.091 709.867 112.878Q713.481 114.664 717.062 116.516Q720.643 118.368 724.191 120.284Q727.738 122.201 731.25 124.181C746.126 132.642 761.86 141.633 774.776 152.969C758.566 154.191 742.424 154.458 726.228 156.206Q701.994 158.868 678.08 163.616C670.962 165.097 663.974 167.076 656.885 168.655C668.421 182.953 677.508 198.294 682.486 216.121C684.046 221.711 685.005 227.379 686.314 233.02C696.752 238.808 702.219 249.5 705.354 260.576C707.81 269.255 708.547 278.03 708.53 287.014C707.698 301.54 704.291 313.046 697.995 326.083C693.561 332.922 686.145 340.581 677.907 342.485C676.176 342.884 674.365 342.968 672.6 343.123C667.876 343.965 663.549 343.091 658.888 342.356C648.31 354.919 636.61 365.804 622.02 373.618C622.037 382.901 621.787 390.091 614.786 397.082C602.5 409.351 579.445 418.695 562.583 423.19C556.169 424.899 547.555 425.288 542.111 429.247C536.315 433.463 529.322 444.878 524.946 450.967C510.995 470.385 497.442 489.861 484.64 510.054C481.962 506.247 480.056 501.942 478.115 497.727C475.867 505.31 470.809 525.747 463.98 529.444C462.766 530.101 462.019 530.1 460.732 529.616C452.603 526.562 439.875 497.298 436.785 488.427C435.142 483.712 433.813 478.952 432.64 474.102C426.954 482.742 421.749 491.645 416.353 500.463C411.886 507.763 407.182 514.974 403.102 522.498C398.789 510.156 396.491 492.298 393.874 479.013C392.942 474.279 392.27 468.581 390.41 464.132L387.51 465.878C386.342 466.703 385.181 467.505 383.956 468.246L379.815 469.633Q375.859 471.285 371.954 473.056C342.89 483.371 272.737 506.447 252.663 526.421C240.021 540.086 229.824 556.767 221.884 573.575C218.865 579.968 216.524 587.456 212.9 593.46C210.057 592.076 199.693 592.164 196.26 592.074C170.857 591.401 145.323 591.996 119.901 591.874C107.441 591.814 94.8838 590.46 82.4373 591.085C80.3324 591.191 77.7335 591.196 76.2675 592.825C73.7533 581.384 73.011 568.778 71.9118 557.079Q70.4832 542.762 69.9108 528.385Q69.3384 514.008 69.6242 499.622Q69.91 485.237 71.053 470.894Q72.1961 456.551 74.1922 442.302C76.1484 428.819 79.2568 415.529 81.6503 402.122Z"/>
	<path fill="#C62826" transform="scale(0.820312 0.820312)" d="M369.624 223.966C371.977 214.328 377.852 204.273 383.411 196.153C397.753 175.203 417.231 160.202 439.804 149.039C444.516 146.709 449.901 143.761 455.072 142.809C443.902 151.703 431.978 160.295 422.16 170.719C405.913 189.185 386.776 210.225 375.977 232.388C373.138 231.264 369.295 232.998 366.157 232.933C367.243 229.908 368.37 226.926 369.624 223.966Z"/>
	<path fill="#A71315" transform="scale(0.820312 0.820312)" d="M369.624 223.966C372.126 222.4 373.723 219.144 375.275 216.706C383.711 203.445 393.186 191.199 405.013 180.756C407.631 178.445 418.261 169.27 421.548 169.468L422.16 170.719C405.913 189.185 386.776 210.225 375.977 232.388C373.138 231.264 369.295 232.998 366.157 232.933C367.243 229.908 368.37 226.926 369.624 223.966Z"/>
	<path fill="#6FC1E6" transform="scale(0.820312 0.820312)" d="M145.055 326.024C178.362 320.484 211.949 316.706 245.346 311.768L309.635 302.194C321.227 300.466 332.867 298.423 344.514 297.135C344.73 304.039 345.174 311.007 350.627 316.007C352.43 317.66 355.037 319.482 357.356 320.329L359.081 321.634C347.241 343.084 337.792 364.035 333.871 388.44C340.367 379.268 347.932 372.173 356.772 365.284C347.916 389.752 339.615 416.031 346.817 442.061C351.702 430.201 357.227 417.31 365.795 407.654C362.883 428.337 362.878 453.73 371.954 473.056C342.89 483.371 272.737 506.447 252.663 526.421C240.021 540.086 229.824 556.767 221.884 573.575C218.865 579.968 216.524 587.456 212.9 593.46C210.057 592.076 199.693 592.164 196.26 592.074C170.857 591.401 145.323 591.996 119.901 591.874C107.441 591.814 94.8838 590.46 82.4373 591.085C80.3324 591.191 77.7335 591.196 76.2675 592.825C73.7533 581.384 73.011 568.778 71.9118 557.079Q70.4832 542.762 69.9108 528.385Q69.3384 514.008 69.6242 499.622Q69.91 485.237 71.053 470.894Q72.1961 456.551 74.1922 442.302C76.1484 428.819 79.2568 415.529 81.6503 402.122C98.5955 400.355 115.479 397.476 132.368 395.189L240.221 380.58C261.703 377.607 283.26 374.141 304.796 371.698Q242.514 352.965 179.881 335.445C168.335 332.153 156.507 329.561 145.055 326.024Z"/>
	<path fill="#FEFEFE" transform="scale(0.820312 0.820312)" d="M498.484 136.247C505.887 132.444 533.339 121.885 540.96 124.203C541.701 125.41 541.569 126.496 541.627 127.878C543.868 127.506 546.22 127.479 548.489 127.333C586.107 126.232 623.256 136.542 651.14 162.888Q654.08 165.704 656.885 168.655C668.421 182.953 677.508 198.294 682.486 216.121C684.046 221.711 685.005 227.379 686.314 233.02C696.752 238.808 702.219 249.5 705.354 260.576C707.81 269.255 708.547 278.03 708.53 287.014C707.698 301.54 704.291 313.046 697.995 326.083C693.561 332.922 686.145 340.581 677.907 342.485C676.176 342.884 674.365 342.968 672.6 343.123C667.876 343.965 663.549 343.091 658.888 342.356C648.31 354.919 636.61 365.804 622.02 373.618C622.037 382.901 621.787 390.091 614.786 397.082C602.5 409.351 579.445 418.695 562.583 423.19C556.169 424.899 547.555 425.288 542.111 429.247C536.315 433.463 529.322 444.878 524.946 450.967C510.995 470.385 497.442 489.861 484.64 510.054C481.962 506.247 480.056 501.942 478.115 497.727C475.867 505.31 470.809 525.747 463.98 529.444C462.766 530.101 462.019 530.1 460.732 529.616C452.603 526.562 439.875 497.298 436.785 488.427C435.142 483.712 433.813 478.952 432.64 474.102C426.954 482.742 421.749 491.645 416.353 500.463C411.886 507.763 407.182 514.974 403.102 522.498C398.789 510.156 396.491 492.298 393.874 479.013C392.942 474.279 392.27 468.581 390.41 464.132L387.51 465.878C386.342 466.703 385.181 467.505 383.956 468.246L379.815 469.633Q375.859 471.285 371.954 473.056C362.878 453.73 362.883 428.337 365.795 407.654C357.227 417.31 351.702 430.201 346.817 442.061C339.615 416.031 347.916 389.752 356.772 365.284C347.932 372.173 340.367 379.268 333.871 388.44C337.792 364.035 347.241 343.084 359.081 321.634L357.356 320.329C355.037 319.482 352.43 317.66 350.627 316.007C345.174 311.007 344.73 304.039 344.514 297.135C344.123 291.257 344.174 285.284 344.042 279.39C343.985 276.517 343.969 273.618 344.107 270.747C344.671 259.01 349.016 245.713 358.19 237.843C360.389 235.956 363.895 235.363 365.836 233.345C365.956 233.22 366.05 233.071 366.157 232.933C369.295 232.998 373.138 231.264 375.977 232.388C386.776 210.225 405.913 189.185 422.16 170.719C431.978 160.295 443.902 151.703 455.072 142.809C458.798 141.731 462.916 139.067 466.495 137.377C471.282 135.116 476.225 133.176 481.133 131.193C477.174 136.702 474.575 142.042 472.009 148.28C481.175 138.8 490.781 132.003 502.939 126.863C501.415 129.971 499.964 133.118 498.484 136.247Z"/>
	<path fill="#6FC1E6" transform="scale(0.820312 0.820312)" d="M386.468 458.311C386.431 460.919 386.041 463.611 387.51 465.878C386.342 466.703 385.181 467.505 383.956 468.246L379.815 469.633C381.691 465.666 384.066 461.972 386.468 458.311Z"/>
	<path fill="#9CB1B4" transform="scale(0.820312 0.820312)" d="M384.178 327.495C389.054 329.028 392.466 333.103 395.9 336.683L393.338 340.397C389.994 336.356 387.084 331.857 384.178 327.495Z"/>
	<path fill="#AF946E" transform="scale(0.820312 0.820312)" d="M380.871 318.759L381.876 319.199C385.411 325.241 392.484 329.64 397.194 334.905L395.9 336.683C392.466 333.103 389.054 329.028 384.178 327.495C383.427 326.683 382.675 325.861 382.064 324.936C380.636 322.774 380.414 321.274 380.871 318.759Z"/>
	<path fill="#A2D5EA" transform="scale(0.820312 0.820312)" d="M380.871 318.759C384.574 312.641 382.615 311.511 390.175 307.351C398.019 309.475 405.661 312.414 413.42 314.837L407.014 321.947C403.72 326.246 400.357 330.508 397.194 334.905C392.484 329.64 385.411 325.241 381.876 319.199L380.871 318.759Z"/>
	<path fill="#9CB1B4" transform="scale(0.820312 0.820312)" d="M381.876 319.199Q388.209 319.326 394.506 320.014Q400.803 320.702 407.014 321.947C403.72 326.246 400.357 330.508 397.194 334.905C392.484 329.64 385.411 325.241 381.876 319.199Z"/>
	<path fill="#EF9B03" transform="scale(0.820312 0.820312)" d="M418.775 273.015C417.289 271.949 415.464 270.941 414.724 269.217C415.222 268.323 414.947 268.373 415.847 268.158C419.035 267.396 423.104 269.266 425.631 271.099C430.328 274.506 432.894 279.869 433.597 285.535C434.13 289.833 433.887 295.091 432.418 299.202C427.277 301.664 423.289 306.243 418.759 309.634C417.408 310.645 415.835 311.251 414.55 312.331C408.961 310.736 404.442 308.699 400.824 303.874C397.191 299.03 396.108 292.905 396.938 286.988C397.969 279.632 401.555 274.883 407.225 270.458C405.496 274.752 404.51 278.057 404.627 282.741C403.747 286.576 403.126 290.167 404.111 294.074C405.138 298.146 407.711 301.803 411.44 303.816C414.444 305.438 418.056 305.883 421.321 304.819C424.228 303.872 426.482 301.766 427.844 299.051C430.108 294.538 430.491 287.173 428.766 282.417C427.011 277.58 423.281 275.007 418.775 273.015Z"/>
	<path fill="#100F0C" transform="scale(0.820312 0.820312)" d="M418.775 273.015C423.281 275.007 427.011 277.58 428.766 282.417C430.491 287.173 430.108 294.538 427.844 299.051C426.482 301.766 424.228 303.872 421.321 304.819C418.056 305.883 414.444 305.438 411.44 303.816C407.711 301.803 405.138 298.146 404.111 294.074C403.126 290.167 403.747 286.576 404.627 282.741C405.424 283.585 406.227 284.439 407.116 285.188C408.768 286.579 410.868 287.504 413.074 287.082C414.773 286.757 416.063 285.877 417.073 284.494C419.617 281.009 419.399 277.024 418.775 273.015Z"/>
	<path fill="#EF9B03" transform="scale(0.820312 0.820312)" d="M549.22 271.709C547.982 270.967 546.72 270.564 546.104 269.232C548.154 267.864 553.827 268.502 556.306 268.983C561.614 270.015 566.046 273.781 568.937 278.215Q569.318 278.794 569.669 279.392Q570.019 279.99 570.339 280.605Q570.659 281.22 570.947 281.851Q571.235 282.481 571.49 283.125Q571.745 283.77 571.968 284.427Q572.19 285.083 572.378 285.75Q572.566 286.417 572.72 287.093Q572.874 287.769 572.993 288.452Q573.113 289.135 573.197 289.823Q573.281 290.511 573.33 291.202Q573.379 291.894 573.392 292.587Q573.406 293.28 573.384 293.973Q573.362 294.666 573.305 295.357Q573.248 296.047 573.155 296.734Q573.063 297.421 572.935 298.103Q572.808 298.784 572.646 299.458C571.013 306.022 567.135 311.886 561.157 315.223Q560.689 315.483 560.207 315.719Q559.726 315.954 559.234 316.165Q558.741 316.375 558.238 316.56Q557.735 316.744 557.223 316.903Q556.711 317.061 556.192 317.193Q555.673 317.325 555.147 317.429Q554.622 317.534 554.092 317.612Q553.562 317.689 553.028 317.739Q552.495 317.789 551.96 317.811Q551.424 317.833 550.889 317.828Q550.353 317.823 549.818 317.79Q549.284 317.757 548.751 317.696Q548.219 317.635 547.69 317.547Q547.162 317.459 546.639 317.344Q546.116 317.229 545.599 317.087Q545.083 316.945 544.574 316.776Q544.018 316.591 543.472 316.379Q542.926 316.166 542.391 315.926Q541.857 315.687 541.335 315.42Q540.813 315.154 540.305 314.861Q539.797 314.569 539.305 314.251Q538.813 313.934 538.337 313.592Q537.861 313.25 537.403 312.884Q536.945 312.519 536.506 312.131Q536.068 311.742 535.649 311.333Q535.23 310.923 534.832 310.492Q534.435 310.062 534.059 309.612Q533.684 309.162 533.332 308.694Q532.979 308.226 532.651 307.74Q532.323 307.255 532.02 306.754Q531.717 306.252 531.439 305.736Q531.161 305.22 530.91 304.691C527.667 297.993 527.546 290.623 530.189 283.716C531.113 281.3 532.489 279.051 533.824 276.844C534.172 279.753 534.195 283.25 534.93 286.05C534.466 291.297 535.283 296.666 538.054 301.225C540.429 305.133 544.515 308.304 549.023 309.282C552.852 310.113 556.777 309.23 559.976 306.993C564.631 303.738 567.741 298.276 568.475 292.673C569.137 287.628 568.161 282.052 564.899 278.024C560.847 273.02 555.209 272.256 549.22 271.709Z"/>
	<path fill="#083F6D" transform="scale(0.820312 0.820312)" d="M378.553 279.075C379.026 276.976 378.945 274.591 379.136 272.437C379.781 265.175 380.866 258.081 384.628 251.704C387.071 247.561 390.62 244.312 395.42 243.287C401.305 242.029 406.938 244.409 411.753 247.634C416.818 251.026 430.817 262.874 431.953 268.794C421.718 264.401 409.29 254.425 397.656 258.76C391.77 260.953 387.858 266.214 385.448 271.807C382.343 279.016 382.383 286.343 382.422 294.039C380.969 289.425 378.691 283.9 378.553 279.075Z"/>
	<path fill="#100F0C" transform="scale(0.820312 0.820312)" d="M549.22 271.709C555.209 272.256 560.847 273.02 564.899 278.024C568.161 282.052 569.137 287.628 568.475 292.673C567.741 298.276 564.631 303.738 559.976 306.993C556.777 309.23 552.852 310.113 549.023 309.282C544.515 308.304 540.429 305.133 538.054 301.225C535.283 296.666 534.466 291.297 534.93 286.05C536.722 287.225 538.671 288.515 540.8 288.951C543.593 289.524 546.802 288.854 549.077 287.124Q549.425 286.862 549.745 286.566Q550.066 286.271 550.356 285.946Q550.645 285.62 550.902 285.268Q551.158 284.916 551.379 284.54Q551.599 284.164 551.782 283.768Q551.964 283.373 552.107 282.961Q552.25 282.549 552.351 282.125Q552.453 281.702 552.512 281.27C553.012 277.502 551.402 274.615 549.22 271.709Z"/>
	<path fill="#3F2119" transform="scale(0.820312 0.820312)" d="M624.49 286.194C626.24 286.11 626.856 286.407 628.157 287.583C634.213 293.057 641.245 300.218 649.974 300.494C650.238 300.825 650.624 301.089 650.767 301.488C651.36 303.144 651.161 306.555 651.392 308.408C652.247 315.265 653.587 322.305 656.285 328.693C656.337 328.817 656.384 328.944 656.434 329.069C653.568 332.482 651.081 336.574 647.776 339.525C643.779 337.906 639.85 335.721 636.703 332.75C624.9 321.608 624.737 301.313 624.49 286.194Z"/>
	<path fill="#6FC1E6" transform="scale(0.820312 0.820312)" d="M387.495 220.836C400.107 227.472 414.406 232.691 424.852 242.627C430.287 247.795 437.3 258.207 437.113 266.085C437.079 267.519 436.839 267.986 435.84 268.976C434.045 269.367 433.777 269.432 431.953 268.794C430.817 262.874 416.818 251.026 411.753 247.634C406.938 244.409 401.305 242.029 395.42 243.287C390.62 244.312 387.071 247.561 384.628 251.704C380.866 258.081 379.781 265.175 379.136 272.437C378.945 274.591 379.026 276.976 378.553 279.075C377.87 277.43 377.427 275.672 376.967 273.954C371.69 254.225 377.683 237.875 387.495 220.836Z"/>
	<path fill="#5D2816" transform="scale(0.820312 0.820312)" d="M366.157 232.933C369.295 232.998 373.138 231.264 375.977 232.388L374.223 237.372C370.583 253.852 367.495 270.893 365.654 287.674C364.817 295.308 365.906 303.204 364.193 310.736C363.289 314.707 361.441 318.337 359.081 321.634L357.356 320.329C355.037 319.482 352.43 317.66 350.627 316.007C345.174 311.007 344.73 304.039 344.514 297.135C344.123 291.257 344.174 285.284 344.042 279.39C343.985 276.517 343.969 273.618 344.107 270.747C344.671 259.01 349.016 245.713 358.19 237.843C360.389 235.956 363.895 235.363 365.836 233.345C365.956 233.22 366.05 233.071 366.157 232.933Z"/>
	<path fill="#803727" transform="scale(0.820312 0.820312)" d="M344.042 279.39C346.792 279.423 348.749 280.52 351.083 281.847C353.291 281.22 355.602 280.35 357.908 280.301Q358.848 300.332 357.356 320.329C355.037 319.482 352.43 317.66 350.627 316.007C345.174 311.007 344.73 304.039 344.514 297.135C344.123 291.257 344.174 285.284 344.042 279.39Z"/>
	<path fill="#C62826" transform="scale(0.820312 0.820312)" d="M366.157 232.933C369.295 232.998 373.138 231.264 375.977 232.388L374.223 237.372C369.075 239.324 365.184 249.532 362.921 254.529C359.064 263.045 358.967 271.203 357.908 280.301C355.602 280.35 353.291 281.22 351.083 281.847C348.749 280.52 346.792 279.423 344.042 279.39C343.985 276.517 343.969 273.618 344.107 270.747C344.671 259.01 349.016 245.713 358.19 237.843C360.389 235.956 363.895 235.363 365.836 233.345C365.956 233.22 366.05 233.071 366.157 232.933Z"/>
	<path fill="#D2CCBA" transform="scale(0.820312 0.820312)" d="M558.405 321.974C558.705 319.371 559.525 317.72 561.626 316.089C565.239 313.285 571.854 312.868 576.263 313.514C582.218 314.385 585.173 318.081 588.469 322.725C598.378 336.685 607.589 351.179 617.183 365.362C596.294 376.816 573.267 379.861 549.847 379.993C556.127 374.27 562.756 368.667 568.365 362.268C574.742 354.992 582.456 344.345 581.52 334.106C581.177 330.346 579.559 326.386 576.516 324.025C571.513 320.144 564.249 321.178 558.405 321.974Z"/>
	<path fill="#6FC1E6" transform="scale(0.820312 0.820312)" d="M506.583 278.44C503.931 276.138 503.245 274.087 502.948 270.616C502.195 261.826 506.26 253.981 511.923 247.57C524.462 233.375 553.117 221.026 571.796 220.117C575.904 219.917 579.543 220.596 582.694 223.382C591.322 231.006 594.935 246.085 595.327 257.116C596.022 276.667 589.09 292.309 576.815 307.109C577.768 303.88 578.506 299.933 580 296.952C580.226 291.571 579.482 285.918 577.749 280.811C574.982 272.655 569.408 266.061 561.595 262.344C550.256 256.951 535.63 259.039 525.405 265.979C518.92 270.38 514.123 275.692 506.583 278.44Z"/>
	<path fill="#083F6D" transform="scale(0.820312 0.820312)" d="M506.583 278.44C512.858 265.338 526.558 251.887 540.365 246.926C548.355 244.055 558.495 243.458 566.362 247.04C573.492 250.286 577.712 256.822 580.21 263.971C583.424 273.163 585.48 286.496 580.916 295.543C580.654 296.063 580.372 296.504 580 296.952C580.226 291.571 579.482 285.918 577.749 280.811C574.982 272.655 569.408 266.061 561.595 262.344C550.256 256.951 535.63 259.039 525.405 265.979C518.92 270.38 514.123 275.692 506.583 278.44Z"/>
	<path fill="#D2CCBA" transform="scale(0.820312 0.820312)" d="M585.486 148.698C602.673 153.783 613.471 160.891 627.742 171.169C619.392 170.44 611.163 169.862 602.776 170.091C618.764 174.988 636.607 181.993 644.832 197.52C649.027 205.439 652.296 213.972 655.455 222.35C649.119 222.81 644.743 225.046 640.517 229.914C628.234 244.065 625.362 267.531 624.26 285.68C621.189 270.381 620.372 254.641 617.141 239.331C610.717 208.888 598.849 188.327 572.544 171.203Q580.681 172.276 588.862 172.936C578.454 163.316 565.988 157.997 552.497 154.164C560.766 152.501 578.907 151.844 585.486 148.698Z"/>
	<path fill="#C62826" transform="scale(0.820312 0.820312)" d="M548.489 127.333C586.107 126.232 623.256 136.542 651.14 162.888Q654.08 165.704 656.885 168.655C668.421 182.953 677.508 198.294 682.486 216.121C684.046 221.711 685.005 227.379 686.314 233.02L683.557 231.61L671.532 227.348C666.24 225.514 660.804 224.019 655.455 222.35C652.296 213.972 649.027 205.439 644.832 197.52C636.607 181.993 618.764 174.988 602.776 170.091C611.163 169.862 619.392 170.44 627.742 171.169C613.471 160.891 602.673 153.783 585.486 148.698C572.903 144.291 554.531 138.5 541.374 139.741C539.068 139.959 536.872 140.855 534.718 141.658C537.356 137.211 539.798 132.723 541.627 127.878C543.868 127.506 546.22 127.479 548.489 127.333Z"/>
	<path fill="#A71315" transform="scale(0.820312 0.820312)" d="M541.627 127.878C543.868 127.506 546.22 127.479 548.489 127.333C548.731 127.5 548.967 127.675 549.215 127.833C552.483 129.917 571.797 133.192 577.696 135.018C623.988 149.346 657.8 180.192 671.532 227.348C666.24 225.514 660.804 224.019 655.455 222.35C652.296 213.972 649.027 205.439 644.832 197.52C636.607 181.993 618.764 174.988 602.776 170.091C611.163 169.862 619.392 170.44 627.742 171.169C613.471 160.891 602.673 153.783 585.486 148.698C572.903 144.291 554.531 138.5 541.374 139.741C539.068 139.959 536.872 140.855 534.718 141.658C537.356 137.211 539.798 132.723 541.627 127.878Z"/>
	<path fill="#A71315" transform="scale(0.820312 0.820312)" d="M624.26 285.68C625.362 267.531 628.234 244.065 640.517 229.914C644.743 225.046 649.119 222.81 655.455 222.35C660.804 224.019 666.24 225.514 671.532 227.348L683.557 231.61L686.314 233.02C696.752 238.808 702.219 249.5 705.354 260.576C707.81 269.255 708.547 278.03 708.53 287.014C707.698 301.54 704.291 313.046 697.995 326.083C693.561 332.922 686.145 340.581 677.907 342.485C676.176 342.884 674.365 342.968 672.6 343.123C667.876 343.965 663.549 343.091 658.888 342.356C660.798 339.769 661.859 335.978 663.454 333.066C661.075 331.793 658.756 330.441 656.434 329.069C656.384 328.944 656.337 328.817 656.285 328.693C653.587 322.305 652.247 315.265 651.392 308.408C651.161 306.555 651.36 303.144 650.767 301.488C650.624 301.089 650.238 300.825 649.974 300.494C641.245 300.218 634.213 293.057 628.157 287.583C626.856 286.407 626.24 286.11 624.49 286.194L624.26 285.68Z"/>
	<path fill="#803727" transform="scale(0.820312 0.820312)" d="M651.525 276.472C656.612 287.252 660.721 300.533 673.138 305.124C678.859 307.239 684.649 305.925 689.962 303.341C695.649 300.576 699.496 296.628 703.275 291.651C704.19 290.446 705.362 288.43 706.529 287.524C707.185 287.014 707.729 287.063 708.53 287.014C707.698 301.54 704.291 313.046 697.995 326.083C693.561 332.922 686.145 340.581 677.907 342.485C676.176 342.884 674.365 342.968 672.6 343.123C667.876 343.965 663.549 343.091 658.888 342.356C660.798 339.769 661.859 335.978 663.454 333.066C661.075 331.793 658.756 330.441 656.434 329.069C656.384 328.944 656.337 328.817 656.285 328.693C653.587 322.305 652.247 315.265 651.392 308.408C651.161 306.555 651.36 303.144 650.767 301.488C650.624 301.089 650.238 300.825 649.974 300.494C651.626 298.428 651.128 280.405 651.525 276.472Z"/>
	<path fill="#3F2119" transform="scale(0.820312 0.820312)" d="M663.454 333.066C667.081 335.291 671.195 339.032 672.6 343.123C667.876 343.965 663.549 343.091 658.888 342.356C660.798 339.769 661.859 335.978 663.454 333.066Z"/>
	<path fill="#5D2816" transform="scale(0.820312 0.820312)" d="M624.26 285.68C625.362 267.531 628.234 244.065 640.517 229.914C644.743 225.046 649.119 222.81 655.455 222.35C660.804 224.019 666.24 225.514 671.532 227.348L683.557 231.61L682.608 231.932C669.271 236.387 664.543 238.496 657.947 251.641C653.955 259.597 652.346 267.682 651.525 276.472C651.128 280.405 651.626 298.428 649.974 300.494C641.245 300.218 634.213 293.057 628.157 287.583C626.856 286.407 626.24 286.11 624.49 286.194L624.26 285.68Z"/>
	<path fill="#F1AE1C" transform="scale(0.820312 0.820312)" d="M432.418 299.202C438.473 296.86 443.697 292.304 449.692 289.641C459.045 285.487 467.588 285.471 477.118 289.182C497.731 296.929 503.583 327.214 527.545 327.276C538.136 327.303 548.053 323.509 558.405 321.974C564.249 321.178 571.513 320.144 576.516 324.025C579.559 326.386 581.177 330.346 581.52 334.106C582.456 344.345 574.742 354.992 568.365 362.268C562.756 368.667 556.127 374.27 549.847 379.993C573.267 379.861 596.294 376.816 617.183 365.362C628.791 358.83 639.669 350.16 647.776 339.525C651.081 336.574 653.568 332.482 656.434 329.069C658.756 330.441 661.075 331.793 663.454 333.066C661.859 335.978 660.798 339.769 658.888 342.356C648.31 354.919 636.61 365.804 622.02 373.618C622.037 382.901 621.787 390.091 614.786 397.082C602.5 409.351 579.445 418.695 562.583 423.19C556.169 424.899 547.555 425.288 542.111 429.247C536.315 433.463 529.322 444.878 524.946 450.967C510.995 470.385 497.442 489.861 484.64 510.054C481.962 506.247 480.056 501.942 478.115 497.727C475.867 505.31 470.809 525.747 463.98 529.444C462.766 530.101 462.019 530.1 460.732 529.616C452.603 526.562 439.875 497.298 436.785 488.427C435.142 483.712 433.813 478.952 432.64 474.102C426.954 482.742 421.749 491.645 416.353 500.463C411.886 507.763 407.182 514.974 403.102 522.498C398.789 510.156 396.491 492.298 393.874 479.013C392.942 474.279 392.27 468.581 390.41 464.132L392.36 462.431C389.698 458.685 387.426 454.937 385.725 450.655C382.156 445.513 379.87 434.269 378.276 428.062C370.45 397.572 377.561 367.049 393.338 340.397L395.9 336.683L397.194 334.905C400.357 330.508 403.72 326.246 407.014 321.947L413.42 314.837L414.823 313.181L414.55 312.331C415.835 311.251 417.408 310.645 418.759 309.634C423.289 306.243 427.277 301.664 432.418 299.202Z"/>
	<path fill="#854512" transform="scale(0.820312 0.820312)" d="M471.108 317.535C471.805 315.093 473.005 312.988 475.242 311.648C476.62 310.823 478.161 310.581 479.701 311.152C481.314 311.75 481.916 313.161 482.643 314.583C485.744 321.152 486.024 325.548 483.613 332.483C481.781 334.278 479.601 336.329 476.832 336.251C475.161 336.204 473.925 335.393 472.956 334.099C469.654 329.69 470.032 323.188 471.005 318.044C471.037 317.874 471.073 317.705 471.108 317.535Z"/>
	<path fill="#B77612" transform="scale(0.820312 0.820312)" d="M471.108 317.535C471.805 315.093 473.005 312.988 475.242 311.648C476.62 310.823 478.161 310.581 479.701 311.152C481.314 311.75 481.916 313.161 482.643 314.583C482.559 314.789 482.471 314.993 482.39 315.2C481.196 318.277 481.527 323.248 479.359 325.82C476.716 325.476 475.191 323.573 473.59 321.499C472.636 320.264 471.871 318.892 471.108 317.535Z"/>
	<path fill="#B77612" transform="scale(0.820312 0.820312)" d="M477.118 289.182C497.731 296.929 503.583 327.214 527.545 327.276C538.136 327.303 548.053 323.509 558.405 321.974C564.249 321.178 571.513 320.144 576.516 324.025C579.559 326.386 581.177 330.346 581.52 334.106C582.456 344.345 574.742 354.992 568.365 362.268C562.756 368.667 556.127 374.27 549.847 379.993C545.036 380.189 540.136 379.526 535.362 378.992C538.285 376.612 541.809 374.742 544.953 372.651C552.283 367.778 559.229 361.728 564.618 354.738C569.139 348.874 571.299 343.168 570.336 335.706C559.677 322.108 533.053 334.549 517.679 329.575C507.815 326.383 499.684 313.74 493.83 305.723C491.917 303.104 490.231 300.255 487.896 297.983C485.91 296.051 477.842 290.675 477.118 289.182Z"/>
	<path fill="#FDDA81" transform="scale(0.820312 0.820312)" d="M461.061 292.51L461.806 292.995C461.697 294.47 460.29 295.716 459.353 296.8C437.7 321.841 419.12 348.623 407.286 379.78C403.1 390.802 400.72 402.868 396.028 413.585C395.409 415 394.817 417.131 393.377 417.698C388.339 392.918 391.216 369.37 402.687 346.681C414.645 323.033 435.443 300.891 461.061 292.51Z"/>
	<path fill="#B77612" transform="scale(0.820312 0.820312)" d="M406.001 477.27C405.796 469.145 405.64 460.846 407.313 452.851C408.55 446.941 410.942 441.325 413.281 435.781C423.288 412.064 439.042 393.105 460.656 379.12C485.548 363.013 513.792 354.44 542.348 347.374C546.612 346.318 554.52 343.389 558.754 344.566C559.629 344.81 559.495 344.997 559.881 345.744C543.137 365.759 501.112 384.613 477.333 397.168C470.765 400.636 464.572 404.962 457.93 408.247Q455.118 410.217 452.264 412.125C467.957 406.664 483.186 400.723 498.315 393.827C506.664 390.022 514.722 385.479 523.199 381.985C528.186 387.059 533.759 386.911 540.317 388.373C515.86 405.436 487.319 429.973 456.167 431.561C447.223 432.017 438.94 430.236 430.154 429.124C421.657 433.948 416.467 444.078 413.924 453.216C412.61 457.937 411.821 462.942 411.775 467.848C411.733 472.318 414.381 479.15 412.614 483.11L411.721 483.496C403.394 480.079 398.955 468.27 392.36 462.431C389.698 458.685 387.426 454.937 385.725 450.655C386.06 450.866 402.175 473.517 406.001 477.27Z"/>
	<path fill="#854512" transform="scale(0.820312 0.820312)" d="M457.93 408.247C451.759 408.496 448.848 411.67 443.911 414.685C443.997 414.477 444.047 414.25 444.17 414.061C445.596 411.882 450.1 408.971 452.265 407.37C477.136 388.979 504.454 375.098 531.448 360.268C538.251 356.531 552.486 346.401 559.881 345.744C543.137 365.759 501.112 384.613 477.333 397.168C470.765 400.636 464.572 404.962 457.93 408.247Z"/>
	<path fill="#D2CCBA" transform="scale(0.820312 0.820312)" d="M656.434 329.069C658.756 330.441 661.075 331.793 663.454 333.066C661.859 335.978 660.798 339.769 658.888 342.356C648.31 354.919 636.61 365.804 622.02 373.618C622.037 382.901 621.787 390.091 614.786 397.082C602.5 409.351 579.445 418.695 562.583 423.19C556.169 424.899 547.555 425.288 542.111 429.247C536.315 433.463 529.322 444.878 524.946 450.967C510.995 470.385 497.442 489.861 484.64 510.054C481.962 506.247 480.056 501.942 478.115 497.727C475.867 505.31 470.809 525.747 463.98 529.444C462.766 530.101 462.019 530.1 460.732 529.616C452.603 526.562 439.875 497.298 436.785 488.427C435.142 483.712 433.813 478.952 432.64 474.102C426.954 482.742 421.749 491.645 416.353 500.463C411.886 507.763 407.182 514.974 403.102 522.498C398.789 510.156 396.491 492.298 393.874 479.013C392.942 474.279 392.27 468.581 390.41 464.132L392.36 462.431C398.955 468.27 403.394 480.079 411.721 483.496L412.614 483.11C414.381 479.15 411.733 472.318 411.775 467.848C411.821 462.942 412.61 457.937 413.924 453.216C416.467 444.078 421.657 433.948 430.154 429.124C438.94 430.236 447.223 432.017 456.167 431.561C487.319 429.973 515.86 405.436 540.317 388.373C533.759 386.911 528.186 387.059 523.199 381.985C523.933 380.271 524.852 378.528 526.6 377.681C529.271 376.385 532.8 378.07 535.362 378.992C540.136 379.526 545.036 380.189 549.847 379.993C573.267 379.861 596.294 376.816 617.183 365.362C628.791 358.83 639.669 350.16 647.776 339.525C651.081 336.574 653.568 332.482 656.434 329.069Z"/>
	<path fill="#083F6D" transform="scale(0.820312 0.820312)" d="M656.434 329.069C658.756 330.441 661.075 331.793 663.454 333.066C661.859 335.978 660.798 339.769 658.888 342.356C648.31 354.919 636.61 365.804 622.02 373.618C601.195 383.401 581.443 389.669 558.211 389.787C552.178 389.818 546.221 389.746 540.317 388.373C533.759 386.911 528.186 387.059 523.199 381.985C523.933 380.271 524.852 378.528 526.6 377.681C529.271 376.385 532.8 378.07 535.362 378.992C540.136 379.526 545.036 380.189 549.847 379.993C573.267 379.861 596.294 376.816 617.183 365.362C628.791 358.83 639.669 350.16 647.776 339.525C651.081 336.574 653.568 332.482 656.434 329.069Z"/>
</svg>
