<?xml version="1.0" encoding="utf-8" ?>
<svg xmlns="http://www.w3.org/2000/svg" xmlns:xlink="http://www.w3.org/1999/xlink" width="840" height="840">
	<path fill="#88BFDD" transform="scale(0.820312 0.820312)" d="M151.623 786.005Q148.306 781.464 145.101 776.844Q141.895 772.223 138.801 767.527Q135.707 762.831 132.728 758.062Q129.749 753.292 126.886 748.452Q124.022 743.613 121.277 738.705Q118.531 733.797 115.904 728.825Q113.278 723.852 110.772 718.818Q108.266 713.784 105.883 708.69Q103.5 703.597 101.24 698.447Q98.9798 693.298 96.8448 688.095Q94.7099 682.893 92.7011 677.641Q90.6924 672.388 88.8109 667.089Q86.9295 661.789 85.1765 656.446Q83.4235 651.103 81.7999 645.719Q80.1764 640.335 78.6833 634.913Q77.1901 629.491 75.8283 624.035Q74.4664 618.579 73.2366 613.092Q72.0068 607.605 70.9098 602.089Q69.8128 596.574 68.8492 591.033Q67.8856 585.493 67.056 579.931Q66.2264 574.369 65.5312 568.789Q64.8361 563.208 64.2758 557.613Q63.7156 552.017 63.2905 546.41Q62.8654 540.803 62.5758 535.187Q62.2861 529.571 62.1321 523.949Q61.9781 518.328 61.9598 512.704Q61.9415 507.081 62.0589 501.459Q62.1763 495.837 62.4293 490.219Q62.6824 484.601 63.0709 478.991Q63.4594 473.381 63.9833 467.782Q64.5071 462.183 65.1658 456.598Q65.8246 451.013 66.618 445.446Q67.3979 440.02 68.3113 434.615Q69.2248 429.21 70.2711 423.829Q71.3175 418.448 72.4962 413.094Q73.6748 407.741 74.9851 402.418Q76.2953 397.095 77.7364 391.806Q79.1775 386.517 80.7484 381.266Q82.3194 376.014 84.0193 370.802Q85.7193 365.591 87.5471 360.423Q89.375 355.255 91.3297 350.133Q93.2844 345.012 95.3647 339.94Q97.445 334.869 99.6497 329.85Q101.854 324.831 104.182 319.868Q106.51 314.905 108.959 310.001Q111.409 305.097 113.978 300.254Q116.547 295.412 119.235 290.635Q121.924 285.857 124.728 281.148Q127.533 276.438 130.454 271.799Q133.374 267.159 136.408 262.594Q139.441 258.028 142.586 253.538Q145.732 249.049 148.987 244.638Q152.242 240.227 155.604 235.898Q158.967 231.569 162.435 227.324Q165.904 223.079 169.476 218.921Q173.048 214.762 176.721 210.693Q180.394 206.624 184.167 202.647Q187.939 198.67 191.809 194.787Q195.678 190.904 199.642 187.118Q203.606 183.331 207.662 179.644Q211.718 175.956 215.864 172.37Q220.009 168.783 224.242 165.3Q228.475 161.817 232.792 158.439Q237.11 155.061 241.509 151.791Q245.352 148.921 249.254 146.133Q253.156 143.345 257.117 140.64Q261.077 137.935 265.094 135.315Q269.111 132.694 273.182 130.159Q277.253 127.625 281.377 125.176Q285.501 122.728 289.676 120.368Q293.851 118.007 298.075 115.735Q302.299 113.464 306.57 111.282Q310.841 109.1 315.157 107.009Q319.473 104.918 323.833 102.919Q328.192 100.92 332.593 99.0132Q336.993 97.1066 341.434 95.2935Q345.874 93.4805 350.351 91.7617Q354.828 90.043 359.341 88.4193Q363.854 86.7957 368.4 85.2678Q372.946 83.74 377.524 82.3086Q382.101 80.8773 386.708 79.543Q391.314 78.2088 395.948 76.9724Q400.582 75.7359 405.241 74.5977Q409.9 73.4595 414.582 72.4201Q419.264 71.3807 423.967 70.4406Q428.67 69.5004 433.392 68.66Q438.114 67.8195 442.852 67.0791Q447.59 66.3387 452.344 65.6987Q457.097 65.0587 461.862 64.5194Q466.628 63.9801 471.404 63.5417Q476.18 63.1032 480.964 62.7659Q485.748 62.4286 490.538 62.1926Q495.328 61.9566 500.122 61.8219Q504.916 61.6872 509.712 61.654Q514.508 61.6208 519.304 61.689Q524.099 61.7572 528.892 61.9268C544.412 62.5023 560.005 63.5294 575.37 65.8561Q580.927 66.7064 586.461 67.6933Q591.995 68.6802 597.504 69.8032Q603.012 70.9262 608.491 72.1845Q613.97 73.4429 619.416 74.8358Q624.862 76.2288 630.273 77.7555Q635.683 79.2822 641.054 80.9417Q646.425 82.6012 651.753 84.3926Q657.082 86.1839 662.365 88.106Q667.647 90.0281 672.881 92.0798Q678.115 94.1314 683.297 96.3114Q688.478 98.4914 693.605 100.798Q698.731 103.105 703.799 105.538Q708.867 107.971 713.874 110.527Q718.88 113.084 723.822 115.763Q728.764 118.442 733.638 121.243Q738.513 124.043 743.317 126.962Q748.121 129.882 752.852 132.919Q757.582 135.956 762.237 139.108Q766.891 142.261 771.466 145.527Q776.042 148.793 780.535 152.171Q785.029 155.549 789.437 159.037Q793.846 162.525 798.168 166.12Q802.489 169.715 806.721 173.416Q810.953 177.117 815.092 180.92Q819.231 184.724 823.276 188.629Q827.32 192.533 831.267 196.536Q835.214 200.539 839.061 204.638Q842.908 208.737 846.653 212.93Q850.397 217.123 854.038 221.406Q857.678 225.69 861.212 230.062Q864.746 234.434 868.171 238.892Q871.596 243.349 874.91 247.89Q878.195 252.358 881.369 256.905Q884.542 261.452 887.602 266.077Q890.662 270.701 893.607 275.4Q896.552 280.098 899.38 284.868Q902.208 289.638 904.917 294.477Q907.626 299.315 910.215 304.219Q912.804 309.123 915.27 314.09Q917.737 319.056 920.08 324.082Q922.423 329.108 924.642 334.19Q926.86 339.272 928.952 344.408Q931.043 349.544 933.008 354.729Q934.972 359.915 936.808 365.148Q938.643 370.38 940.349 375.657Q942.054 380.933 943.629 386.25Q945.203 391.567 946.646 396.921Q948.089 402.276 949.399 407.664Q950.709 413.052 951.885 418.472Q953.061 423.891 954.103 429.337Q955.145 434.784 956.052 440.254Q956.959 445.725 957.731 451.216Q958.502 456.707 959.138 462.216Q959.773 467.725 960.273 473.248Q960.772 478.77 961.134 484.304Q961.497 489.837 961.723 495.378Q961.948 500.918 962.037 506.463Q962.125 512.008 962.077 517.553Q962.028 523.098 961.843 528.64Q961.657 534.182 961.335 539.718Q961.012 545.254 960.553 550.78Q960.094 556.306 959.498 561.819Q958.902 567.333 958.17 572.829Q957.438 578.326 956.571 583.803C945.203 658.338 914.703 735.627 866.116 793.892C851.429 813.771 834.332 831.261 816.077 847.878C807.676 855.525 799.053 863.244 789.762 869.806C775.782 879.973 761.768 890.196 746.987 899.179Q741.299 902.601 735.513 905.855Q729.727 909.11 723.848 912.194Q717.969 915.278 712.003 918.189Q706.037 921.1 699.989 923.835Q693.94 926.57 687.814 929.128Q681.688 931.686 675.49 934.063Q669.292 936.44 663.027 938.636Q656.762 940.831 650.436 942.843Q644.109 944.854 637.727 946.68Q631.345 948.506 624.912 950.144Q618.479 951.783 612.001 953.233Q605.522 954.682 599.005 955.943Q592.487 957.203 585.935 958.272Q579.384 959.341 572.803 960.218Q566.223 961.095 559.62 961.78Q553.017 962.464 546.397 962.956C535.212 963.765 523.926 963.598 512.716 963.71C497.439 964.332 481.441 963.001 466.232 961.665Q460.576 961.159 454.935 960.512Q449.294 959.865 443.671 959.077Q438.048 958.289 432.446 957.36Q426.845 956.431 421.268 955.363Q415.691 954.294 410.143 953.087Q404.595 951.879 399.079 950.533Q393.562 949.187 388.081 947.703Q382.601 946.219 377.159 944.599Q371.717 942.978 366.317 941.222Q360.917 939.466 355.563 937.575Q350.209 935.684 344.904 933.66Q339.599 931.636 334.346 929.48Q329.093 927.324 323.896 925.037Q318.699 922.75 313.561 920.333Q308.422 917.917 303.346 915.373Q298.27 912.828 293.259 910.158C276.865 901.241 261.636 891.249 246.234 880.769C232.827 871.141 220.278 859.533 207.69 848.852C187.619 830.079 167.085 808.757 151.623 786.005Z"/>
	<path fill="#2195CB" transform="scale(0.820312 0.820312)" d="M304.418 529.654C310.953 526.461 314.466 519.206 321.068 516.275C322.541 516.335 322.418 516.339 323.426 517.43L322.738 520.044C316.088 526.61 309.351 532.662 301.641 537.992Q303.094 533.844 304.418 529.654Z"/>
	<path fill="#2195CB" transform="scale(0.820312 0.820312)" d="M659.595 218.464C660.624 228.35 660.035 238.941 659.83 248.873C676.551 249.218 693.363 248.46 710.06 249.059C703.981 252.572 698.452 256.997 692.263 260.336C676.363 268.911 659.501 275.67 643.636 284.222C641.776 282.212 639.859 280.277 637.914 278.349C636.188 276.375 634.238 274.609 632.339 272.803C635.196 270.94 637.589 268.042 639.916 265.571C646.023 259.084 651.641 252.875 659.488 248.458C659.626 238.462 659.362 228.462 659.595 218.464Z"/>
	<path fill="#105080" transform="scale(0.820312 0.820312)" d="M819.614 539.452C820.437 544.409 820.057 549.857 820.064 554.877C820.082 569.211 818.897 585.867 820.205 599.916C812.995 596.366 806.077 592.08 798.985 588.279L754.376 564.71C759.449 560.231 783.489 553.766 791.254 551.047C800.631 547.764 810.875 544.141 819.614 539.452Z"/>
	<path fill="#105080" transform="scale(0.820312 0.820312)" d="M606.459 206.504C619.06 206.437 631.654 206.171 644.255 206.303C649.115 206.354 654.177 206.156 659.012 206.616L659.28 207.326L659.595 218.464C659.362 228.462 659.626 238.462 659.488 248.458C651.641 252.875 646.023 259.084 639.916 265.571C637.589 268.042 635.196 270.94 632.339 272.803L627.862 268.504C617.526 258.709 605.903 251.129 593.695 243.914Q601.021 225.531 606.459 206.504Z"/>
	<path fill="#126AA1" transform="scale(0.820312 0.820312)" d="M627.862 268.504C631.67 265.664 656.682 222.211 658.768 216.273C659.6 213.907 658.776 210.43 659.196 207.811C659.222 207.649 659.252 207.488 659.28 207.326L659.595 218.464C659.362 228.462 659.626 238.462 659.488 248.458C651.641 252.875 646.023 259.084 639.916 265.571C637.589 268.042 635.196 270.94 632.339 272.803L627.862 268.504Z"/>
	<path fill="#126AA1" transform="scale(0.820312 0.820312)" d="M710.06 249.059L745.517 248.994L745.498 278.655C721.522 285.989 682.083 298.775 662.712 314.014Q654.171 298.48 643.636 284.222C659.501 275.67 676.363 268.911 692.263 260.336C698.452 256.997 703.981 252.572 710.06 249.059Z"/>
	<path fill="#2195CB" transform="scale(0.820312 0.820312)" d="M470.611 158.809C471.625 159.896 472.277 160.707 472.591 162.185C474.611 171.685 473.258 182.545 473.203 192.228C473.163 199.164 473.571 206.053 473.328 212.996C473.199 216.68 473.036 220.377 473.063 224.064C465.555 225.626 458.298 227.773 451.017 230.163Q443.558 232.545 436.32 235.534Q429.083 238.524 422.118 242.102C421.211 230.836 417.01 217.092 419.795 206.068C422.097 195.801 420.787 170.652 420.138 159.256L444.104 159.157C452.538 159.552 462.329 160.761 470.611 158.809Z"/>
	<path fill="#3E7EB3" transform="scale(0.820312 0.820312)" d="M470.611 158.809C471.625 159.896 472.277 160.707 472.591 162.185C474.611 171.685 473.258 182.545 473.203 192.228C473.163 199.164 473.571 206.053 473.328 212.996C473.199 216.68 473.036 220.377 473.063 224.064C465.555 225.626 458.298 227.773 451.017 230.163C448.708 222.5 448.467 214.095 447.619 206.161C445.949 190.528 444.122 174.903 444.104 159.157C452.538 159.552 462.329 160.761 470.611 158.809Z"/>
	<path fill="#105080" transform="scale(0.820312 0.820312)" d="M577.275 159.429C585.691 158.492 594.539 158.97 603.004 158.989C602.989 164.179 602.428 204.206 603.67 205.269C604.489 205.97 605.451 206.197 606.459 206.504Q601.021 225.531 593.695 243.914C586.326 240.609 579.136 236.799 571.848 233.304C564.834 229.959 556.512 228.084 549.049 225.87C548.758 216.375 549.011 206.792 549.012 197.288C549.012 187.103 548.047 171.585 550.395 162.062C552.597 159.423 554.021 160.647 556.876 159.912C557.05 159.868 557.216 159.799 557.386 159.742C564.013 159.22 570.648 159.704 577.275 159.429Z"/>
	<path fill="#3E7EB3" transform="scale(0.820312 0.820312)" d="M577.275 159.429C585.691 158.492 594.539 158.97 603.004 158.989C602.989 164.179 602.428 204.206 603.67 205.269C604.489 205.97 605.451 206.197 606.459 206.504Q601.021 225.531 593.695 243.914C586.326 240.609 579.136 236.799 571.848 233.304C572.977 231.337 573.51 228.962 573.969 226.751C575.449 219.62 575.958 212.278 577.135 205.089C579.624 189.882 582.567 174.825 584.64 159.542C582.184 159.584 579.73 159.495 577.275 159.429Z"/>
	<path fill="#2195CB" transform="scale(0.820312 0.820312)" d="M369.372 206.007C386.306 205.395 402.876 205.39 419.795 206.068C417.01 217.092 421.211 230.836 422.118 242.102C413.844 246.568 406.191 251.461 398.496 256.861C381.134 270.374 367.688 285.646 355.535 303.903C348.046 298.72 293.478 286.611 279.961 282.177C280.147 271.958 279.989 261.703 279.988 251.481L361.514 251.792L361.478 206.003L369.372 206.007Z"/>
	<path fill="#3E7EB3" transform="scale(0.820312 0.820312)" d="M369.372 206.007C386.306 205.395 402.876 205.39 419.795 206.068C417.01 217.092 421.211 230.836 422.118 242.102C413.844 246.568 406.191 251.461 398.496 256.861C391.826 252.191 372.677 214.779 369.372 206.007Z"/>
	<path fill="#2195CB" transform="scale(0.820312 0.820312)" d="M511.996 89.0186C517.408 93.9788 542.836 138.695 548.803 148.742C550.291 151.248 553.026 157.467 555.295 159.201C555.851 159.627 556.744 159.684 557.386 159.742C557.216 159.799 557.05 159.868 556.876 159.912C554.021 160.647 552.597 159.423 550.395 162.062C548.047 171.585 549.012 187.103 549.012 197.288C549.011 206.792 548.758 216.375 549.049 225.87C537.252 223.377 525.811 221.893 513.772 221.411C500.355 221.4 486.216 221.027 473.063 224.064C473.036 220.377 473.199 216.68 473.328 212.996C473.571 206.053 473.163 199.164 473.203 192.228C473.258 182.545 474.611 171.685 472.591 162.185C472.277 160.707 471.625 159.896 470.611 158.809C478.419 144.711 486.765 130.987 494.886 117.074C500.361 107.693 505.387 97.6471 511.996 89.0186Z"/>
	<path fill="#126AA1" transform="scale(0.820312 0.820312)" d="M511.996 89.0186C517.408 93.9788 542.836 138.695 548.803 148.742C550.291 151.248 553.026 157.467 555.295 159.201C555.851 159.627 556.744 159.684 557.386 159.742C557.216 159.799 557.05 159.868 556.876 159.912C554.021 160.647 552.597 159.423 550.395 162.062C548.047 171.585 549.012 187.103 549.012 197.288C549.011 206.792 548.758 216.375 549.049 225.87C537.252 223.377 525.811 221.893 513.772 221.411L512.594 220.484C511.247 217.397 511.733 101.279 511.996 89.0186Z"/>
	<path fill="#D69A35" transform="scale(0.820312 0.820312)" d="M811.107 322.201C816.437 321.682 821.513 322.608 826.822 322.801C843.078 327.413 856.936 335.658 865.351 350.792C875.525 369.09 874.267 391.267 873.863 411.516L860.425 411.483C856.214 411.445 852.033 411.397 847.831 411.715L847.69 411.973C824.546 412.018 797.485 417.094 775.042 412.389C772.379 412.147 769.702 412.102 767.031 412.013L761.491 411.971C761.412 403.473 761.026 394.972 760.966 386.463C760.842 373.8 762.306 361.651 767.092 349.893C768.497 347.426 769.965 345.04 771.662 342.76C781.143 330.017 795.901 324.491 811.107 322.201Z"/>
	<path fill="#FEFEFE" transform="scale(0.820312 0.820312)" d="M807.517 334.42C803.38 335.456 796.908 337.413 792.817 335.439C792.023 335.056 792.169 334.784 791.957 334.013C792.336 332.847 792.989 332.041 793.836 331.177C796.259 328.704 800.083 327.366 803.518 327.436C806.194 327.491 807.58 328.758 809.386 330.581L807.517 334.42Z"/>
	<path fill="#FEFEFE" transform="scale(0.820312 0.820312)" d="M766.995 364.205C769.015 354.951 773.857 343.703 782.086 338.282C783.792 337.159 786.503 335.613 788.641 335.789C789.925 335.895 790.144 336.359 790.834 337.301C791.397 342.439 779.019 355.64 776.89 362.483L775.648 366.449C772.376 366.342 769.857 365.84 766.995 364.205Z"/>
	<path fill="#F3C039" transform="scale(0.820312 0.820312)" d="M766.995 364.205C769.857 365.84 772.376 366.342 775.648 366.449C774.844 381.731 775.415 396.89 775.072 412.156L775.042 412.389C772.379 412.147 769.702 412.102 767.031 412.013L766.995 364.205Z"/>
	<path fill="#49ABD8" transform="scale(0.820312 0.820312)" d="M786.706 398.487L786.681 395.503C786.592 381.933 786.137 365.62 796.663 355.352C803.251 348.926 811.914 347.843 820.638 348.094C813.374 359.437 806.279 370.88 798.919 382.163C795.417 387.53 791.954 393.848 787.447 398.399L786.706 398.487Z"/>
	<path fill="#9C5D2D" transform="scale(0.820312 0.820312)" d="M811.107 322.201C816.437 321.682 821.513 322.608 826.822 322.801C843.078 327.413 856.936 335.658 865.351 350.792C875.525 369.09 874.267 391.267 873.863 411.516L860.425 411.483Q860.868 405.959 860.992 400.419C861.534 381.792 859.92 361.782 846.356 347.622C836.043 336.855 821.818 334.638 807.517 334.42L809.386 330.581C809.491 330.418 809.611 330.263 809.7 330.091C810.788 327.973 812.015 324.518 811.107 322.201Z"/>
	<path fill="#88BFDD" transform="scale(0.820312 0.820312)" d="M820.638 348.094C828.891 349.548 835.816 352.687 840.747 359.838C851.233 375.041 845.708 394.696 847.831 411.715L847.69 411.973C824.546 412.018 797.485 417.094 775.042 412.389L775.072 412.156L786.491 412.083C786.477 407.554 786.623 403.016 786.706 398.487L787.447 398.399C791.954 393.848 795.417 387.53 798.919 382.163C806.279 370.88 813.374 359.437 820.638 348.094Z"/>
	<path fill="#105080" transform="scale(0.820312 0.820312)" d="M842.893 253.162Q850.456 246.999 858.86 242.045C856.927 249.285 854.793 256.492 852.972 263.759C850.522 273.53 848.593 282.994 844.794 292.393C839.903 303.374 832.443 312.365 826.822 322.801C821.513 322.608 816.437 321.682 811.107 322.201C795.901 324.491 781.143 330.017 771.662 342.76C769.965 345.04 768.497 347.426 767.092 349.893C762.306 361.651 760.842 373.8 760.966 386.463C756.835 390.003 753.535 394.602 750.096 398.802C739.44 399.322 729.102 398.418 718.492 398.027C712.531 397.807 706.563 398.03 700.601 397.743C694.738 397.46 688.918 396.787 683.04 396.897C683.13 387.875 681.96 378.025 680.305 369.164C678.965 361.142 676.987 353.145 675.309 345.18C671.826 334.424 667.477 324.257 662.712 314.014C682.083 298.775 721.522 285.989 745.498 278.655C752.157 276.038 761.687 275.823 768.832 275.101C779.594 274.012 790.892 273.541 801.491 271.392C816.484 268.352 829.746 260.617 842.893 253.162Z"/>
	<path fill="#126AA1" transform="scale(0.820312 0.820312)" d="M842.893 253.162Q850.456 246.999 858.86 242.045C856.927 249.285 854.793 256.492 852.972 263.759C850.522 273.53 848.593 282.994 844.794 292.393C831.872 298.435 813.169 303.418 799.267 308.282C786.451 312.766 773.552 318.913 760.379 322.104C764.947 315.926 776.637 309.091 783.076 304.445C797.915 293.738 812.709 283.107 826.638 271.216C831.026 267.469 835.718 263.79 839.584 259.503C841.328 257.57 843.025 255.901 842.893 253.162Z"/>
	<path fill="#2195CB" transform="scale(0.820312 0.820312)" d="M760.379 322.104C773.552 318.913 786.451 312.766 799.267 308.282C813.169 303.418 831.872 298.435 844.794 292.393C839.903 303.374 832.443 312.365 826.822 322.801C821.513 322.608 816.437 321.682 811.107 322.201C795.901 324.491 781.143 330.017 771.662 342.76C769.965 345.04 768.497 347.426 767.092 349.893C762.306 361.651 760.842 373.8 760.966 386.463C756.835 390.003 753.535 394.602 750.096 398.802C739.44 399.322 729.102 398.418 718.492 398.027C712.531 397.807 706.563 398.03 700.601 397.743C694.738 397.46 688.918 396.787 683.04 396.897C683.13 387.875 681.96 378.025 680.305 369.164C678.965 361.142 676.987 353.145 675.309 345.18C688.569 343.156 701.745 338.286 714.72 334.865C729.622 330.936 746.273 328.34 760.379 322.104Z"/>
	<path fill="#126AA1" transform="scale(0.820312 0.820312)" d="M680.305 369.164C692.132 364.423 755.142 350.17 767.092 349.893C762.306 361.651 760.842 373.8 760.966 386.463C756.835 390.003 753.535 394.602 750.096 398.802C739.44 399.322 729.102 398.418 718.492 398.027C712.531 397.807 706.563 398.03 700.601 397.743C694.738 397.46 688.918 396.787 683.04 396.897C683.13 387.875 681.96 378.025 680.305 369.164Z"/>
	<path fill="#3E7EB3" transform="scale(0.820312 0.820312)" d="M122.971 414.219C132.542 407.63 144.485 409.403 155.472 410.008L170.862 410.011C174.771 410.013 178.605 410.175 182.499 410.517C191.224 410.531 199.973 410.644 208.693 410.388C219.362 410.075 230.999 408.948 241.573 410.651L241.584 410.977C232.982 412.994 210.254 432.403 204.068 439.374C206.604 439.367 210.572 438.898 212.901 439.691C218.246 440.58 227.21 442.353 231.195 446.435C230.86 451.86 232.092 462.707 230.627 467.279C227.045 466.819 223.586 466.546 219.974 466.537C220.014 466.793 220.048 467.051 220.094 467.306C220.959 472.116 226.614 477.438 223.692 482.192C222.046 484.87 219.273 486.7 217.122 488.923C215.569 490.528 214.27 492.511 212.972 494.329L213.108 495.069C212.047 502.061 211.678 509.325 211.351 516.39C212.595 523.006 211.36 530.631 211.127 537.353C210.877 544.55 210.912 551.777 210.912 558.978C210.912 570.946 212.062 582.873 212.038 594.795C200.076 592.543 159.149 571.106 147.552 564.179C143.497 561.756 139.687 559.107 135.971 556.196C129.371 552.076 123.964 542.734 121.982 535.383C118.669 523.098 120.384 504.72 120.482 491.828C120.561 481.44 120.323 471.046 120.281 460.658C120.232 448.13 119.037 434.866 120.172 422.437C120.456 419.323 121.442 416.915 122.971 414.219Z"/>
	<path fill="#FEFEFE" transform="scale(0.820312 0.820312)" d="M207.489 516.552C200.214 514.938 193.744 512.269 188.09 507.307C180.118 500.31 175.359 491.109 174.716 480.476C174.097 470.237 177.473 459.437 184.348 451.743C189.266 446.239 197.602 441.145 204.963 440.056C207.537 439.676 210.291 439.818 212.901 439.691C218.246 440.58 227.21 442.353 231.195 446.435C230.86 451.86 232.092 462.707 230.627 467.279C227.045 466.819 223.586 466.546 219.974 466.537C220.014 466.793 220.048 467.051 220.094 467.306C220.959 472.116 226.614 477.438 223.692 482.192C222.046 484.87 219.273 486.7 217.122 488.923C215.569 490.528 214.27 492.511 212.972 494.329L213.108 495.069C212.047 502.061 211.678 509.325 211.351 516.39L207.489 516.552Z"/>
	<path fill="#D02E28" transform="scale(0.820312 0.820312)" d="M201.236 465.877C202.243 463.028 203.163 459.758 204.579 457.093C205.655 455.071 207.722 451.645 210.141 451.129C213.637 450.384 215.872 463.912 219.354 466.171C219.555 466.302 219.768 466.415 219.974 466.537C220.014 466.793 220.048 467.051 220.094 467.306C220.959 472.116 226.614 477.438 223.692 482.192C222.046 484.87 219.273 486.7 217.122 488.923C215.569 490.528 214.27 492.511 212.972 494.329C207.276 494.427 203.103 500.782 197.524 501.886C196.221 501.563 195.854 501.589 195.143 500.341C192.672 496.006 195.758 487.224 196.998 482.637C193.88 480.289 188.332 476.601 187.651 472.543C187.438 471.276 187.553 470.188 188.414 469.174C191.123 465.985 197.469 466.193 201.236 465.877Z"/>
	<path fill="#105080" transform="scale(0.820312 0.820312)" d="M211.351 516.39C212.595 523.006 211.36 530.631 211.127 537.353C210.877 544.55 210.912 551.777 210.912 558.978C210.912 570.946 212.062 582.873 212.038 594.795C200.076 592.543 159.149 571.106 147.552 564.179C143.497 561.756 139.687 559.107 135.971 556.196C140.496 551.741 153.202 545.467 159.246 542.182L207.489 516.552L211.351 516.39Z"/>
	<path fill="#26426A" transform="scale(0.820312 0.820312)" d="M277.988 399.142C283.941 399.875 290.049 400.081 295.878 401.542C304.531 403.713 316.237 410.001 324.963 409.672C324.665 419.184 324.749 428.618 325.003 438.128Q325.755 451.025 326.052 463.94L326.021 482.624Q325.648 500.096 323.426 517.43C322.418 516.339 322.541 516.335 321.068 516.275C314.466 519.206 310.953 526.461 304.418 529.654Q303.094 533.844 301.641 537.992C299.072 542.368 296.279 546.418 292.578 549.925C278.193 563.556 241.605 579.734 222.887 589.277C219.317 591.097 215.478 592.755 212.038 594.795C212.062 582.873 210.912 570.946 210.912 558.978C210.912 551.777 210.877 544.55 211.127 537.353C211.36 530.631 212.595 523.006 211.351 516.39C211.678 509.325 212.047 502.061 213.108 495.069L212.972 494.329C214.27 492.511 215.569 490.528 217.122 488.923C219.273 486.7 222.046 484.87 223.692 482.192C226.614 477.438 220.959 472.116 220.094 467.306C220.048 467.051 220.014 466.793 219.974 466.537C223.586 466.546 227.045 466.819 230.627 467.279C232.092 462.707 230.86 451.86 231.195 446.435C227.21 442.353 218.246 440.58 212.901 439.691C210.572 438.898 206.604 439.367 204.068 439.374C210.254 432.403 232.982 412.994 241.584 410.977Q246.815 410.971 251.999 410.267L257.237 409.923L277.994 410.051L277.988 399.142Z"/>
	<path fill="#2195CB" transform="scale(0.820312 0.820312)" d="M304.463 462.826C311.5 464.288 318.894 464.114 326.052 463.94L326.021 482.624C318.275 485.755 310.478 490.487 304.723 496.591C303.417 485.61 304.455 473.902 304.463 462.826Z"/>
	<path fill="#126AA1" transform="scale(0.820312 0.820312)" d="M304.463 435.38C311.324 436.192 318.124 437.474 325.003 438.128Q325.755 451.025 326.052 463.94C318.894 464.114 311.5 464.288 304.463 462.826L304.463 435.38Z"/>
	<path fill="#49ABD8" transform="scale(0.820312 0.820312)" d="M326.021 482.624Q325.648 500.096 323.426 517.43C322.418 516.339 322.541 516.335 321.068 516.275C314.466 519.206 310.953 526.461 304.418 529.654C304.969 518.591 305.085 507.665 304.723 496.591C310.478 490.487 318.275 485.755 326.021 482.624Z"/>
	<path fill="#49ABD8" transform="scale(0.820312 0.820312)" d="M277.988 399.142C283.941 399.875 290.049 400.081 295.878 401.542C304.531 403.713 316.237 410.001 324.963 409.672C324.665 419.184 324.749 428.618 325.003 438.128C318.124 437.474 311.324 436.192 304.463 435.38C304.572 432.662 304.687 429.935 304.611 427.215C304.475 422.355 303.471 417.181 299.656 413.81C294.021 408.831 284.943 409.647 277.994 410.051L277.988 399.142Z"/>
	<path fill="#B3CFD4" transform="scale(0.820312 0.820312)" d="M231.195 446.435C239.843 453.163 245.706 462.239 247.059 473.255C248.332 483.631 244.9 494.024 238.398 502.113C230.976 511.347 222.483 513.954 211.351 516.39C211.678 509.325 212.047 502.061 213.108 495.069L212.972 494.329C214.27 492.511 215.569 490.528 217.122 488.923C219.273 486.7 222.046 484.87 223.692 482.192C226.614 477.438 220.959 472.116 220.094 467.306C220.048 467.051 220.014 466.793 219.974 466.537C223.586 466.546 227.045 466.819 230.627 467.279C232.092 462.707 230.86 451.86 231.195 446.435Z"/>
	<path fill="#B01B19" transform="scale(0.820312 0.820312)" d="M219.974 466.537C223.586 466.546 227.045 466.819 230.627 467.279C232.185 467.847 233.006 468.248 234.093 469.516C234.573 470.804 234.593 471.729 234.048 472.993C232.425 476.754 228.095 480.057 225.112 482.745C226.44 486.559 229.702 493.925 227.681 497.882C227.07 499.078 226.359 499.777 225.049 500.119C221.078 501.156 216.166 497.191 213.108 495.069L212.972 494.329C214.27 492.511 215.569 490.528 217.122 488.923C219.273 486.7 222.046 484.87 223.692 482.192C226.614 477.438 220.959 472.116 220.094 467.306C220.048 467.051 220.014 466.793 219.974 466.537Z"/>
	<path fill="#3E7EB3" transform="scale(0.820312 0.820312)" d="M161.945 243.782C173.382 249.137 184.151 255.664 196.138 259.847C206.172 263.348 216.621 265.612 226.941 268.09C244.707 272.355 262.604 276.413 279.961 282.177C293.478 286.611 348.046 298.72 355.535 303.903C348.724 316.021 341.425 328.432 337.927 342C330.698 363.332 324.859 387.012 324.963 409.672C316.237 410.001 304.531 403.713 295.878 401.542C290.049 400.081 283.941 399.875 277.988 399.142L277.994 410.051L257.237 409.923L251.999 410.267Q246.815 410.971 241.584 410.977L241.573 410.651C230.999 408.948 219.362 410.075 208.693 410.388C199.973 410.644 191.224 410.531 182.499 410.517C178.605 410.175 174.771 410.013 170.862 410.011L155.472 410.008C155.681 393.108 153.358 375.478 159.233 359.232C165.628 341.548 178.645 332.534 194.95 324.866Q186.317 309.329 180.133 292.665C179.272 287.439 175.856 281.53 173.841 276.603C169.537 266.075 164.901 254.751 161.945 243.782Z"/>
	<path fill="#2195CB" transform="scale(0.820312 0.820312)" d="M180.133 292.665C193.68 295.941 207.138 301.019 220.451 305.218L300.986 330.663C312.367 334.236 326.57 339.61 337.927 342C330.698 363.332 324.859 387.012 324.963 409.672C316.237 410.001 304.531 403.713 295.878 401.542C290.049 400.081 283.941 399.875 277.988 399.142C278.033 385.763 277.701 372.47 272.853 359.805C267.13 344.856 254.679 332.287 240.074 325.865Q238.76 325.289 237.42 324.778Q236.08 324.267 234.716 323.822Q233.352 323.376 231.968 322.999Q230.584 322.621 229.184 322.311Q227.783 322.001 226.369 321.76Q224.955 321.52 223.53 321.348Q222.106 321.177 220.675 321.075Q219.244 320.973 217.81 320.942Q216.376 320.91 214.942 320.949Q213.508 320.987 212.077 321.096Q210.647 321.205 209.224 321.383Q207.8 321.562 206.387 321.81Q204.974 322.057 203.575 322.374Q202.176 322.691 200.794 323.075Q199.412 323.46 198.05 323.912Q196.689 324.363 195.351 324.881L194.95 324.866Q186.317 309.329 180.133 292.665Z"/>
	<path fill="#D69A35" transform="scale(0.820312 0.820312)" d="M195.351 324.881Q196.689 324.363 198.05 323.912Q199.412 323.46 200.794 323.075Q202.176 322.691 203.575 322.374Q204.974 322.057 206.387 321.81Q207.8 321.562 209.224 321.383Q210.647 321.205 212.077 321.096Q213.508 320.987 214.942 320.949Q216.376 320.91 217.81 320.942Q219.244 320.973 220.675 321.075Q222.106 321.177 223.53 321.348Q224.955 321.52 226.369 321.76Q227.783 322.001 229.184 322.311Q230.584 322.621 231.968 322.999Q233.352 323.376 234.716 323.822Q236.08 324.267 237.42 324.778Q238.76 325.289 240.074 325.865C254.679 332.287 267.13 344.856 272.853 359.805C277.701 372.47 278.033 385.763 277.988 399.142L277.994 410.051L257.237 409.923L251.999 410.267Q246.815 410.971 241.584 410.977L241.573 410.651C230.999 408.948 219.362 410.075 208.693 410.388C199.973 410.644 191.224 410.531 182.499 410.517C178.605 410.175 174.771 410.013 170.862 410.011L155.472 410.008C155.681 393.108 153.358 375.478 159.233 359.232C165.628 341.548 178.645 332.534 194.95 324.866L195.351 324.881Z"/>
	<path fill="#FEFEFE" transform="scale(0.820312 0.820312)" d="M182.976 337.895C183.708 338.126 184.487 338.36 185.162 338.73C186.417 339.419 186.981 340.303 187.36 341.664C186.249 345.271 181.393 349.155 178.854 351.956C174.838 356.389 171.822 361.532 168.739 366.626C167.224 365.933 165.849 365.107 164.929 363.661C163.845 361.958 163.858 359.781 164.377 357.891C166.67 349.544 175.666 341.855 182.976 337.895Z"/>
	<path fill="#9C5D2D" transform="scale(0.820312 0.820312)" d="M170.862 410.011C170.129 394.223 169.066 376.332 177.385 362.221C182.94 352.799 192.762 346.209 203.301 343.594C212.649 341.275 225.16 341.849 233.497 347.1C236.938 349.267 239.128 351.792 239.98 355.788Q238.904 355.023 237.778 354.335C227.483 347.951 218.87 347.053 207.197 349.78C196.671 355.106 188.489 361.994 184.695 373.499C180.861 385.123 182.134 398.458 182.499 410.517C178.605 410.175 174.771 410.013 170.862 410.011Z"/>
	<path fill="#9C5D2D" transform="scale(0.820312 0.820312)" d="M195.351 324.881Q196.689 324.363 198.05 323.912Q199.412 323.46 200.794 323.075Q202.176 322.691 203.575 322.374Q204.974 322.057 206.387 321.81Q207.8 321.562 209.224 321.383Q210.647 321.205 212.077 321.096Q213.508 320.987 214.942 320.949Q216.376 320.91 217.81 320.942Q219.244 320.973 220.675 321.075Q222.106 321.177 223.53 321.348Q224.955 321.52 226.369 321.76Q227.783 322.001 229.184 322.311Q230.584 322.621 231.968 322.999Q233.352 323.376 234.716 323.822Q236.08 324.267 237.42 324.778Q238.76 325.289 240.074 325.865C254.679 332.287 267.13 344.856 272.853 359.805C277.701 372.47 278.033 385.763 277.988 399.142L277.994 410.051L257.237 409.923C259.781 409.415 262.428 409.537 265.014 409.515C265.067 398.099 265.809 386.795 263.704 375.483C261.121 361.6 253.644 348.309 241.769 340.345C228.134 331.2 214.606 331.509 199.129 334.655Q197.337 329.73 195.351 324.881Z"/>
	<path fill="#88BFDD" transform="scale(0.820312 0.820312)" d="M207.197 349.78C218.87 347.053 227.483 347.951 237.778 354.335Q238.904 355.023 239.98 355.788C247.931 365.577 251.101 372.881 252.238 385.458C253.146 393.467 251.865 402.13 251.999 410.267Q246.815 410.971 241.584 410.977L241.573 410.651C230.999 408.948 219.362 410.075 208.693 410.388C199.973 410.644 191.224 410.531 182.499 410.517C182.134 398.458 180.861 385.123 184.695 373.499C188.489 361.994 196.671 355.106 207.197 349.78Z"/>
	<path fill="#49ABD8" transform="scale(0.820312 0.820312)" d="M222.713 377.562C232.723 379.793 242.448 382.415 252.238 385.458C253.146 393.467 251.865 402.13 251.999 410.267Q246.815 410.971 241.584 410.977L241.573 410.651C238.179 399.014 228.693 388.086 222.713 377.562Z"/>
	<path fill="#2195CB" transform="scale(0.820312 0.820312)" d="M207.197 349.78C218.87 347.053 227.483 347.951 237.778 354.335Q238.904 355.023 239.98 355.788C247.931 365.577 251.101 372.881 252.238 385.458C242.448 382.415 232.723 379.793 222.713 377.562C215.782 369.47 211.56 359.395 207.197 349.78Z"/>
	<path fill="#26426A" transform="scale(0.820312 0.820312)" d="M873.863 411.516C884.019 410.95 899.733 408.779 907.809 416.353C909.887 418.302 910.243 422.542 910.496 425.299C911.66 437.964 910.821 451.519 910.756 464.266C910.657 483.593 910.907 502.932 910.674 522.255C910.531 534.196 908.737 546.502 899.794 555.251C890.18 564.657 877.1 570.277 865.376 576.552Q843.061 588.758 820.205 599.916C818.897 585.867 820.082 569.211 820.064 554.877C820.057 549.857 820.437 544.409 819.614 539.452C810.875 544.141 800.631 547.764 791.254 551.047C783.489 553.766 759.449 560.231 754.376 564.71C744.796 560.308 739.335 551.338 733.099 543.304C727.358 533.733 727.438 522.037 728.157 511.238C729.564 505.354 729.858 481.265 728.121 475.781C726.986 462.99 727.898 448.922 728.111 436.004C728.312 429.642 728.118 420.289 733.046 415.517C739.237 409.524 753.465 411.77 761.491 411.971L767.031 412.013C769.702 412.102 772.379 412.147 775.042 412.389C797.485 417.094 824.546 412.018 847.69 411.973L847.831 411.715C852.033 411.397 856.214 411.445 860.425 411.483L873.863 411.516Z"/>
	<path fill="#FEFEFE" transform="scale(0.820312 0.820312)" d="M792.918 468.048C807.655 458.444 813.31 457.857 830.513 459.534C842.39 464.7 851.394 471.77 856.283 484.112C859.946 493.36 859.374 503.344 855.359 512.387Q854.91 513.377 854.414 514.344Q853.917 515.311 853.374 516.252Q852.83 517.193 852.241 518.106Q851.652 519.02 851.019 519.903Q850.386 520.786 849.71 521.637Q849.034 522.489 848.317 523.305Q847.6 524.122 846.844 524.903Q846.088 525.684 845.295 526.427Q844.501 527.169 843.672 527.872Q842.843 528.575 841.981 529.236Q841.118 529.898 840.224 530.516Q839.33 531.134 838.407 531.708Q837.484 532.281 836.534 532.809Q835.583 533.336 834.608 533.816Q833.633 534.296 832.636 534.728Q831.638 535.16 830.621 535.542C827.012 536.883 823.356 537.716 819.577 538.406L818.978 537.823C810.443 536.833 803.412 535.14 796.459 529.856Q795.659 529.26 794.89 528.624Q794.12 527.988 793.384 527.314Q792.647 526.641 791.946 525.931Q791.244 525.221 790.579 524.477Q789.914 523.733 789.287 522.957Q788.66 522.18 788.072 521.373Q787.485 520.567 786.939 519.731Q786.393 518.896 785.89 518.034Q785.386 517.172 784.926 516.286Q784.467 515.401 784.052 514.493Q783.638 513.585 783.269 512.658Q782.901 511.73 782.579 510.785Q782.257 509.841 781.984 508.881Q781.71 507.921 781.485 506.949Q781.259 505.977 781.083 504.994Q780.907 504.012 780.78 503.022C779.002 489.171 784.75 478.649 792.918 468.048Z"/>
	<path fill="#D02E28" transform="scale(0.820312 0.820312)" d="M810.15 487.31C811.671 483.536 814.329 475.445 817.983 473.23C818.69 472.801 819.092 473.079 819.841 473.23C823.601 476.484 824.904 482.233 827.421 486.428L827.732 486.936C828.593 487.477 829.242 487.766 830.233 487.996C826.453 499.239 814.214 511 803.791 516.179Q803.296 516.424 802.794 516.653C803.728 511.95 804.896 507.284 805.985 502.614C802.994 500.352 796.846 496.297 796.825 492.066C796.82 490.938 797.169 490.17 797.923 489.368C800.593 486.53 806.652 487.274 810.15 487.31Z"/>
	<path fill="#B3CFD4" transform="scale(0.820312 0.820312)" d="M830.513 459.534C842.39 464.7 851.394 471.77 856.283 484.112C859.946 493.36 859.374 503.344 855.359 512.387Q854.91 513.377 854.414 514.344Q853.917 515.311 853.374 516.252Q852.83 517.193 852.241 518.106Q851.652 519.02 851.019 519.903Q850.386 520.786 849.71 521.637Q849.034 522.489 848.317 523.305Q847.6 524.122 846.844 524.903Q846.088 525.684 845.295 526.427Q844.501 527.169 843.672 527.872Q842.843 528.575 841.981 529.236Q841.118 529.898 840.224 530.516Q839.33 531.134 838.407 531.708Q837.484 532.281 836.534 532.809Q835.583 533.336 834.608 533.816Q833.633 534.296 832.636 534.728Q831.638 535.16 830.621 535.542C827.012 536.883 823.356 537.716 819.577 538.406L818.978 537.823C820.928 534.038 818.683 519.428 818.378 514.517C814.676 516.455 807.92 520.772 803.756 519.72C802.938 519.513 802.96 519.174 802.564 518.509L802.794 516.653Q803.296 516.424 803.791 516.179C814.214 511 826.453 499.239 830.233 487.996C829.242 487.766 828.593 487.477 827.732 486.936C831.35 479.284 830.44 467.911 830.513 459.534Z"/>
	<path fill="#B01B19" transform="scale(0.820312 0.820312)" d="M830.233 487.996C834.547 486.813 839.604 488.245 843.813 489.447C841.095 494.895 836.965 498.519 832.956 502.981C834.046 506.615 837.418 514.996 835.605 518.634C834.493 519.384 833.994 519.572 832.638 519.295C828.389 518.426 822.559 513.101 818.378 514.517C814.676 516.455 807.92 520.772 803.756 519.72C802.938 519.513 802.96 519.174 802.564 518.509L802.794 516.653Q803.296 516.424 803.791 516.179C814.214 511 826.453 499.239 830.233 487.996Z"/>
	<path fill="#3E7EB3" transform="scale(0.820312 0.820312)" d="M728.111 436.004C728.312 429.642 728.118 420.289 733.046 415.517C739.237 409.524 753.465 411.77 761.491 411.971L767.031 412.013C769.702 412.102 772.379 412.147 775.042 412.389C797.485 417.094 824.546 412.018 847.69 411.973C841.102 432.396 813.164 444.436 796.979 456.718C790.608 461.552 785.312 466.661 780.596 473.11C784.358 471.331 788.827 468.678 792.918 468.048C784.75 478.649 779.002 489.171 780.78 503.022Q780.907 504.012 781.083 504.994Q781.259 505.977 781.485 506.949Q781.71 507.921 781.984 508.881Q782.257 509.841 782.579 510.785Q782.901 511.73 783.269 512.658Q783.638 513.585 784.052 514.493Q784.467 515.401 784.926 516.286Q785.386 517.172 785.89 518.034Q786.393 518.896 786.939 519.731Q787.485 520.567 788.073 521.373Q788.66 522.18 789.287 522.957Q789.914 523.733 790.579 524.477Q791.244 525.221 791.946 525.931Q792.648 526.641 793.384 527.314Q794.12 527.988 794.89 528.624Q795.659 529.26 796.459 529.856C803.412 535.14 810.443 536.833 818.978 537.823L819.577 538.406L819.614 539.452C810.875 544.141 800.631 547.764 791.254 551.047C783.489 553.766 759.449 560.231 754.376 564.71C744.796 560.308 739.335 551.338 733.099 543.304C727.358 533.733 727.438 522.037 728.157 511.238C729.564 505.354 729.858 481.265 728.121 475.781C726.986 462.99 727.898 448.922 728.111 436.004Z"/>
	<path fill="#FEFEFE" transform="scale(0.820312 0.820312)" d="M513.772 221.411C525.811 221.893 537.252 223.377 549.049 225.87C556.512 228.084 564.834 229.959 571.848 233.304C579.136 236.799 586.326 240.609 593.695 243.914C605.903 251.129 617.526 258.709 627.862 268.504L632.339 272.803C634.238 274.609 636.188 276.375 637.914 278.349C639.859 280.277 641.776 282.212 643.636 284.222Q654.171 298.48 662.712 314.014C667.477 324.257 671.826 334.424 675.309 345.18C676.987 353.145 678.965 361.142 680.305 369.164C681.96 378.025 683.13 387.875 683.04 396.897C688.918 396.787 694.738 397.46 700.601 397.743C706.563 398.03 712.531 397.807 718.492 398.027C729.102 398.418 739.44 399.322 750.096 398.802C753.535 394.602 756.835 390.003 760.966 386.463C761.026 394.972 761.412 403.473 761.491 411.971C753.465 411.77 739.237 409.524 733.046 415.517C728.118 420.289 728.312 429.642 728.111 436.004C727.898 448.922 726.986 462.99 728.121 475.781C729.858 481.265 729.564 505.354 728.157 511.238C727.438 522.037 727.358 533.733 733.099 543.304C725.21 546.117 717.949 550.657 709.94 553.051C717.664 569.23 727.914 582.303 738.667 596.496C715.332 582.145 691.107 568.262 675.52 544.851C670.359 537.1 666.813 528.451 661.89 520.555C662.291 537.38 661.231 556.303 666.772 572.374C671.964 596.184 677.188 620.245 687.392 642.512C689.988 646.843 692.135 651.154 693.742 655.949C662.767 648.711 633.378 638.599 613.58 612.083C615.8 633.179 612.789 663.487 606.627 683.793C592.772 671.497 579.917 659.151 569.029 644.1C564.249 637.494 560.202 630.408 555.5 623.773C544.912 645.595 528.291 675.117 511.891 692.967L510.932 692.952C507.854 690.816 505.573 685.849 503.771 682.652C491.25 660.437 483.02 636.731 474.844 612.665C458.997 644.423 445.196 664.958 418.552 688.651C417.455 661.163 414.332 633.719 410.952 606.436C404.956 611.258 399.518 616.745 393.477 621.545C372.614 638.124 352.985 649.085 328.905 660.219C329.938 657.246 331.02 654.319 332.212 651.406Q342.666 614.839 350.461 577.614L349.658 577.903C342.695 580.451 336.333 584.359 329.467 587.137C314.355 593.251 298.437 597.388 282.517 600.771C280.615 601.114 278.671 601.574 276.736 601.599C279.233 598.683 283.577 596.245 286.578 593.754C307.066 576.748 320.463 546.211 322.738 520.044L323.426 517.43Q325.648 500.096 326.021 482.624L326.052 463.94Q325.755 451.025 325.003 438.128C324.749 428.618 324.665 419.184 324.963 409.672C324.859 387.012 330.698 363.332 337.927 342C341.425 328.432 348.724 316.021 355.535 303.903C367.688 285.646 381.134 270.374 398.496 256.861C406.191 251.461 413.844 246.568 422.118 242.102Q429.083 238.524 436.32 235.534Q443.558 232.544 451.017 230.163C458.298 227.773 465.555 225.626 473.063 224.064C486.216 221.027 500.355 221.4 513.772 221.411Z"/>
	<path fill="#6C655D" transform="scale(0.820312 0.820312)" d="M411.977 306.01C417.775 309.152 425.541 311.983 429.119 317.819C425.01 318.368 420.84 319.095 416.691 319.162C413.427 317.908 410.514 316.732 406.94 317.26C408.047 313.396 410.472 309.791 411.977 306.01Z"/>
	<path fill="#8D9698" transform="scale(0.820312 0.820312)" d="M396.966 312.948C400.07 315.463 402.724 317.089 406.576 318.09C404.164 325.933 402.319 333.346 403.14 341.639C400.831 343.852 399.084 346.454 396.932 348.788C392.451 336.686 393.788 325.286 396.966 312.948Z"/>
	<path fill="#105080" transform="scale(0.820312 0.820312)" d="M389.82 292.201C396.605 297.89 404.502 301.392 411.977 306.01C410.472 309.791 408.047 313.396 406.94 317.26L406.576 318.09C402.724 317.089 400.07 315.463 396.966 312.948C397.739 310.232 398.696 307.614 399.679 304.969C389.815 303.578 382.211 305.271 372.813 308.202C378.322 302.64 383.931 297.356 389.82 292.201Z"/>
	<path fill="#B3CFD4" transform="scale(0.820312 0.820312)" d="M404.987 361.397C414.681 368.839 423.263 370.782 435.404 369.23C435.878 369.17 436.349 369.085 436.817 368.993C436.403 369.577 436.417 369.592 435.834 370.205C432.047 374.186 427.386 374.152 422.275 374.294C425.189 377.351 428.564 379.712 431.967 382.18C427.721 380.92 423.441 379.664 419.12 378.688C396.628 373.609 385.065 380.449 366.48 392.165C374.084 381.553 381.83 370.414 394.688 365.71C398.2 364.426 402.2 364.047 404.987 361.397Z"/>
	<path fill="#6C655D" transform="scale(0.820312 0.820312)" d="M453.762 335.766L461.622 340.53C460.415 349.304 456.857 356.362 449.695 361.847C445.782 364.844 441.276 366.944 436.817 368.993C436.349 369.085 435.878 369.17 435.404 369.23C423.263 370.782 414.681 368.839 404.987 361.397C401.558 357.562 399.208 353.377 396.932 348.788C399.084 346.454 400.831 343.852 403.14 341.639C404.042 344.511 404.972 347.316 406.58 349.885C410.221 355.695 415.895 359.9 422.651 361.29C429.303 362.658 436.539 361.06 442.123 357.233C449.792 351.977 452.266 344.457 453.762 335.766Z"/>
	<path fill="#F3C039" transform="scale(0.820312 0.820312)" d="M406.94 317.26C410.514 316.732 413.427 317.908 416.691 319.162C412.695 325.007 410.174 330.832 411.374 338.116C412.16 342.886 414.75 347.164 418.78 349.877Q419.153 350.129 419.538 350.361Q419.923 350.593 420.32 350.805Q420.716 351.017 421.123 351.209Q421.53 351.401 421.946 351.571Q422.362 351.742 422.786 351.891Q423.211 352.04 423.642 352.167Q424.073 352.294 424.51 352.399Q424.948 352.504 425.39 352.587Q425.832 352.669 426.278 352.729Q426.723 352.789 427.172 352.826Q427.62 352.863 428.069 352.877Q428.519 352.891 428.968 352.881Q429.418 352.872 429.867 352.84Q430.315 352.808 430.761 352.753Q431.208 352.699 431.651 352.621Q432.094 352.543 432.532 352.443C437.221 351.414 441.586 348.612 444.118 344.485C446.95 339.867 447.131 334.7 446.398 329.501L447.747 329.847C449.652 331.979 451.603 333.892 453.762 335.766C452.266 344.457 449.792 351.977 442.123 357.233C436.539 361.06 429.303 362.658 422.651 361.29C415.895 359.9 410.221 355.695 406.58 349.885C404.972 347.316 404.042 344.511 403.14 341.639C402.319 333.346 404.164 325.933 406.576 318.09L406.94 317.26Z"/>
	<path fill="#151613" transform="scale(0.820312 0.820312)" d="M429.119 317.819C435.798 320.565 441.644 323.944 446.398 329.501C447.131 334.7 446.95 339.867 444.118 344.485C441.586 348.612 437.221 351.414 432.532 352.443Q432.094 352.543 431.651 352.621Q431.208 352.699 430.761 352.753Q430.315 352.808 429.867 352.84Q429.418 352.872 428.968 352.881Q428.519 352.891 428.069 352.877Q427.62 352.863 427.172 352.826Q426.723 352.789 426.278 352.729Q425.832 352.669 425.39 352.587Q424.948 352.504 424.51 352.399Q424.073 352.294 423.642 352.167Q423.211 352.04 422.786 351.891Q422.362 351.742 421.946 351.571Q421.53 351.401 421.123 351.209Q420.716 351.017 420.32 350.805Q419.923 350.593 419.538 350.361Q419.153 350.129 418.78 349.877C414.75 347.164 412.16 342.886 411.374 338.116C410.174 330.832 412.695 325.007 416.691 319.162C420.84 319.095 425.01 318.368 429.119 317.819Z"/>
	<path fill="#FEFEFE" transform="scale(0.820312 0.820312)" d="M419.793 320.37C419.966 320.387 420.14 320.392 420.311 320.419C422.55 320.778 424.894 321.492 426.299 323.394C427.313 324.765 427.55 326.419 427.236 328.072C426.688 330.954 424.803 332.309 422.553 333.961C420.556 334.041 418.068 333.683 416.644 332.117C415.349 330.694 414.929 329.123 415.154 327.244C415.569 323.77 417.194 322.442 419.793 320.37Z"/>
	<defs>
		<linearGradient id="gradient_0" gradientUnits="userSpaceOnUse" x1="483.99295" y1="328.51682" x2="426.13354" y2="277.83441">
			<stop offset="0" stop-color="#A3D1D7"/>
			<stop offset="1" stop-color="#CFE6E9"/>
		</linearGradient>
	</defs>
	<path fill="url(#gradient_0)" transform="scale(0.820312 0.820312)" d="M453.132 302.969C459.306 306.764 467.744 311.481 475.274 309.476C476.64 309.112 477.991 308.403 478.792 307.194C480.001 305.372 479.669 302.92 479.037 300.956C475.072 288.628 457.84 276.308 446.675 270.955C436.438 266.047 425.556 263.906 414.222 264.331C411.027 264.451 407.641 265.783 404.495 265.236C405.245 264.298 407.136 264.194 408.301 264.066C428.918 261.808 448.979 265.401 465.434 278.748C475.367 286.804 486.104 298.333 487.482 311.688C488.456 321.131 484.421 329.464 478.513 336.536C476.2 339.306 473.528 341.845 470.906 344.322C467.858 342.939 464.842 341.469 461.622 340.53L453.762 335.766C451.603 333.892 449.652 331.979 447.747 329.847C452.096 323.062 452.274 310.907 453.132 302.969Z"/>
	<path fill="#B3CFD4" transform="scale(0.820312 0.820312)" d="M282.517 600.771C283.291 598.335 285.063 596.617 286.945 594.967C291.361 591.094 296.693 588.047 301.538 584.731C308.289 580.112 314.903 574.965 321.047 569.57C329.749 561.928 338.157 553.217 345.293 544.097C350.511 537.429 355.195 530.345 360.566 523.798C356.688 541.622 354.524 559.858 350.461 577.614L349.658 577.903C342.695 580.451 336.333 584.359 329.467 587.137C314.355 593.251 298.437 597.388 282.517 600.771Z"/>
	<path fill="#88BFDD" transform="scale(0.820312 0.820312)" d="M423.554 455.334C437.319 459.22 451.333 462.744 464.965 467.049L479.05 503.731C483.186 514.267 487.85 524.418 490.863 535.372C474.501 527.594 461.852 518.22 450.491 503.985C446.014 498.376 441.831 492.452 437.11 487.05C422.517 470.353 404.143 466.861 382.944 465.444C395.453 457.466 409.111 456.18 423.554 455.334Z"/>
	<path fill="#B3CFD4" transform="scale(0.820312 0.820312)" d="M413.54 550.998C418.893 583.72 427.612 616 434.445 648.462C452.864 616.794 464.788 590.064 470.307 553.708C472.127 559.059 474.657 564.242 476.782 569.487Q486.381 593.769 497.654 617.321C501.538 625.576 505.228 635.104 510.472 642.548L510.929 644.688C512.565 660.387 513.046 677.215 511.891 692.967L510.932 692.952C507.854 690.816 505.573 685.849 503.771 682.652C491.25 660.437 483.02 636.731 474.844 612.665C458.997 644.423 445.196 664.958 418.552 688.651C417.455 661.163 414.332 633.719 410.952 606.436C404.956 611.258 399.518 616.745 393.477 621.545C372.614 638.124 352.985 649.085 328.905 660.219C329.938 657.246 331.02 654.319 332.212 651.406C332.74 651.359 332.859 651.37 333.439 651.19C340.956 648.849 348.438 640.545 353.915 635.111C372.159 617.01 388.495 598.378 401.125 575.833C405.642 567.771 409.443 559.281 413.54 550.998Z"/>
	<defs>
		<linearGradient id="gradient_1" gradientUnits="userSpaceOnUse" x1="376.806" y1="430.82553" x2="634.63434" y2="478.95648">
			<stop offset="0" stop-color="#FEC027"/>
			<stop offset="1" stop-color="#B08135"/>
		</linearGradient>
	</defs>
	<path fill="url(#gradient_1)" transform="scale(0.820312 0.820312)" d="M453.697 381.481C456.312 370.845 463.479 360.026 470.501 351.774C479.429 341.283 493.052 332.44 507.051 331.347C522.323 330.154 535.428 337.655 546.636 347.324C550.281 351.303 553.562 355.465 556.499 359.997C562.548 369.331 567.578 380.902 576.754 387.663C595.782 401.684 624.664 386.445 638.752 418.641C641.31 424.485 643.616 432.022 643.249 438.409C643.182 439.575 643.043 440.464 642.521 441.526C640.572 441.729 639.096 441.494 637.19 441.068C628.385 440.38 622.614 442.231 614.549 445.426Q595.551 455.947 575.271 463.715C570.824 465.408 562.479 466.206 559.019 468.362C553.991 471.497 534.662 525.636 531.677 533.646C527.397 544.628 522.955 555.598 517.76 566.185C515.087 571.632 511.461 576.523 509.357 582.251C503.238 578.129 493.631 543.914 490.863 535.372C487.85 524.418 483.186 514.267 479.05 503.731L464.965 467.049C451.333 462.744 437.319 459.22 423.554 455.334C413.934 451.994 404.979 448.03 396.01 443.189C394.443 442.953 392.782 442.156 391.229 441.705C385.498 440.042 381.187 440.85 375.556 442.316L374.895 441.881C374.637 441.144 374.48 440.484 374.535 439.694C375.01 432.872 378.507 424.13 381.744 418.081C390.615 401.504 404.296 395.52 422.241 393.575C429.241 392.816 436.501 392.299 442.99 389.329C447.197 387.404 450.372 384.631 453.697 381.481Z"/>
	<path fill="#9C5D2D" transform="scale(0.820312 0.820312)" d="M614.549 445.426L614.461 443.984C615.06 442.584 615.887 441.568 617.079 440.628C621.367 437.248 629.099 436.67 634.274 437.45C637.252 437.9 640.687 438.984 642.521 441.526C640.572 441.729 639.096 441.494 637.19 441.068C628.385 440.38 622.614 442.231 614.549 445.426Z"/>
	<path fill="#151613" transform="scale(0.820312 0.820312)" d="M536.519 374.924C538.834 376.232 540.626 377.368 541.983 379.716C544.748 384.499 543.82 390.295 542.554 395.38L542.063 395.75L540.466 395.496C540.032 395.06 539.634 394.658 539.3 394.137C535.963 388.94 535.38 380.818 536.519 374.924Z"/>
	<path fill="#F3C039" transform="scale(0.820312 0.820312)" d="M482.993 348.172C490.82 341.264 500.048 336.893 510.693 337.593C522.042 338.339 531.274 345.142 538.465 353.527C541.191 356.705 545.307 360.861 545.081 365.393C545.046 366.08 545.01 366.098 544.834 366.658L543.88 367.261C542.906 366.489 542.346 365.612 541.648 364.606C537.443 358.549 533.092 356.142 528.056 351.166C526.451 349.58 518.184 345.532 516.007 345.619C515.368 345.645 515.345 345.694 514.835 345.894C513.902 348.686 515.771 360.801 516.079 364.503C516.626 371.09 517.867 397.429 516.065 402.327C515.489 394.886 516.237 347.362 512.654 344.378C506.103 338.922 491.098 347.464 483.572 348.129C483.379 348.146 483.186 348.158 482.993 348.172Z"/>
	<path fill="#7C5B21" transform="scale(0.820312 0.820312)" d="M564.962 410.957L561.88 397.476C570.806 409.997 579.006 426.776 595.865 429.684C598.621 430.16 601.475 429.973 603.779 428.243C607.429 425.502 608.313 420.233 608.76 415.966C609.062 413.079 609.21 410.17 609.381 407.273C611.06 416.491 613.694 426.933 607.684 435.25C607.555 435.427 607.419 435.599 607.287 435.774C602.622 436.07 597.725 436.594 593.065 435.954C578.691 433.979 572.861 421.3 564.962 410.957Z"/>
	<path fill="#9C5D2D" transform="scale(0.820312 0.820312)" d="M455.32 418.383C455.896 426.668 455.633 434.839 458.118 442.884C458.299 448.341 460.12 453.313 461.781 458.455C451.051 454.873 437.729 451.452 429.197 443.606C440.7 439.556 448.609 431.294 453.94 420.48L455.32 418.383Z"/>
	<path fill="#9C5D2D" transform="scale(0.820312 0.820312)" d="M564.962 410.957C572.861 421.3 578.691 433.979 593.065 435.954C597.725 436.594 602.622 436.07 607.287 435.774C598.163 448.615 576.4 456.28 561.534 460.08C566.807 442.032 566.299 429.331 564.962 410.957Z"/>
	<path fill="#F3C039" transform="scale(0.820312 0.820312)" d="M396.01 443.189C394.443 442.953 392.782 442.156 391.229 441.705C385.498 440.042 381.187 440.85 375.556 442.316L374.895 441.881C374.637 441.144 374.48 440.484 374.535 439.694C375.01 432.872 378.507 424.13 381.744 418.081C390.615 401.504 404.296 395.52 422.241 393.575C429.241 392.816 436.501 392.299 442.99 389.329C447.197 387.404 450.372 384.631 453.697 381.481C452.909 389.002 450.101 410.239 444.409 414.761C444.246 414.891 444.07 415.003 443.901 415.124C443.71 416.275 443.545 417.332 443.144 418.433C445.068 419.287 445.758 420.27 447.011 421.913C447.126 422.063 447.245 422.209 447.362 422.357C449.222 421.625 452.062 419.901 453.94 420.48C448.609 431.294 440.7 439.556 429.197 443.606C418.531 445.156 406.892 441.992 396.619 439.325C392.549 438.269 388.426 436.163 384.168 436.918C381.786 437.34 376.39 438.968 375.039 440.923L375.728 441.252C376.684 441.046 377.611 440.862 378.532 440.528C381.875 439.313 385.609 439.268 389.087 439.95C391.229 440.37 394.807 441.321 396.01 443.189Z"/>
	<path fill="#9C5D2D" transform="scale(0.820312 0.820312)" d="M443.144 418.433C442.673 419.291 442.176 420.116 441.65 420.942C436.95 428.321 429.988 433.922 421.309 435.771C416.025 436.897 410.634 436.644 406.056 433.55C400.927 430.084 397.95 424.24 396.914 418.259C396.615 416.528 396.107 413.838 397.198 412.322C400.252 413.018 403.668 420.978 405.775 423.632C408.34 426.862 411.758 428.34 415.853 428.751C426.809 429.852 436.021 421.515 443.901 415.124C443.71 416.275 443.545 417.332 443.144 418.433Z"/>
	<path fill="#F2CE64" transform="scale(0.820312 0.820312)" d="M482.993 348.172C483.186 348.158 483.379 348.146 483.572 348.129C491.098 347.464 506.103 338.922 512.654 344.378C516.237 347.362 515.489 394.886 516.065 402.327C516.056 437.164 515.936 471.876 514.247 506.683C513.67 518.573 513.726 530.955 512.379 542.753C511.951 546.511 511.092 550.215 510.465 553.943C509.372 554.928 508.95 554.66 507.519 554.625C507.127 554.382 506.647 554.243 506.343 553.896C504.434 551.716 496.523 526.715 494.718 521.87C488.822 506.042 481.34 490.575 474.231 475.257C469.208 464.433 464.534 452.961 458.118 442.884C455.633 434.839 455.896 426.668 455.32 418.383C454.766 412.815 456.555 404.863 457.605 399.404C460.6 383.832 469.124 357.549 482.993 348.172Z"/>
	<path fill="#F4ECB9" transform="scale(0.820312 0.820312)" d="M488.479 373.116C488.032 367.019 486.722 359.063 491.075 354.074C493.377 351.436 497.599 348.79 501.177 348.584C502.366 348.516 503.832 348.81 504.672 349.725C511.962 357.667 507.475 455.067 504.583 470.142C504.047 472.932 503.427 475.488 501.89 477.921L500.145 478.996C498.951 480.692 497.619 482.153 496.185 483.649L496.321 483.999L495.888 484.727C494.949 485.208 494.067 485.743 492.992 485.815C491.618 485.908 489.89 484.092 489.04 483.168C475.214 468.142 468.316 430.057 469.325 410.349C469.614 404.715 470.175 391.225 474.421 387.407C474.759 386.783 474.651 387.079 474.82 386.338C475.723 382.374 476.741 377.381 478.78 373.857C479.59 372.456 480.874 371.444 482.492 371.139C484.948 370.675 486.508 371.861 488.479 373.116Z"/>
	<path fill="#F3C039" transform="scale(0.820312 0.820312)" d="M494.628 439.086C495.624 446.634 494.07 454.338 496.082 461.848C497.107 465.678 499.864 468.84 501.115 472.612C501.186 472.828 501.246 473.047 501.314 473.263C501.978 475.401 500.999 477.066 500.145 478.996C498.951 480.692 497.619 482.153 496.185 483.649C495.725 483.121 495.286 482.612 494.898 482.027C487.314 470.58 492.437 451.533 494.628 439.086Z"/>
	<path fill="#F3C039" transform="scale(0.820312 0.820312)" d="M474.421 387.407C474.759 386.783 474.651 387.079 474.82 386.338C475.723 382.374 476.741 377.381 478.78 373.857C479.59 372.456 480.874 371.444 482.492 371.139C484.948 370.675 486.508 371.861 488.479 373.116C490.535 380.383 491.198 386.924 487.274 393.848C486.004 396.089 484.007 398.632 481.387 399.319C480.315 399.6 479.228 399.512 478.277 398.914C475.871 397.401 475.055 393.825 474.74 391.221Q474.521 389.319 474.421 387.407Z"/>
	<path fill="#151613" transform="scale(0.820312 0.820312)" d="M482.283 375.221C484.063 376.059 485.276 376.86 485.969 378.781C487.911 384.16 484.046 390.988 481.672 395.669C479.373 393.766 477.76 390.899 477.425 387.926C476.865 382.974 479.338 378.92 482.283 375.221Z"/>
	<defs>
		<linearGradient id="gradient_2" gradientUnits="userSpaceOnUse" x1="498.98434" y1="465.03635" x2="724.80426" y2="449.7034">
			<stop offset="0" stop-color="#98C6CC"/>
			<stop offset="1" stop-color="#C6DCDE"/>
		</linearGradient>
	</defs>
	<path fill="url(#gradient_2)" transform="scale(0.820312 0.820312)" d="M549.495 342.619C549.368 342.548 549.239 342.481 549.115 342.406C541.46 337.738 535.353 329.979 533.286 321.198C531.1 311.91 534.362 303.145 539.374 295.427C554.384 272.317 587.465 258.415 614.283 266.671C620.516 268.59 632.473 279.479 637.914 278.349C639.859 280.277 641.776 282.212 643.636 284.222Q654.171 298.48 662.712 314.014C667.477 324.257 671.826 334.424 675.309 345.18C676.987 353.145 678.965 361.142 680.305 369.164C681.96 378.025 683.13 387.875 683.04 396.897C688.918 396.787 694.738 397.46 700.601 397.743C706.563 398.03 712.531 397.807 718.492 398.027C729.102 398.418 739.44 399.322 750.096 398.802C753.535 394.602 756.835 390.003 760.966 386.463C761.026 394.972 761.412 403.473 761.491 411.971C753.465 411.77 739.237 409.524 733.046 415.517C728.118 420.289 728.312 429.642 728.111 436.004C727.898 448.922 726.986 462.99 728.121 475.781C729.858 481.265 729.564 505.354 728.157 511.238C727.438 522.037 727.358 533.733 733.099 543.304C725.21 546.117 717.949 550.657 709.94 553.051C717.664 569.23 727.914 582.303 738.667 596.496C715.332 582.145 691.107 568.262 675.52 544.851C670.359 537.1 666.813 528.451 661.89 520.555C662.291 537.38 661.231 556.303 666.772 572.374C671.964 596.184 677.188 620.245 687.392 642.512C689.988 646.843 692.135 651.154 693.742 655.949C662.767 648.711 633.378 638.599 613.58 612.083C615.8 633.179 612.789 663.487 606.627 683.793C592.772 671.497 579.917 659.151 569.029 644.1C564.249 637.494 560.202 630.408 555.5 623.773C544.912 645.595 528.291 675.117 511.891 692.967C513.046 677.215 512.565 660.387 510.929 644.688L510.472 642.548C510.655 635.059 511.786 584.87 509.357 582.251C511.461 576.523 515.087 571.632 517.76 566.185C522.955 555.598 527.397 544.628 531.677 533.646C534.662 525.636 553.991 471.497 559.019 468.362C562.479 466.206 570.824 465.408 575.271 463.715Q595.551 455.947 614.549 445.426C622.614 442.231 628.385 440.38 637.19 441.068C639.096 441.494 640.572 441.729 642.521 441.526C643.043 440.464 643.182 439.575 643.249 438.409C643.616 432.022 641.31 424.485 638.752 418.641C624.664 386.445 595.782 401.684 576.754 387.663C567.578 380.902 562.548 369.331 556.499 359.997C553.562 355.465 550.281 351.303 546.636 347.324C548.602 346.425 550.634 345.872 552.578 344.85L549.495 342.619Z"/>
	<path fill="#88BFDD" transform="scale(0.820312 0.820312)" d="M549.495 342.619C551.657 340.468 556.313 340.946 559.198 340.888C559.989 343.935 560.723 346.971 561.915 349.891C557.008 350.263 556.844 347.323 553.244 345.222C553.024 345.094 552.8 344.974 552.578 344.85L549.495 342.619Z"/>
	<path fill="#126AA1" transform="scale(0.820312 0.820312)" d="M618.782 299.365C623.48 297.13 627.777 295.431 632.998 297.287C637.97 299.055 641.657 303.11 645.026 306.986C635.905 303.559 629.212 302.766 619.777 305.371L618.782 299.365Z"/>
	<path fill="#4B4B52" transform="scale(0.820312 0.820312)" d="M618.782 299.365L619.777 305.371L621.351 309.402C618.757 311.267 615.315 314.406 613.408 317.01C611.103 318.197 608.799 319.351 606.441 320.432C604.851 319.174 603.334 318.073 601.205 318.133C598.93 318.198 597.4 319.502 595.859 321.018C592.308 320.986 588.695 321.724 585.281 322.673C595.185 312.989 606.802 306.115 618.782 299.365Z"/>
	<path fill="#88BFDD" transform="scale(0.820312 0.820312)" d="M569.592 361.122C575.563 365.137 581.615 368.554 588.874 369.466C599.234 370.768 608.054 366.382 616.002 360.213C630.621 362.741 637.737 366.38 646.47 378.759Q648.407 381.538 650.273 384.366C642.764 379.734 635.102 374.697 626.143 373.56C609.431 371.439 591.749 383.585 576.493 371.551C573.818 369.441 570.451 365.042 569.678 361.709C569.633 361.516 569.621 361.318 569.592 361.122Z"/>
	<path fill="#FEFEFE" transform="scale(0.820312 0.820312)" d="M595.543 266.691C605.455 265.634 615.148 268.602 624.147 272.527C616.809 276.6 609.234 280.215 601.836 284.175C589.156 290.962 576.601 298.002 564.004 304.942C558.136 308.089 552.828 310.345 546.197 311.256C545.188 310.862 544.091 310.477 543.19 309.869C541.887 308.989 541.076 307.503 540.828 305.972C540.126 301.635 543.114 297.219 545.613 293.934C558.055 277.576 575.524 269.338 595.543 266.691Z"/>
	<path fill="#6C655D" transform="scale(0.820312 0.820312)" d="M621.351 309.402C625.828 322.725 629.817 336.444 623.292 349.837C621.441 353.637 618.859 357.115 616.002 360.213C608.054 366.382 599.234 370.768 588.874 369.466C581.615 368.554 575.563 365.137 569.592 361.122C566.343 357.575 564.023 354.231 561.915 349.891C560.723 346.971 559.989 343.935 559.198 340.888C562.44 339.348 565.679 336.843 568.757 334.932C570.744 333.163 573.044 331.656 575.193 330.084C578.776 327.811 581.305 324.556 585.281 322.673C588.695 321.724 592.308 320.986 595.859 321.018C597.4 319.502 598.93 318.198 601.205 318.133C603.334 318.073 604.851 319.174 606.441 320.432C608.799 319.351 611.103 318.197 613.408 317.01C615.315 314.406 618.757 311.267 621.351 309.402Z"/>
	<path fill="#F3C039" transform="scale(0.820312 0.820312)" d="M613.408 317.01C616.943 321.725 618.088 333.953 617.165 339.726C616.126 346.224 612.722 352.045 607.308 355.838Q606.746 356.225 606.166 356.583Q605.585 356.941 604.988 357.269Q604.39 357.597 603.776 357.894Q603.162 358.191 602.535 358.457Q601.907 358.723 601.266 358.957Q600.625 359.191 599.974 359.392Q599.322 359.593 598.661 359.761Q598 359.929 597.332 360.063Q596.663 360.197 595.989 360.297Q595.314 360.397 594.635 360.463Q593.957 360.529 593.275 360.56Q592.594 360.592 591.912 360.588Q591.23 360.585 590.55 360.548Q589.869 360.51 589.191 360.438Q588.512 360.366 587.839 360.26Q587.165 360.153 586.498 360.013C580.646 358.817 575.312 355.551 572.007 350.521C568.807 345.65 568.309 340.562 568.757 334.932C570.744 333.163 573.044 331.656 575.193 330.084C575.011 333.098 574.845 336.163 575.62 339.113C576.718 343.291 579.24 346.815 583.054 348.917C587.435 351.33 593.103 351.695 597.818 350.095Q598.597 349.834 599.345 349.495Q600.093 349.157 600.803 348.743Q601.513 348.33 602.176 347.847Q602.84 347.363 603.451 346.815Q604.063 346.266 604.615 345.658Q605.167 345.05 605.654 344.389Q606.141 343.728 606.559 343.021Q606.976 342.313 607.319 341.567C609.681 336.37 608.843 329.776 606.991 324.518C607.089 323.113 606.732 321.796 606.441 320.432C608.799 319.351 611.103 318.197 613.408 317.01Z"/>
	<path fill="#151613" transform="scale(0.820312 0.820312)" d="M595.859 321.018C597.4 319.502 598.93 318.198 601.205 318.133C603.334 318.073 604.851 319.174 606.441 320.432C606.732 321.796 607.089 323.113 606.991 324.518C608.843 329.776 609.681 336.37 607.319 341.567Q606.976 342.313 606.559 343.021Q606.141 343.728 605.654 344.389Q605.167 345.05 604.615 345.658Q604.063 346.266 603.451 346.815Q602.84 347.363 602.176 347.847Q601.513 348.33 600.803 348.743Q600.093 349.157 599.345 349.495Q598.597 349.834 597.818 350.095C593.103 351.695 587.435 351.33 583.054 348.917C579.24 346.815 576.718 343.291 575.62 339.113C574.845 336.163 575.011 333.098 575.193 330.084C578.776 327.811 581.305 324.556 585.281 322.673C588.695 321.724 592.308 320.986 595.859 321.018Z"/>
	<path fill="#FEFEFE" transform="scale(0.820312 0.820312)" d="M595.859 321.018C597.4 319.502 598.93 318.198 601.205 318.133C603.334 318.073 604.851 319.174 606.441 320.432C606.732 321.796 607.089 323.113 606.991 324.518C605.826 325.477 604.614 326.599 603.163 327.088C601.911 327.51 600.634 327.496 599.468 326.809C597.388 325.582 596.663 323.139 595.859 321.018Z"/>
	<path fill="#88BFDD" transform="scale(0.820312 0.820312)" d="M614.549 445.426C622.614 442.231 628.385 440.38 637.19 441.068C633.182 444.52 627.44 446.277 622.781 448.718C619.541 450.415 616.569 452.618 613.596 454.736C623.315 457.177 629.192 460.092 636.227 467.244C619.032 466.471 603.572 468.069 590.335 480.245C585.267 484.908 581.181 490.517 577.06 496.001C567.072 509.293 557.041 522.145 542.307 530.502C539.664 532 535.689 534.354 532.625 534.228C531.944 534.2 532.127 534.191 531.677 533.646C534.662 525.636 553.991 471.497 559.019 468.362C562.479 466.206 570.824 465.408 575.271 463.715Q595.551 455.947 614.549 445.426Z"/>
	<path fill="#126AA1" transform="scale(0.820312 0.820312)" d="M686.478 461.202Q698.32 464.959 709.971 469.274C715.502 471.342 722.273 475.185 728.121 475.781C729.858 481.265 729.564 505.354 728.157 511.238C727.438 522.037 727.358 533.733 733.099 543.304C725.21 546.117 717.949 550.657 709.94 553.051C698.658 535.58 693.809 507.696 690.202 487.449C687.262 479.038 686.846 470.033 686.478 461.202Z"/>
	<path fill="#2195CB" transform="scale(0.820312 0.820312)" d="M686.478 461.202Q698.32 464.959 709.971 469.274C715.502 471.342 722.273 475.185 728.121 475.781C729.858 481.265 729.564 505.354 728.157 511.238C718.926 503.609 708.122 496.62 697.895 490.429C695.844 489.187 692.662 486.849 690.202 487.449C687.262 479.038 686.846 470.033 686.478 461.202Z"/>
	<path fill="#2195CB" transform="scale(0.820312 0.820312)" d="M750.096 398.802C753.535 394.602 756.835 390.003 760.966 386.463C761.026 394.972 761.412 403.473 761.491 411.971C753.465 411.77 739.237 409.524 733.046 415.517C728.118 420.289 728.312 429.642 728.111 436.004C727.898 448.922 726.986 462.99 728.121 475.781C722.273 475.185 715.502 471.342 709.971 469.274Q698.32 464.959 686.478 461.202C685.172 447.729 684.702 434.021 684.007 420.496Q683.697 408.689 683.04 396.897C688.918 396.787 694.738 397.46 700.601 397.743C706.563 398.03 712.531 397.807 718.492 398.027C729.102 398.418 739.44 399.322 750.096 398.802Z"/>
	<path fill="#126AA1" transform="scale(0.820312 0.820312)" d="M684.007 420.496C691.817 421.619 699.658 425.538 707.022 428.265C714.036 430.863 721.186 433.185 728.111 436.004C727.898 448.922 726.986 462.99 728.121 475.781C722.273 475.185 715.502 471.342 709.971 469.274Q698.32 464.959 686.478 461.202C685.172 447.729 684.702 434.021 684.007 420.496Z"/>
	<path fill="#88BFDD" transform="scale(0.820312 0.820312)" d="M604.194 541.129C605.917 547.56 607.725 553.932 609.964 560.206C620.923 590.904 646.839 626.433 676.974 640.48C679.841 641.817 684.319 643.638 687.392 642.512C689.988 646.843 692.135 651.154 693.742 655.949C662.767 648.711 633.378 638.599 613.58 612.083C615.8 633.179 612.789 663.487 606.627 683.793C592.772 671.497 579.917 659.151 569.029 644.1C564.249 637.494 560.202 630.408 555.5 623.773C544.912 645.595 528.291 675.117 511.891 692.967C513.046 677.215 512.565 660.387 510.929 644.688C521.95 636.439 538.775 597.465 544.033 583.79C547.979 573.526 551.048 562.894 554.803 552.549C556.282 578.828 568.947 603.816 580.931 626.743C585.953 636.35 590.933 645.97 596.504 655.276C596.522 628.701 598.355 602.06 600.767 575.608C601.817 564.105 603.287 552.644 604.194 541.129Z"/>
	<path fill="#643220" transform="scale(0.820312 0.820312)" d="M666.772 572.374C694.303 591.567 711.545 598.195 744.641 602.923C748.422 603.883 752.19 604.839 756.017 605.597C789.179 613.829 815.681 640.121 832.965 668.673C855.808 706.405 865.414 750.125 866.116 793.892C851.429 813.771 834.332 831.261 816.077 847.878C807.676 855.525 799.053 863.244 789.762 869.806C775.782 879.973 761.768 890.196 746.987 899.179Q741.299 902.601 735.513 905.855Q729.727 909.11 723.848 912.194Q717.969 915.278 712.003 918.189Q706.037 921.1 699.989 923.835Q693.94 926.57 687.814 929.128Q681.688 931.686 675.49 934.063Q669.292 936.44 663.027 938.636Q656.762 940.831 650.436 942.843Q644.109 944.854 637.727 946.68Q631.345 948.506 624.912 950.144Q618.479 951.783 612.001 953.233Q605.522 954.682 599.005 955.943Q592.487 957.203 585.935 958.272Q579.384 959.341 572.803 960.218Q566.223 961.095 559.62 961.78Q553.017 962.464 546.397 962.956C535.212 963.765 523.926 963.598 512.716 963.71C497.439 964.332 481.441 963.001 466.232 961.665Q460.576 961.159 454.935 960.512Q449.294 959.865 443.671 959.077Q438.048 958.289 432.446 957.36Q426.845 956.431 421.268 955.363Q415.691 954.294 410.143 953.087Q404.595 951.879 399.079 950.533Q393.562 949.187 388.081 947.703Q382.601 946.219 377.159 944.599Q371.717 942.978 366.317 941.222Q360.917 939.466 355.563 937.575Q350.209 935.684 344.904 933.66Q339.599 931.636 334.346 929.48Q329.093 927.324 323.896 925.037Q318.699 922.75 313.561 920.333Q308.422 917.917 303.346 915.373Q298.27 912.828 293.259 910.158C276.865 901.241 261.636 891.249 246.234 880.769C232.827 871.141 220.278 859.533 207.69 848.852C187.619 830.079 167.085 808.757 151.623 786.005C152.624 778.873 152.809 771.679 153.987 764.528C156.642 748.407 161.604 732.807 166.446 717.242C178.709 681.406 200.43 646.775 231.405 624.253C240.483 617.652 250.183 612.503 260.206 607.516C264.885 604.983 269.41 602.461 274.638 601.286L276.736 601.599C278.671 601.574 280.615 601.114 282.517 600.771C298.437 597.388 314.355 593.251 329.467 587.137C336.333 584.359 342.695 580.451 349.658 577.903L350.461 577.614Q342.666 614.839 332.212 651.406C331.02 654.319 329.938 657.246 328.905 660.219C352.985 649.085 372.614 638.124 393.477 621.545C399.518 616.745 404.956 611.258 410.952 606.436C414.332 633.719 417.455 661.163 418.552 688.651C445.196 664.958 458.997 644.423 474.844 612.665C483.02 636.731 491.25 660.437 503.771 682.652C505.573 685.849 507.854 690.816 510.932 692.952L511.891 692.967C528.291 675.117 544.912 645.595 555.5 623.773C560.202 630.408 564.249 637.494 569.029 644.1C579.917 659.151 592.772 671.497 606.627 683.793C612.789 663.487 615.8 633.179 613.58 612.083C633.378 638.599 662.767 648.711 693.742 655.949C692.135 651.154 689.988 646.843 687.392 642.512C677.188 620.245 671.964 596.184 666.772 572.374Z"/>
	<path fill="#D69A35" transform="scale(0.820312 0.820312)" d="M498.708 853.497L498.208 850.405C499.184 850.411 498.638 850.273 499.542 850.969C501.545 852.511 504.221 852.265 505.78 854.383C507.485 854.783 509.376 854.639 510.98 855.245L511.492 857.151Q511.327 865.173 511.042 873.191C506.933 866.675 502.077 860.447 498.708 853.497Z"/>
	<defs>
		<linearGradient id="gradient_3" gradientUnits="userSpaceOnUse" x1="378.04404" y1="777.01105" x2="340.67551" y2="839.15509">
			<stop offset="0" stop-color="#C47E44"/>
			<stop offset="1" stop-color="#EFA958"/>
		</linearGradient>
	</defs>
	<path fill="url(#gradient_3)" transform="scale(0.820312 0.820312)" d="M313.257 736.13C314.554 740.312 321.381 744.474 324.965 746.954C339.503 757.012 355.621 765.389 370.783 774.518C389.757 785.943 408.532 798.342 428.116 808.665C432.423 810.936 437.182 812.966 441.045 815.921C441.657 816.389 442.315 816.809 442.828 817.388C436.591 822.719 429.904 827.629 423.496 832.762L389.371 860.493C385.563 851.94 383.326 842.151 380.572 833.179L365.102 783.178C358.838 786.308 352.875 790.141 346.812 793.652C331.969 802.246 316.906 811.266 301.585 818.963Q305.412 804.197 308.036 789.171Q310.66 774.145 312.064 758.956C312.728 751.386 312.731 743.725 313.257 736.13Z"/>
	<defs>
		<linearGradient id="gradient_4" gradientUnits="userSpaceOnUse" x1="432.59634" y1="674.21313" x2="371.88464" y2="775.18683">
			<stop offset="0" stop-color="#803C26"/>
			<stop offset="1" stop-color="#C57F44"/>
		</linearGradient>
	</defs>
	<path fill="url(#gradient_4)" transform="scale(0.820312 0.820312)" d="M281.194 609.583C291.096 613.512 300.623 618.406 310.441 622.562C310.4 641.457 309.797 660.674 310.923 679.537C325.139 679.486 339.574 678.991 353.688 677.141C364.721 675.694 375.7 673.179 386.807 672.396C389.74 687.415 393.242 702.499 396.887 717.365C398.946 725.765 401.478 734.129 402.948 742.654C413.491 735.394 424.236 728.249 434.315 720.355C445.682 711.452 455.803 701.256 468.548 694.183C477.275 709.346 485.739 724.574 495.36 739.208C500.458 746.963 506.551 754.003 511.551 761.817C512.427 773.14 512.014 784.717 512.015 796.074Q512.248 826.617 511.492 857.151L510.98 855.245C509.376 854.639 507.485 854.783 505.78 854.383C504.221 852.265 501.545 852.511 499.542 850.969C498.638 850.273 499.184 850.411 498.208 850.405L498.708 853.497C494.807 848.31 491.559 842.419 488.131 836.901C480.427 824.503 472.946 811.903 464.532 799.971C457.472 805.969 450.097 811.646 442.828 817.388C442.315 816.809 441.657 816.389 441.045 815.921C437.182 812.966 432.423 810.936 428.116 808.665C408.532 798.342 389.757 785.943 370.783 774.518C355.621 765.389 339.503 757.012 324.965 746.954C321.381 744.474 314.554 740.312 313.257 736.13C313.389 721.507 313.151 705.825 309.595 691.583C307.858 663.157 297.095 633.071 281.194 609.583Z"/>
	<path fill="#105080" transform="scale(0.820312 0.820312)" d="M666.772 572.374C694.303 591.567 711.545 598.195 744.641 602.923C740.612 608.007 736.904 613.122 733.732 618.799C724.567 635.198 712.909 666.511 710.812 685.165C690.4 681.524 671.327 674.032 651.271 669.307Q640.233 691.49 630.579 714.31C626.91 722.874 623.549 731.696 619.41 740.041C608.438 731.215 597.23 722.747 586.113 714.109C577.862 707.698 570.001 700.985 561.237 695.256Q545.888 717.166 529.811 738.547C523.874 746.338 517.121 753.802 511.551 761.817C506.551 754.003 500.458 746.963 495.36 739.208C485.739 724.574 477.275 709.346 468.548 694.183C455.803 701.256 445.682 711.452 434.315 720.355C424.236 728.249 413.491 735.394 402.948 742.654C401.478 734.129 398.946 725.765 396.887 717.365C393.242 702.499 389.74 687.415 386.807 672.396C375.7 673.179 364.721 675.694 353.688 677.141C339.574 678.991 325.139 679.486 310.923 679.537C309.797 660.674 310.4 641.457 310.441 622.562C300.623 618.406 291.096 613.512 281.194 609.583C280.375 609.323 279.588 608.817 278.893 608.309C276.328 606.433 275.075 604.417 274.638 601.286L276.736 601.599C278.671 601.574 280.615 601.114 282.517 600.771C298.437 597.388 314.355 593.251 329.467 587.137C336.333 584.359 342.695 580.451 349.658 577.903L350.461 577.614Q342.666 614.839 332.212 651.406C331.02 654.319 329.938 657.246 328.905 660.219C352.985 649.085 372.614 638.124 393.477 621.545C399.518 616.745 404.956 611.258 410.952 606.436C414.332 633.719 417.455 661.163 418.552 688.651C445.196 664.958 458.997 644.423 474.844 612.665C483.02 636.731 491.25 660.437 503.771 682.652C505.573 685.849 507.854 690.816 510.932 692.952L511.891 692.967C528.291 675.117 544.912 645.595 555.5 623.773C560.202 630.408 564.249 637.494 569.029 644.1C579.917 659.151 592.772 671.497 606.627 683.793C612.789 663.487 615.8 633.179 613.58 612.083C633.378 638.599 662.767 648.711 693.742 655.949C692.135 651.154 689.988 646.843 687.392 642.512C677.188 620.245 671.964 596.184 666.772 572.374Z"/>
	<path fill="#643220" transform="scale(0.820312 0.820312)" d="M260.206 607.516C264.885 604.983 269.41 602.461 274.638 601.286C275.075 604.417 276.328 606.433 278.893 608.309C279.588 608.817 280.375 609.323 281.194 609.583C297.095 633.071 307.858 663.157 309.595 691.583C309.559 691.763 309.52 691.944 309.486 692.125C308.569 697.054 308.695 702.392 308.469 707.403C308.052 716.677 307.672 725.912 306.431 735.121C298.967 790.503 278.225 835.359 246.234 880.769C232.827 871.141 220.278 859.533 207.69 848.852C187.619 830.079 167.085 808.757 151.623 786.005C152.624 778.873 152.809 771.679 153.987 764.528C156.642 748.407 161.604 732.807 166.446 717.242C178.709 681.406 200.43 646.775 231.405 624.253C240.483 617.652 250.183 612.503 260.206 607.516Z"/>
	<defs>
		<linearGradient id="gradient_5" gradientUnits="userSpaceOnUse" x1="308.45636" y1="765.30444" x2="208.09808" y2="714.96893">
			<stop offset="0" stop-color="#260F03"/>
			<stop offset="1" stop-color="#4B1E0D"/>
		</linearGradient>
	</defs>
	<path fill="url(#gradient_5)" transform="scale(0.820312 0.820312)" d="M260.206 607.516C264.885 604.983 269.41 602.461 274.638 601.286C275.075 604.417 276.328 606.433 278.893 608.309C279.588 608.817 280.375 609.323 281.194 609.583C297.095 633.071 307.858 663.157 309.595 691.583C309.559 691.763 309.52 691.944 309.486 692.125C308.569 697.054 308.695 702.392 308.469 707.403C308.052 716.677 307.672 725.912 306.431 735.121C298.967 790.503 278.225 835.359 246.234 880.769C232.827 871.141 220.278 859.533 207.69 848.852C211.486 844.003 221.747 837.487 226.814 832.252C231.811 827.089 236.281 821.311 240.829 815.753C249.664 804.955 258.32 794.033 266.104 782.44C277.735 765.116 290.741 741.688 293.9 720.899C296.182 705.886 294.41 689.284 291.743 674.402C290.98 670.14 290.226 665.796 289.031 661.631C288.097 658.376 286.651 655.019 286.04 651.706L285.902 650.923C280.796 634.899 273.136 618.67 260.206 607.516Z"/>
	<path fill="#9C5D2D" transform="scale(0.820312 0.820312)" d="M166.446 717.242C178.709 681.406 200.43 646.775 231.405 624.253C240.483 617.652 250.183 612.503 260.206 607.516C273.136 618.67 280.796 634.899 285.902 650.923L285.677 651.374C281.985 658.943 279.702 667.266 276.201 674.978C265.918 697.626 248.356 718.272 224.343 726.761C209.811 731.898 192.936 732.541 178.833 725.672C174.259 723.444 170.345 720.471 166.446 717.242Z"/>
	<path fill="#DBAD8C" transform="scale(0.820312 0.820312)" d="M246.846 631.631C250.073 631.252 253.642 631.043 256.633 632.604C258.06 633.348 259.022 634.676 259.411 636.213C260.807 641.736 256.713 649.206 253.896 653.83C242.455 672.612 222.13 693.798 200.133 699.192C197.07 700.006 192.589 700.236 189.826 698.338C188.187 697.211 187.314 695.731 186.976 693.784C185.611 685.921 190.941 676.519 195.233 670.326C207.129 653.163 225.58 635.39 246.846 631.631Z"/>
	<path fill="#3E1E0F" transform="scale(0.820312 0.820312)" d="M744.641 602.923C748.422 603.883 752.19 604.839 756.017 605.597C789.179 613.829 815.681 640.121 832.965 668.673C855.808 706.405 865.414 750.125 866.116 793.892C851.429 813.771 834.332 831.261 816.077 847.878C807.676 855.525 799.053 863.244 789.762 869.806C775.782 879.973 761.768 890.196 746.987 899.179Q741.299 902.601 735.513 905.855Q729.727 909.11 723.848 912.194Q717.969 915.278 712.003 918.189Q706.037 921.1 699.989 923.835Q693.94 926.57 687.814 929.128Q681.688 931.686 675.49 934.063Q669.292 936.44 663.027 938.636Q656.762 940.831 650.436 942.843Q644.109 944.854 637.727 946.68Q631.345 948.506 624.912 950.144Q618.479 951.783 612.001 953.233Q605.522 954.682 599.005 955.943Q592.487 957.203 585.935 958.272Q579.384 959.341 572.803 960.218Q566.223 961.095 559.62 961.78Q553.017 962.464 546.397 962.956C535.212 963.765 523.926 963.598 512.716 963.71C510.841 959.014 512.053 941.915 512.17 936.123C512.46 921.766 513.151 907.22 512.931 892.865C512.824 885.952 511.477 879.076 511.67 872.153C527.203 849.731 541.663 826.28 555.458 802.746C575.687 820.639 597.38 836.793 617.345 855.033C626.15 838.852 634.513 822.52 642.958 806.156C647.809 796.755 652.935 787.489 657.417 777.903C682.836 795.869 706.386 816.679 732.421 833.762C729.239 824.368 725.236 815.253 722.105 805.832C711.812 774.872 706.803 743.863 707.951 711.25C708.243 702.982 707.907 693.001 710.812 685.165C712.909 666.511 724.567 635.198 733.732 618.799C736.904 613.122 740.612 608.007 744.641 602.923Z"/>
	<path fill="#643220" transform="scale(0.820312 0.820312)" d="M756.017 605.597C789.179 613.829 815.681 640.121 832.965 668.673C855.808 706.405 865.414 750.125 866.116 793.892C851.429 813.771 834.332 831.261 816.077 847.878C807.676 855.525 799.053 863.244 789.762 869.806C786.764 861.911 774.828 850.567 769.189 843.177C762.642 834.596 756.814 825.691 751.837 816.106C747.812 808.354 743.868 800.543 740.767 792.365C723.646 747.212 721.618 694.213 737.025 648.328C740.05 639.321 744.083 630.62 748.313 622.12C750.869 616.985 754.225 611.508 755.891 606.036C755.935 605.891 755.975 605.743 756.017 605.597Z"/>
</svg>
