<?xml version="1.0" encoding="utf-8" ?>
<svg xmlns="http://www.w3.org/2000/svg" xmlns:xlink="http://www.w3.org/1999/xlink" width="840" height="840">
	<path fill="#FEFEFE" transform="scale(0.820312 0.820312)" d="M0 0L1024 0L1024 1024L0 1024L0 0Z"/>
	<path fill="#67B6D3" transform="scale(0.820312 0.820312)" d="M432.116 64.6448C471.233 57.295 526.385 54.9503 565.623 60.9248C553.532 60.3193 518.077 87.0391 508.288 95.9148Q501.141 102.464 494.505 109.529Q487.869 116.595 481.781 124.138L478.947 123.749C465.789 123.082 455.695 125.493 445.116 133.549C442.893 128.759 441.577 123.035 439.666 118.032C433.214 101.139 424.679 84.0016 412.641 70.3747C412.04 69.6945 412.118 69.6331 411.959 68.7892Q422.057 66.814 432.116 64.6448Z"/>
	<path fill="#1C94CD" transform="scale(0.820312 0.820312)" d="M432.116 64.6448C452.104 80.2421 466.316 102.159 478.947 123.749C465.789 123.082 455.695 125.493 445.116 133.549C442.893 128.759 441.577 123.035 439.666 118.032C433.214 101.139 424.679 84.0016 412.641 70.3747C412.04 69.6945 412.118 69.6331 411.959 68.7892Q422.057 66.814 432.116 64.6448Z"/>
	<path fill="#094984" transform="scale(0.820312 0.820312)" d="M85.2141 661.158L85.9811 660.937C97.8121 668.959 108.976 677.581 121.279 684.97Q127.369 688.559 133.583 691.93Q139.797 695.3 146.127 698.448Q152.456 701.596 158.893 704.517Q165.331 707.439 171.868 710.129Q178.405 712.82 185.033 715.277Q191.662 717.734 198.373 719.954Q205.085 722.174 211.871 724.154Q218.657 726.135 225.509 727.873C233.284 729.873 241.441 732.131 249.403 733.201Q251.537 764.202 254.394 795.146C255.41 806.443 255.408 819.494 258.966 830.246C260.535 834.985 263.396 838.905 267.13 842.17C269.596 844.327 272.763 845.976 275.075 848.155C280.203 853.441 286.672 860.381 292.909 864.301C302.458 873.489 312.59 882.142 322.509 890.928C332.02 899.352 341.371 907.954 350.947 916.303C360.393 924.538 370.702 932.691 379.462 941.605C380.642 942.806 381.324 943.651 381.842 945.25C381.924 945.501 382.01 945.751 382.095 946.002C355.369 939.453 326.181 926.557 301.851 913.766Q297.959 911.744 294.108 909.647Q290.257 907.549 286.448 905.375Q282.639 903.202 278.873 900.954Q275.108 898.707 271.387 896.385Q267.667 894.063 263.993 891.669Q260.319 889.275 256.692 886.808Q253.066 884.342 249.489 881.805Q245.912 879.268 242.386 876.66Q238.86 874.053 235.386 871.377Q231.911 868.701 228.491 865.957Q225.07 863.213 221.704 860.402Q218.337 857.591 215.027 854.714Q211.717 851.838 208.464 848.896Q205.212 845.955 202.017 842.95Q198.823 839.946 195.689 836.878Q192.554 833.811 189.481 830.683Q186.407 827.555 183.396 824.367Q180.385 821.178 177.437 817.932Q174.489 814.685 171.606 811.38Q168.722 808.076 165.905 804.716Q163.087 801.355 160.336 797.94Q157.585 794.525 154.902 791.056Q152.219 787.587 149.605 784.066Q146.99 780.545 144.446 776.973Q141.901 773.402 139.428 769.78Q136.954 766.159 134.552 762.49Q132.15 758.821 129.821 755.105Q127.492 751.389 125.237 747.628Q122.981 743.867 120.8 740.062Q118.619 736.258 116.514 732.411Q114.408 728.564 112.379 724.676Q110.349 720.789 108.397 716.862C99.493 698.976 91.1436 680.25 85.2141 661.158Z"/>
	<path fill="#67B6D3" transform="scale(0.820312 0.820312)" d="M173.263 209.466Q176.194 206.186 179.188 202.963Q182.182 199.74 185.237 196.575Q188.293 193.411 191.409 190.306Q194.525 187.201 197.7 184.156Q200.876 181.112 204.109 178.13Q207.343 175.147 210.634 172.228Q213.924 169.309 217.271 166.453Q220.617 163.598 224.018 160.808Q227.419 158.018 230.873 155.294Q234.327 152.57 237.833 149.913Q241.34 147.257 244.896 144.668Q248.453 142.08 252.059 139.56Q255.665 137.041 259.319 134.592Q262.973 132.143 266.674 129.764Q270.375 127.386 274.121 125.08Q277.867 122.774 281.656 120.54Q285.446 118.307 289.278 116.147Q293.111 113.987 296.984 111.901Q300.857 109.816 304.77 107.805Q308.682 105.795 312.633 103.861Q316.584 101.926 320.571 100.069Q324.559 98.2109 328.581 96.4305Q332.604 94.6501 336.66 92.9478Q340.716 91.2454 344.805 89.6217Q348.893 87.998 353.012 86.4535Q357.131 84.909 361.279 83.4444Q365.427 81.9798 369.602 80.5955Q373.778 79.2113 377.979 77.9079Q382.181 76.6045 386.407 75.3825Q390.633 74.1605 394.881 73.0204Q399.13 71.8802 403.4 70.8223Q407.669 69.7644 411.959 68.7892C412.118 69.6331 412.04 69.6945 412.641 70.3747C424.679 84.0016 433.214 101.139 439.666 118.032C441.577 123.035 442.893 128.759 445.116 133.549C436.387 142.316 431.453 152.382 431.468 164.939C431.475 170.489 432.474 176.244 434.198 181.514L374.295 185.024C364.087 185.61 353.595 185.697 343.462 186.92L344.084 200.339Q309.13 202.281 274.21 204.762C262.762 205.542 246.678 205.408 235.931 208.453C230.343 210.035 225.738 212.982 221.863 217.267C215.762 224.014 211.97 233.028 212.182 242.174C199.052 235.344 182.588 220.768 173.263 209.466Z"/>
	<path fill="#67B6D3" transform="scale(0.820312 0.820312)" d="M173.263 209.466C182.588 220.768 199.052 235.344 212.182 242.174C213.718 249.833 213.708 258.587 214.294 266.402L218.015 316.027L221.437 364.494C222.102 373.8 222.452 383.264 223.501 392.53C223.831 402.387 224.9 412.282 225.649 422.118C227.388 444.969 229.411 467.902 230.727 490.772C224.439 489.882 217.37 486.639 211.39 484.478C191.424 477.263 171.928 468.634 151.861 461.737L151.66 461.418C122.978 449.659 95.1161 435.995 69.5635 418.349C80.3492 367.155 96.2473 325.143 122.121 279.581C137.446 254.687 153.625 231.164 173.263 209.466Z"/>
	<path fill="#AFD0D6" transform="scale(0.820312 0.820312)" d="M223.501 392.53C223.831 402.387 224.9 412.282 225.649 422.118C227.388 444.969 229.411 467.902 230.727 490.772C224.439 489.882 217.37 486.639 211.39 484.478C191.424 477.263 171.928 468.634 151.861 461.737L151.66 461.418C152.512 444.013 158.932 427.127 171.043 414.469C184.929 399.955 203.637 392.998 223.501 392.53Z"/>
	<path fill="#1C94CD" transform="scale(0.820312 0.820312)" d="M173.263 209.466C182.588 220.768 199.052 235.344 212.182 242.174C213.718 249.833 213.708 258.587 214.294 266.402L218.015 316.027C213.491 315.692 208.456 314.191 204.044 313.059Q196.16 311.025 188.39 308.59Q180.62 306.156 172.985 303.328Q165.35 300.5 157.869 297.285Q150.388 294.071 143.081 290.478C136.221 287.103 129.311 282.007 122.121 279.581C137.446 254.687 153.625 231.164 173.263 209.466Z"/>
	<path fill="#094984" transform="scale(0.820312 0.820312)" d="M565.623 60.9248C585.115 62.9316 604.946 66.8611 623.941 71.6148C631.327 73.4635 638.63 76.0195 646.033 77.6879Q649.935 78.9175 653.815 80.2178Q657.694 81.5181 661.549 82.8886Q665.404 84.2591 669.233 85.6994Q673.063 87.1396 676.865 88.6491Q680.668 90.1587 684.443 91.737Q688.218 93.3153 691.963 94.9619Q695.708 96.6084 699.423 98.3227Q703.138 100.037 706.821 101.818Q710.505 103.6 714.155 105.448Q717.805 107.296 721.421 109.21Q725.037 111.124 728.618 113.103Q732.199 115.082 735.743 117.126Q739.287 119.17 742.794 121.278Q746.3 123.386 749.768 125.558Q753.236 127.729 756.663 129.963Q760.091 132.197 763.478 134.492Q766.864 136.788 770.208 139.145Q773.553 141.502 776.854 143.919Q780.155 146.336 783.412 148.813Q786.668 151.289 789.879 153.825Q793.09 156.36 796.255 158.953Q799.419 161.547 802.536 164.197Q805.653 166.847 808.722 169.554Q811.79 172.26 814.809 175.022Q817.828 177.783 820.796 180.599Q823.764 183.415 826.68 186.285Q829.596 189.154 832.46 192.076Q835.324 194.998 838.135 197.971Q840.945 200.945 843.701 203.969Q846.457 206.993 849.157 210.066Q851.858 213.14 854.502 216.262Q857.147 219.384 859.734 222.553C872.395 237.819 889.766 261.038 898.891 278.407C896.171 278.048 872.495 262.097 867.902 259.667C836.748 243.19 797.983 228.841 762.584 226.184L761.612 225.298C754.759 218.597 747.678 212.098 740.744 205.475C735.379 200.202 729.781 195.106 724.146 190.122C722.72 188.554 721.291 186.989 719.672 185.617C715.955 182.465 712.075 180.419 707.226 179.621C697.379 178.003 681.579 180.254 671.016 180.928C657.511 181.791 643.98 182.362 630.488 183.397C617.194 184.297 603.857 184.851 590.576 185.821C590.921 191.161 591.518 196.604 591.501 201.95C564.2 203.893 536.671 204.873 509.432 207.387C507.646 198.168 509.192 188.258 507.137 179.032C505.741 178.252 504.482 178.426 502.917 178.398C505.654 177.852 508.769 178.145 511.572 178.051L516.706 177.856C518.51 169.265 518.527 162.396 517.477 153.729C516.63 150.789 515.625 147.987 514.241 145.251C510.137 137.14 504.067 131.488 495.37 128.675C490.874 126.491 486.711 125.007 481.781 124.138Q487.869 116.595 494.505 109.529Q501.141 102.464 508.288 95.9148C518.077 87.0391 553.532 60.3193 565.623 60.9248Z"/>
	<path fill="#D19F5A" transform="scale(0.820312 0.820312)" d="M516.706 177.856C541.124 176.367 565.593 175.296 589.985 173.441C590.245 177.562 590.567 181.69 590.576 185.821C590.921 191.161 591.518 196.604 591.501 201.95C564.2 203.893 536.671 204.873 509.432 207.387C507.646 198.168 509.192 188.258 507.137 179.032C505.741 178.252 504.482 178.426 502.917 178.398C505.654 177.852 508.769 178.145 511.572 178.051L516.706 177.856Z"/>
	<path fill="#1C94CD" transform="scale(0.820312 0.820312)" d="M565.623 60.9248C585.115 62.9316 604.946 66.8611 623.941 71.6148C631.327 73.4635 638.63 76.0195 646.033 77.6879L645.585 77.7988C636.155 80.0599 626.418 80.8934 616.971 83.3174C584.017 91.7738 553.844 108.598 531.532 134.582C526.301 140.674 522.214 147.302 517.477 153.729C516.63 150.789 515.625 147.987 514.241 145.251C510.137 137.14 504.067 131.488 495.37 128.675C490.874 126.491 486.711 125.007 481.781 124.138Q487.869 116.595 494.505 109.529Q501.141 102.464 508.288 95.9148C518.077 87.0391 553.532 60.3193 565.623 60.9248Z"/>
	<path fill="#1C94CD" transform="scale(0.820312 0.820312)" d="M69.5635 418.349C95.1161 435.995 122.978 449.659 151.66 461.418L151.861 461.737C171.928 468.634 191.424 477.263 211.39 484.478C217.37 486.639 224.439 489.882 230.727 490.772C231.991 503.435 232.572 516.165 233.605 528.849C237.252 566.891 239.224 605.164 242.265 643.268C243.119 652.962 244.405 662.976 244.578 672.698C246.578 692.805 247.038 713.14 249.403 733.201C241.441 732.131 233.284 729.873 225.509 727.873Q218.657 726.135 211.871 724.154Q205.085 722.174 198.373 719.954Q191.662 717.734 185.033 715.277Q178.405 712.82 171.868 710.129Q165.331 707.438 158.893 704.517Q152.456 701.596 146.127 698.448Q139.797 695.3 133.583 691.93Q127.369 688.559 121.279 684.97C108.976 677.581 97.8121 668.959 85.9811 660.937L85.2141 661.158C82.4475 654.918 80.6423 647.731 78.7784 641.16Q70.7779 613.089 66.1029 584.278C63.9024 575.184 62.9166 557.646 62.3252 547.83C60.8965 543.829 61.3416 535.23 61.2119 530.833Q60.6865 516.711 60.9473 502.581Q61.2082 488.452 62.2546 474.358Q63.3009 460.265 65.1296 446.252Q66.9582 432.239 69.5635 418.349Z"/>
	<path fill="#67B6D3" transform="scale(0.820312 0.820312)" d="M151.861 461.737C171.928 468.634 191.424 477.263 211.39 484.478C217.37 486.639 224.439 489.882 230.727 490.772C231.991 503.435 232.572 516.165 233.605 528.849C231.286 529.031 228.958 529.216 226.632 529.279Q224.781 529.322 222.93 529.273Q221.079 529.224 219.232 529.084Q217.386 528.944 215.548 528.712Q213.711 528.48 211.888 528.158Q210.064 527.836 208.259 527.423Q206.454 527.011 204.671 526.51Q202.889 526.009 201.133 525.42Q199.377 524.831 197.653 524.156Q195.929 523.48 194.24 522.721Q192.551 521.961 190.902 521.119Q189.253 520.276 187.648 519.353Q186.043 518.43 184.485 517.428Q182.928 516.427 181.422 515.35Q179.916 514.272 178.465 513.122Q177.014 511.971 175.622 510.75Q174.23 509.529 172.9 508.24C159.699 495.599 152.294 480.076 151.861 461.737Z"/>
	<path fill="#0C65A6" transform="scale(0.820312 0.820312)" d="M62.3252 547.83L63.0057 547.238C65.5736 548.274 92.293 572.978 98.1591 577.556C130.507 602.798 169.354 623.589 208.713 635.289C219.849 638.599 231.054 640.491 242.265 643.268C243.119 652.962 244.405 662.976 244.578 672.698C233.649 671.428 223.092 668.605 212.541 665.569Q205.081 663.442 197.716 661.006Q190.35 658.57 183.093 655.829Q175.836 653.089 168.699 650.048Q161.562 647.008 154.557 643.673Q147.553 640.339 140.694 636.715Q133.834 633.092 127.132 629.186Q120.429 625.28 113.895 621.099Q107.361 616.918 101.006 612.468Q89.5102 604.251 78.6806 595.175C74.5853 591.694 70.743 587.82 66.4752 584.558L66.1029 584.278C63.9024 575.184 62.9166 557.646 62.3252 547.83Z"/>
	<path fill="#67B6D3" transform="scale(0.820312 0.820312)" d="M66.1029 584.278L66.4752 584.558C70.743 587.82 74.5853 591.694 78.6806 595.175Q89.5102 604.251 101.006 612.468Q107.361 616.918 113.895 621.099Q120.429 625.28 127.132 629.186Q133.834 633.092 140.694 636.715Q147.553 640.339 154.557 643.673Q161.562 647.008 168.699 650.048Q175.836 653.089 183.093 655.829Q190.35 658.57 197.716 661.006Q205.081 663.442 212.541 665.569C223.092 668.605 233.649 671.428 244.578 672.698C246.578 692.805 247.038 713.14 249.403 733.201C241.441 732.131 233.284 729.873 225.509 727.873Q218.657 726.135 211.871 724.154Q205.085 722.174 198.373 719.954Q191.662 717.734 185.033 715.277Q178.405 712.82 171.868 710.129Q165.331 707.438 158.893 704.517Q152.456 701.596 146.127 698.448Q139.797 695.3 133.583 691.93Q127.369 688.559 121.279 684.97C108.976 677.581 97.8121 668.959 85.9811 660.937L85.2141 661.158C82.4475 654.918 80.6423 647.731 78.7784 641.16Q70.7779 613.089 66.1029 584.278Z"/>
	<path fill="#042C54" transform="scale(0.820312 0.820312)" d="M761.612 225.298L762.584 226.184C797.983 228.841 836.748 243.19 867.902 259.667C872.495 262.097 896.171 278.048 898.891 278.407C912.679 299.867 923.833 325.217 933.048 348.944C936.364 357.484 939.922 366.156 942.242 375.031C946.319 386.412 949.288 398.572 952.172 410.317Q953.413 415.821 954.52 421.354Q955.627 426.887 956.598 432.446Q957.569 438.004 958.405 443.585Q959.24 449.165 959.939 454.764Q960.638 460.363 961.2 465.978Q961.762 471.592 962.187 477.219Q962.612 482.845 962.9 488.481Q963.187 494.116 963.337 499.756Q963.487 505.397 963.499 511.04Q963.512 516.682 963.386 522.323Q963.261 527.965 962.998 533.601Q962.735 539.238 962.334 544.866Q961.934 550.494 961.396 556.111Q960.858 561.728 960.183 567.33Q959.509 572.932 958.698 578.516Q957.886 584.1 956.939 589.663Q955.992 595.225 954.91 600.763Q953.827 606.301 952.609 611.811Q951.392 617.32 950.041 622.799Q948.689 628.277 947.204 633.721Q945.719 639.164 944.102 644.57Q942.485 649.976 940.737 655.341Q938.988 660.706 937.109 666.026Q935.23 671.347 933.222 676.62Q931.213 681.893 929.077 687.116Q926.941 692.338 924.677 697.507Q922.414 702.676 920.026 707.788Q917.637 712.9 915.124 717.952Q912.612 723.005 909.977 727.994Q907.341 732.983 904.585 737.907Q901.829 742.831 898.954 747.686Q896.078 752.541 893.085 757.324Q883.047 773.107 871.715 787.988Q860.384 802.869 847.838 816.742L845.37 819.533Q841.002 824.394 836.487 829.119Q831.972 833.845 827.316 838.431Q822.659 843.016 817.865 847.458Q813.071 851.9 808.144 856.193Q803.217 860.487 798.161 864.628Q793.105 868.769 787.926 872.754Q782.746 876.74 777.447 880.565Q772.149 884.391 766.736 888.053Q761.323 891.716 755.801 895.211Q750.279 898.707 744.653 902.033Q739.027 905.358 733.303 908.511Q727.578 911.664 721.76 914.641Q715.942 917.617 710.036 920.415Q704.13 923.213 698.141 925.83Q692.152 928.447 686.087 930.88Q680.021 933.313 673.884 935.56C666.003 938.436 650.093 945.06 642.527 945.837C631.338 950.28 611.825 953.974 599.557 956.313Q592.816 957.638 586.037 958.758Q579.259 959.879 572.45 960.795Q565.641 961.711 558.807 962.42Q551.974 963.13 545.122 963.634Q538.27 964.137 531.406 964.433Q524.542 964.73 517.672 964.819Q510.802 964.908 503.933 964.79Q497.063 964.672 490.201 964.346Q483.338 964.021 476.488 963.489Q469.639 962.956 462.808 962.217Q455.977 961.479 449.172 960.534Q442.367 959.59 435.594 958.44Q428.82 957.291 422.084 955.938Q415.349 954.584 408.657 953.029Q401.965 951.473 395.323 949.716Q388.681 947.959 382.095 946.002C382.01 945.751 381.924 945.501 381.842 945.25C381.324 943.651 380.642 942.806 379.462 941.605C370.702 932.691 360.393 924.538 350.947 916.303C341.371 907.954 332.02 899.352 322.509 890.928C312.59 882.142 302.458 873.489 292.909 864.301C297.68 864.667 302.332 865.591 307.156 865.749C316.239 866.046 325.636 865.149 334.711 864.645L384.504 861.698L537.653 853.778Q559.131 852.521 580.586 850.934C588.288 850.39 596.227 849.443 603.937 849.534C617.497 847.943 631.523 847.788 645.174 846.983Q681.203 844.84 717.202 842.249C731.282 841.33 745.528 840.935 759.558 839.456C769.351 838.423 777.467 835.953 783.822 827.998C787.326 823.611 789.692 818.409 789.866 812.74C790.178 802.597 788.854 792.13 788.162 781.998Q786.171 751.377 783.762 720.786Q777.266 620.001 767.317 519.498L749.613 312.806C747.351 286.042 745.65 259.109 742.786 232.41C745.034 230.351 758.199 225.817 761.612 225.298Z"/>
	<path fill="#9C4A22" transform="scale(0.820312 0.820312)" d="M764.845 323.799C763.895 321.739 763.637 319.61 763.315 317.387C762.6 312.44 762.114 306.77 765.43 302.591C768.93 298.181 773.716 297.702 778.903 296.995C779.409 305.031 780.147 313.053 780.489 321.097C775.632 321.646 769.261 321.714 764.845 323.799Z"/>
	<path fill="#6FA7CE" transform="scale(0.820312 0.820312)" d="M780.489 321.097C780.981 325.973 780.869 331.528 782.37 336.183L782.101 336.347C782.346 338.55 782.839 340.968 782.425 343.156L781.474 343.985C776.013 344.187 770.525 344.957 765.114 345.708C764.963 343.783 764.582 341.874 764.26 339.971C763.499 336.007 762.952 331.978 762.289 327.994C763.211 326.618 764.065 325.26 764.845 323.799C769.261 321.714 775.632 321.646 780.489 321.097Z"/>
	<path fill="#2A6868" transform="scale(0.820312 0.820312)" d="M764.26 339.971C769.864 337.387 776.003 336.753 782.101 336.347C782.346 338.55 782.839 340.968 782.425 343.156L781.474 343.985C776.013 344.187 770.525 344.957 765.114 345.708C764.963 343.783 764.582 341.874 764.26 339.971Z"/>
	<path fill="#001632" transform="scale(0.820312 0.820312)" d="M814.29 302.522C815.628 302.378 815.793 302.796 816.816 303.616C820.25 306.365 822.621 310.399 823.074 314.799C823.436 318.311 823.069 322.092 823.772 325.544C824.438 328.818 826.304 331.784 827.135 335.015C828.371 339.822 830.114 357.02 828.489 361.323C828.131 362.271 833.035 411.282 833.723 416.673C832.562 419.285 828.434 421.437 826.039 422.909C824.57 411.578 823.851 400.095 822.637 388.723C821.453 377.632 819.693 366.344 819.129 355.222C819.364 355.161 819.606 355.12 819.835 355.038C820.489 354.804 820.955 354.647 821.182 353.965C822.189 350.945 821.086 344.049 819.841 341.164C818.615 339.577 818.686 338.309 818.831 336.408L819.786 335.669C820.294 331.353 819.413 326.519 819.014 322.188C817.778 321.015 816.737 319.915 815.756 318.519C815.515 313.173 814.852 307.842 814.29 302.522Z"/>
	<path fill="#E08F1E" transform="scale(0.820312 0.820312)" d="M797.425 295.505C801.759 295.09 807.348 293.988 811.014 297.031C812.83 298.538 813.507 300.366 814.29 302.522C814.852 307.842 815.515 313.173 815.756 318.519C810.482 317.254 804.438 318.787 799.069 319.047L800.361 334.413L799.088 334.766Q790.735 335.547 782.37 336.183C780.869 331.528 780.981 325.973 780.489 321.097C780.147 313.053 779.409 305.031 778.903 296.995C785.021 296.956 791.279 295.822 797.425 295.505Z"/>
	<path fill="#67B6D3" transform="scale(0.820312 0.820312)" d="M799.069 319.047L800.361 334.413L799.088 334.766Q790.735 335.547 782.37 336.183C780.869 331.528 780.981 325.973 780.489 321.097Q789.767 319.964 799.069 319.047Z"/>
	<path fill="#D19F5A" transform="scale(0.820312 0.820312)" d="M797.425 295.505C801.759 295.09 807.348 293.988 811.014 297.031C812.83 298.538 813.507 300.366 814.29 302.522C814.852 307.842 815.515 313.173 815.756 318.519C810.482 317.254 804.438 318.787 799.069 319.047C798.173 311.297 797.69 303.299 797.425 295.505Z"/>
	<path fill="#AFD0D6" transform="scale(0.820312 0.820312)" d="M799.069 319.047C804.438 318.787 810.482 317.254 815.756 318.519C816.737 319.915 817.778 321.015 819.014 322.188C819.413 326.519 820.294 331.353 819.786 335.669L818.831 336.408C818.686 338.309 818.615 339.577 819.841 341.164C821.086 344.049 822.189 350.945 821.182 353.965C820.955 354.647 820.489 354.804 819.835 355.038C819.606 355.12 819.364 355.161 819.129 355.222C814.219 354.501 808.46 355.734 803.474 356.144L803.326 356.421Q793.797 357.187 784.303 358.313L782.879 343.736L781.474 343.985L782.425 343.156C782.839 340.968 782.346 338.55 782.101 336.347L782.37 336.183Q790.735 335.547 799.088 334.766L800.361 334.413L799.069 319.047Z"/>
	<path fill="#6FA7CE" transform="scale(0.820312 0.820312)" d="M800.361 334.413C800.541 334.418 800.722 334.425 800.902 334.428C806.824 334.523 814.942 331.553 819.786 335.669L818.831 336.408C818.686 338.309 818.615 339.577 819.841 341.164C814.232 340.416 807.085 341.392 801.46 342.054L801.097 341.955C801.023 339.648 801.164 337.127 800.169 335.011L799.088 334.766L800.361 334.413Z"/>
	<path fill="#AFD0D6" transform="scale(0.820312 0.820312)" d="M801.46 342.054C807.085 341.392 814.232 340.416 819.841 341.164C821.086 344.049 822.189 350.945 821.182 353.965C820.955 354.647 820.489 354.804 819.835 355.038C819.606 355.12 819.364 355.161 819.129 355.222C814.219 354.501 808.46 355.734 803.474 356.144C802.077 351.737 801.923 346.643 801.46 342.054Z"/>
	<path fill="#67B6D3" transform="scale(0.820312 0.820312)" d="M799.088 334.766L800.169 335.011C801.164 337.127 801.023 339.648 801.097 341.955L801.46 342.054C801.923 346.643 802.077 351.737 803.474 356.144L803.326 356.421Q793.797 357.187 784.303 358.313L782.879 343.736L781.474 343.985L782.425 343.156C782.839 340.968 782.346 338.55 782.101 336.347L782.37 336.183Q790.735 335.547 799.088 334.766Z"/>
	<path fill="#1C94CD" transform="scale(0.820312 0.820312)" d="M799.088 334.766L800.169 335.011C801.164 337.127 801.023 339.648 801.097 341.955C795.028 342.526 788.93 343.007 782.879 343.736L781.474 343.985L782.425 343.156C782.839 340.968 782.346 338.55 782.101 336.347L782.37 336.183Q790.735 335.547 799.088 334.766Z"/>
	<path fill="#6FA7CE" transform="scale(0.820312 0.820312)" d="M833.53 294.102C837.38 293.885 842.383 296.731 845.805 298.352C868.127 308.931 889.18 323.682 907.576 340.123Q918.914 350.129 929.134 361.274C932.85 365.338 936.418 370.357 940.488 373.994C941.04 374.488 941.58 374.724 942.242 375.031C946.319 386.412 949.288 398.572 952.172 410.317C947.423 406.138 943.034 401.276 938.558 396.791L911.06 369.245Q872.712 331.243 833.53 294.102Z"/>
	<path fill="#001632" transform="scale(0.820312 0.820312)" d="M834.294 504.374C836.783 503.713 840.252 506.164 842.696 507.063L843.359 507.384L857.082 663.479Q859.727 690.455 861.616 717.495C862.26 725.588 863.54 734.047 863.463 742.153C863.373 751.638 855.443 781.888 852.541 792.028C850.685 798.512 848.081 805.355 847.21 812.031C846.98 813.792 847.293 815.073 847.838 816.742L845.37 819.533C843.757 817.916 842.571 816.018 841.421 814.059C840.657 812.759 839.622 811.23 840.008 809.726L839.854 809.515C837.232 805.985 836.011 801.68 833.79 797.897C831.459 795.945 829.556 788.295 828.564 785.289C825.602 780.96 823.278 773.242 821.161 768.298C816.491 757.389 811.642 746.442 806.194 735.899C808.723 735.963 811.157 735.647 813.658 735.333C815.018 734.455 816.208 733.407 817.434 732.356C818.168 731.096 819.188 729.868 820.039 728.676C823.999 731.648 828.483 735.231 833.775 734.412C834.015 734.375 834.254 734.328 834.494 734.286C836.622 732.175 838.648 730.179 840.308 727.665C843.496 730.056 846.609 732.138 850.175 733.938Q852.938 732.196 855.643 730.367C854.142 722.467 853.818 713.974 853.027 705.954Q850.368 678.797 848.027 651.61Q840.366 578.066 834.294 504.374Z"/>
	<path fill="#F3B222" transform="scale(0.820312 0.820312)" d="M842.457 796.41C841.776 800.885 841.137 805.336 840.008 809.726L839.854 809.515C837.232 805.985 836.011 801.68 833.79 797.897C836.641 797.237 839.566 796.863 842.457 796.41Z"/>
	<path transform="scale(0.820312 0.820312)" d="M839.392 783.256L844.176 782.778C845.041 783.932 844.641 784.857 844.428 786.253C843.909 789.654 843.099 793.03 842.457 796.41C839.566 796.863 836.641 797.237 833.79 797.897C831.459 795.945 829.556 788.295 828.564 785.289L833.356 784.274Q836.379 783.793 839.392 783.256Z"/>
	<path fill="#F0D599" transform="scale(0.820312 0.820312)" d="M840.308 727.665C843.496 730.056 846.609 732.138 850.175 733.938Q852.938 732.196 855.643 730.367C854.547 735.9 845.917 781.42 844.176 782.778L839.392 783.256L838.574 782.892C837.136 780.22 835.446 741.264 834.494 734.286C836.622 732.175 838.648 730.179 840.308 727.665Z"/>
	<path fill="#D19F5A" transform="scale(0.820312 0.820312)" d="M820.039 728.676C823.999 731.648 828.483 735.231 833.775 734.412C834.015 734.375 834.254 734.328 834.494 734.286C835.446 741.264 837.136 780.22 838.574 782.892L839.392 783.256Q836.379 783.793 833.356 784.274L828.564 785.289C825.602 780.96 823.278 773.242 821.161 768.298C816.491 757.389 811.642 746.442 806.194 735.899C808.723 735.963 811.157 735.647 813.658 735.333C815.018 734.455 816.208 733.407 817.434 732.356C818.168 731.096 819.188 729.868 820.039 728.676Z"/>
	<path fill="#A8723E" transform="scale(0.820312 0.820312)" d="M813.658 735.333C815.018 734.455 816.208 733.407 817.434 732.356C819.45 739.228 830.821 781.741 833.356 784.274L828.564 785.289C825.602 780.96 823.278 773.242 821.161 768.298C816.491 757.389 811.642 746.442 806.194 735.899C808.723 735.963 811.157 735.647 813.658 735.333Z"/>
	<path fill="#1C94CD" transform="scale(0.820312 0.820312)" d="M762.584 226.184C797.983 228.841 836.748 243.19 867.902 259.667C872.495 262.097 896.171 278.048 898.891 278.407C912.679 299.867 923.833 325.217 933.048 348.944C936.364 357.484 939.922 366.156 942.242 375.031C941.58 374.724 941.04 374.488 940.488 373.994C936.418 370.357 932.85 365.338 929.134 361.274Q918.913 350.129 907.576 340.123C889.18 323.682 868.127 308.931 845.805 298.352C842.383 296.731 837.38 293.885 833.53 294.102C825.38 287.199 817.908 278.947 810.13 271.573C794.238 256.508 778.084 241.653 762.584 226.184Z"/>
	<path fill="#9C4A22" transform="scale(0.820312 0.820312)" d="M781.474 343.985L782.879 343.736L784.303 358.313L807.292 598.691Q812.089 644.847 816.282 691.061C817.467 703.563 819.273 716.162 820.039 728.676C819.188 729.868 818.168 731.096 817.434 732.356C816.208 733.407 815.018 734.455 813.658 735.333C811.157 735.647 808.723 735.963 806.194 735.899C804.168 732.555 803.461 728.852 802.945 725.041C800.577 707.567 799.566 689.811 797.756 672.265L783.584 526.197L772.147 408.795C770.604 392.575 768.273 376.271 767.395 360.007C764.32 355.556 764.335 350.824 765.114 345.708C770.525 344.957 776.013 344.187 781.474 343.985Z"/>
	<path fill="#6FA7CE" transform="scale(0.820312 0.820312)" d="M781.474 343.985L782.879 343.736L784.303 358.313C778.721 358.993 773.021 359.936 767.395 360.007C764.32 355.556 764.335 350.824 765.114 345.708C770.525 344.957 776.013 344.187 781.474 343.985Z"/>
	<path fill="#2A6868" transform="scale(0.820312 0.820312)" d="M833.965 416.966C848.872 409.927 862.416 407.409 878.39 413.061Q879.578 413.471 880.744 413.938Q881.909 414.406 883.051 414.931Q884.192 415.456 885.306 416.037Q886.42 416.618 887.504 417.253Q888.588 417.888 889.639 418.576Q890.69 419.264 891.706 420.003Q892.721 420.743 893.699 421.531Q894.677 422.32 895.615 423.156Q896.553 423.992 897.448 424.873Q898.343 425.754 899.194 426.679Q900.044 427.603 900.848 428.569Q901.652 429.534 902.407 430.539Q903.162 431.543 903.866 432.583Q904.571 433.623 905.223 434.697Q905.875 435.771 906.473 436.875Q907.071 437.98 907.614 439.113Q908.137 440.205 908.606 441.321Q909.074 442.437 909.487 443.575Q909.901 444.713 910.257 445.87Q910.613 447.026 910.912 448.2Q911.211 449.373 911.451 450.559Q911.692 451.745 911.874 452.942Q912.055 454.139 912.178 455.343Q912.3 456.548 912.363 457.757Q912.426 458.965 912.429 460.176Q912.432 461.387 912.375 462.596Q912.319 463.805 912.202 465.01Q912.086 466.215 911.91 467.413Q911.735 468.61 911.5 469.798Q911.266 470.985 910.973 472.16Q910.68 473.335 910.33 474.493Q909.979 475.652 909.572 476.792C904.823 489.806 895.12 499.522 882.621 505.226C870.94 510.557 855.931 512.482 843.727 507.551C843.602 507.501 843.482 507.44 843.359 507.384L842.696 507.063C840.252 506.164 836.783 503.713 834.294 504.374C833.047 495.957 832.703 487.252 831.862 478.776L826.039 422.909C828.434 421.437 832.562 419.285 833.723 416.673L833.965 416.966Z"/>
	<path fill="#0C3136" transform="scale(0.820312 0.820312)" d="M833.723 416.673L833.965 416.966C834.472 431.417 836.466 446.051 837.878 460.454C839.395 475.938 840.428 491.684 842.696 507.063C840.252 506.164 836.783 503.713 834.294 504.374C833.047 495.957 832.703 487.252 831.862 478.776L826.039 422.909C828.434 421.437 832.562 419.285 833.723 416.673Z"/>
	<path fill="#C5651C" transform="scale(0.820312 0.820312)" d="M803.474 356.144C808.46 355.734 814.219 354.501 819.129 355.222C819.693 366.344 821.453 377.632 822.637 388.723C823.851 400.095 824.57 411.578 826.039 422.909L831.862 478.776C832.703 487.252 833.047 495.957 834.294 504.374Q840.366 578.066 848.027 651.61Q850.368 678.797 853.027 705.954C853.818 713.974 854.142 722.467 855.643 730.367Q852.938 732.196 850.175 733.938C846.609 732.138 843.496 730.056 840.308 727.665C838.648 730.179 836.622 732.175 834.494 734.286C834.254 734.328 834.015 734.375 833.775 734.412C828.483 735.231 823.999 731.648 820.039 728.676C819.273 716.162 817.467 703.563 816.282 691.061Q812.089 644.847 807.292 598.691L784.303 358.313Q793.797 357.187 803.326 356.421L803.474 356.144Z"/>
	<path fill="#E08F1E" transform="scale(0.820312 0.820312)" d="M803.474 356.144C808.46 355.734 814.219 354.501 819.129 355.222C819.693 366.344 821.453 377.632 822.637 388.723C823.851 400.095 824.57 411.578 826.039 422.909L831.862 478.776C832.703 487.252 833.047 495.957 834.294 504.374Q840.366 578.066 848.027 651.61Q850.368 678.797 853.027 705.954C853.818 713.974 854.142 722.467 855.643 730.367Q852.938 732.196 850.175 733.938C846.609 732.138 843.496 730.056 840.308 727.665C838.357 718.395 837.706 708.588 836.688 699.172C834.249 676.628 832.725 654.029 830.502 631.469Q821.153 541.346 813.218 451.087Q810.107 418.706 806.624 386.363C805.551 376.399 804.751 366.339 803.326 356.421L803.474 356.144Z"/>
	<defs>
		<linearGradient id="gradient_0" gradientUnits="userSpaceOnUse" x1="448.26166" y1="811.74567" x2="521.49896" y2="208.11671">
			<stop offset="0" stop-color="#C3E4F6"/>
			<stop offset="1" stop-color="white"/>
		</linearGradient>
	</defs>
	<path fill="url(#gradient_0)" transform="scale(0.820312 0.820312)" d="M445.116 133.549C455.695 125.493 465.789 123.082 478.947 123.749L481.781 124.138C486.711 125.007 490.874 126.491 495.37 128.675C504.067 131.488 510.137 137.14 514.241 145.251C515.625 147.987 516.63 150.789 517.477 153.729C518.527 162.396 518.51 169.265 516.706 177.856L511.572 178.051C508.769 178.145 505.654 177.852 502.917 178.398C504.482 178.426 505.741 178.252 507.137 179.032C509.192 188.258 507.646 198.168 509.432 207.387C536.671 204.873 564.2 203.893 591.501 201.95C591.518 196.604 590.921 191.161 590.576 185.821C603.857 184.851 617.194 184.297 630.488 183.397C643.98 182.362 657.511 181.791 671.016 180.928C681.579 180.254 697.379 178.003 707.226 179.621C712.075 180.419 715.955 182.465 719.672 185.617C721.291 186.989 722.72 188.554 724.146 190.122C729.781 195.106 735.379 200.202 740.744 205.475C747.678 212.098 754.759 218.597 761.612 225.298C758.199 225.817 745.034 230.351 742.786 232.41C745.65 259.109 747.351 286.042 749.613 312.806L767.317 519.498Q777.266 620.001 783.762 720.786Q786.171 751.377 788.162 781.998C788.854 792.13 790.178 802.597 789.866 812.74C789.692 818.409 787.326 823.611 783.822 827.998C777.467 835.953 769.351 838.423 759.558 839.456C745.528 840.935 731.282 841.33 717.202 842.249Q681.203 844.84 645.174 846.983C631.523 847.788 617.497 847.943 603.937 849.534C596.227 849.443 588.288 850.39 580.586 850.934Q559.131 852.521 537.653 853.778L384.504 861.698L334.711 864.645C325.636 865.149 316.239 866.046 307.156 865.749C302.332 865.591 297.68 864.667 292.909 864.301C286.672 860.381 280.203 853.441 275.075 848.155C272.763 845.976 269.596 844.327 267.13 842.17C263.396 838.905 260.535 834.985 258.966 830.246C255.408 819.494 255.41 806.443 254.394 795.146Q251.537 764.202 249.403 733.201C247.038 713.14 246.578 692.805 244.578 672.698C244.405 662.976 243.119 652.962 242.265 643.268C239.224 605.164 237.252 566.891 233.605 528.849C232.572 516.165 231.991 503.435 230.727 490.772C229.411 467.902 227.388 444.969 225.649 422.118C224.9 412.282 223.831 402.387 223.501 392.53C222.452 383.264 222.102 373.8 221.437 364.494L218.015 316.027L214.294 266.402C213.708 258.587 213.718 249.833 212.182 242.174C211.97 233.028 215.762 224.014 221.863 217.267C225.738 212.982 230.343 210.035 235.931 208.453C246.678 205.408 262.762 205.542 274.21 204.762Q309.13 202.281 344.084 200.339L343.462 186.92C353.595 185.697 364.087 185.61 374.295 185.024L434.198 181.514C432.474 176.244 431.475 170.489 431.468 164.939C431.453 152.382 436.387 142.316 445.116 133.549Z"/>
	<defs>
		<linearGradient id="gradient_1" gradientUnits="userSpaceOnUse" x1="406.19687" y1="508.51727" x2="380.46338" y2="538.79364">
			<stop offset="0" stop-color="#0B5CA7"/>
			<stop offset="1" stop-color="#2275B7"/>
		</linearGradient>
	</defs>
	<path fill="url(#gradient_1)" transform="scale(0.820312 0.820312)" d="M390.006 516.709C393.224 513.73 400.397 505.813 404.961 506.3C406.133 506.425 406.787 507.047 407.432 507.987C409.21 510.579 408.445 515.823 407.55 518.587C405.909 523.659 400.368 528.477 396.511 532.005C394.081 535.577 389.858 541.046 386.44 543.553C383.77 539.793 377.584 536.666 373.439 534.796L373.545 534.247C376.488 531.524 379.144 528.472 381.854 525.519C384.721 522.727 387.344 519.694 390.006 516.709Z"/>
	<path fill="#094984" transform="scale(0.820312 0.820312)" d="M380.658 318.491C383.421 315.649 389.477 306.929 393.7 307.133C397.178 307.301 400.974 311.327 402.875 313.92C403.617 314.934 403.96 315.694 404.064 316.971C401.299 324.698 384.779 334.86 384.448 341.808C380.887 344.076 378.745 347.869 375.359 350.37C375.394 347.451 375.363 343.109 374.074 340.447C372.158 336.489 368.898 335.561 365.001 334.39C366.933 332.831 368.714 331.038 370.53 329.344C374.107 326.301 377.639 322.117 380.658 318.491Z"/>
	<path fill="#6FA7CE" transform="scale(0.820312 0.820312)" d="M681.793 543.22C682.648 543.078 683.303 543.139 684.16 543.211C686.156 545.82 686.028 557.551 686.254 561.441C662.07 562.946 637.939 565.387 613.738 566.777C612.973 566.897 612.388 566.818 611.624 566.734C609.583 563.802 609.654 552.163 609.35 548.022Q645.55 545.291 681.793 543.22Z"/>
	<path fill="#6FA7CE" transform="scale(0.820312 0.820312)" d="M676.234 443.707C677.109 443.521 677.71 443.588 678.588 443.74C680.736 446.932 680.355 458.685 680.544 462.831C656.658 464.319 632.515 465.625 608.709 468.001C607.615 468.014 606.535 467.974 605.443 467.931C604.027 466.338 603.581 451.907 603.347 448.924C627.602 447.676 652.08 446.214 676.234 443.707Z"/>
	<path fill="#6FA7CE" transform="scale(0.820312 0.820312)" d="M689.762 636.739C690.232 636.697 689.89 636.696 690.723 637.097C691.856 643.241 691.714 650.132 692.087 656.4C682.181 656.761 672.206 657.848 662.305 658.513C647.713 659.493 633.04 660.175 618.484 661.569L617.859 661.313C616.247 657.145 616.196 646.815 615.757 641.897L689.762 636.739Z"/>
	<path fill="#6FA7CE" transform="scale(0.820312 0.820312)" d="M663.462 347.792C666.411 347.532 669.402 347.469 672.361 347.329C672.591 353.76 673.188 360.212 673.614 366.636C651.02 368.865 628.052 369.792 605.377 371.145C602.522 371.458 599.58 371.497 596.71 371.644C596.444 365.262 595.763 358.858 595.235 352.49C617.942 350.602 640.726 349.316 663.462 347.792Z"/>
	<path fill="#6FA7CE" transform="scale(0.820312 0.820312)" d="M573.874 353.794C576.871 353.537 579.902 353.455 582.907 353.298Q583.862 362.796 584.574 372.316C529.503 376.707 474.24 379.5 419.124 383.417C415.99 383.478 412.839 383.797 409.712 384.032C409.513 377.434 408.929 370.86 408.405 364.283C437.362 363.11 466.324 360.817 495.237 358.846L573.874 353.794Z"/>
	<path fill="#6FA7CE" transform="scale(0.820312 0.820312)" d="M590.456 449.773C590.476 449.786 590.501 449.793 590.517 449.811C591.858 451.378 592.244 466.02 592.429 468.919L417.011 480.166C415.468 478.096 415.144 464.053 414.845 460.603C424.139 460.525 433.532 459.681 442.815 459.151Q468.817 457.716 494.799 455.952L590.456 449.773Z"/>
	<path fill="#6FA7CE" transform="scale(0.820312 0.820312)" d="M601.531 642.722L602.632 642.81C604.54 647.079 604.314 657.034 604.689 661.97L496.273 669.32C474.898 670.752 453.339 671.429 432.024 673.485L431.172 673.36C429.606 671.483 429.318 656.906 428.909 653.479C486.489 650.973 544.015 646.391 601.531 642.722Z"/>
	<path fill="#6FA7CE" transform="scale(0.820312 0.820312)" d="M594.787 548.717C595.774 548.549 596.547 548.592 597.538 548.714C599.018 551.355 598.988 564.291 599.187 567.883L517.944 573.326C487.782 575.18 457.503 576.505 427.397 579.08C426.019 579.177 424.944 579.282 423.613 578.793C422.321 572.762 422.617 566.218 421.835 560.062C443.246 557.652 465.219 556.875 486.738 555.543L594.787 548.717Z"/>
	<path fill="#6FA7CE" transform="scale(0.820312 0.820312)" d="M652.978 607.794C655.098 607.566 657.253 607.498 659.382 607.366C660.308 613.817 660.712 620.42 661.327 626.912C646.46 627.407 631.55 628.826 616.697 629.721Q569.777 632.245 522.915 635.689C493.415 637.777 463.74 638.831 434.29 641.432L428.002 641.642L426.631 622C446.273 620.198 466.143 619.788 485.836 618.571L553.846 614.058Q603.442 611.394 652.978 607.794Z"/>
	<path fill="#6FA7CE" transform="scale(0.820312 0.820312)" d="M639.543 513.708C641.933 513.417 644.484 513.428 646.894 513.296C647.336 520.153 648.108 526.989 648.533 533.852C635.961 534.187 623.361 535.206 610.808 535.991L543.108 540.264C505.495 542.563 467.568 543.797 430.06 547.379C427.057 547.434 424.059 547.78 421.069 548.05L419.954 528.151C430.771 527.844 441.646 526.852 452.448 526.16L515.828 521.936L639.543 513.708Z"/>
	<path fill="#6FA7CE" transform="scale(0.820312 0.820312)" d="M628.471 317.791C631.289 317.549 634.144 317.489 636.971 317.358Q637.743 327.442 638.636 337.517C628.047 338.797 617.05 338.951 606.385 339.616L537.604 343.686C496.741 346.094 455.942 349.958 415.064 352.053C412.677 352.36 410.256 352.475 407.857 352.654Q407.159 342.809 406.15 332.99L628.471 317.791Z"/>
	<path fill="#6FA7CE" transform="scale(0.820312 0.820312)" d="M645.134 413.714L646.019 413.795C647.599 416.926 647.62 429.799 647.86 433.919L508.111 442.589C477.245 444.599 446.274 447.396 415.375 448.62L414.406 448.417C412.846 444.836 412.781 433.512 412.416 429.02C420.883 427.961 429.632 427.774 438.151 427.194L487.702 423.873Q566.459 419.428 645.134 413.714Z"/>
	<path fill="#1C94CD" transform="scale(0.820312 0.820312)" d="M325.436 518.432C333.276 516.896 346.337 517.079 354.747 516.592C363.334 516.095 377.275 514.276 385.406 515.082C387.016 515.242 388.557 516.032 390.006 516.709C387.344 519.694 384.721 522.727 381.854 525.519C379.144 528.472 376.488 531.524 373.545 534.247L373.439 534.796C377.584 536.666 383.77 539.793 386.44 543.553C389.858 541.046 394.081 535.577 396.511 532.005C396.175 541.993 397.205 552.211 398.241 562.151C398.783 567.358 399.637 572.618 399.519 577.861C398.69 579.344 397.633 580.999 396.379 582.156C395.076 583.36 393.651 583.95 391.921 584.256C384.151 585.634 375.62 585.423 367.704 585.939C356.497 586.67 344.723 588.219 333.528 587.93C330.349 587.848 325.467 587.671 323.272 585.232C321.779 583.572 320.583 581.642 320.118 579.434C318.678 572.596 318.948 564.369 318.497 557.351C317.826 546.935 316.286 535.812 316.776 525.41C317.407 524.223 318.175 523.037 319.025 521.995C320.819 519.796 322.655 518.791 325.436 518.432Z"/>
	<path fill="#6FA7CE" transform="scale(0.820312 0.820312)" d="M325.436 518.432C333.276 516.896 346.337 517.079 354.747 516.592C363.334 516.095 377.275 514.276 385.406 515.082C387.016 515.242 388.557 516.032 390.006 516.709C387.344 519.694 384.721 522.727 381.854 525.519C378.091 524.095 336.405 528.502 326.144 527.251C326.887 526.641 327.104 526.488 328.093 526.382C333.009 525.859 338.391 526.394 343.353 526.288C351.819 526.109 360.332 525.529 368.783 525.006C371.397 524.845 375.396 525.091 377.838 524.349C379.126 523.958 381.605 520.708 383.097 519.798C384.498 518.945 386.125 518.092 386.673 516.515C385.89 515.837 385.678 515.647 384.593 515.588C381.272 515.408 375.248 516.248 371.594 516.463L337.361 518.502C334.283 518.667 329.213 519.632 326.335 518.748C326.032 518.654 325.736 518.537 325.436 518.432Z"/>
	<path fill="#FEFEFE" transform="scale(0.820312 0.820312)" d="M326.144 527.251C336.405 528.502 378.091 524.095 381.854 525.519C379.144 528.472 376.488 531.524 373.545 534.247C363.068 533.713 350.446 534.301 340.787 538.793C337.698 539.912 335.301 540.669 333.353 543.495C331.316 544.668 329.271 545.746 327.506 547.315C327.31 540.645 326.612 533.91 326.144 527.251Z"/>
	<path fill="#FEFEFE" transform="scale(0.820312 0.820312)" d="M386.349 544.16C388.374 548.229 388.229 568.706 389.107 575.077C381.124 575.542 334.453 579.171 330.358 578.244C329.58 576.862 329.435 575.713 329.256 574.176C335.047 571.468 341.289 569.531 346.874 566.432C349.957 569.191 353.527 573.11 358.003 572.958C359.815 572.897 361.317 571.766 362.651 570.629C366.16 567.64 369.064 563.567 372.093 560.092C376.774 554.723 381.579 549.451 386.349 544.16Z"/>
	<path fill="#094984" transform="scale(0.820312 0.820312)" d="M340.787 538.793C350.446 534.301 363.068 533.713 373.545 534.247L373.439 534.796C377.584 536.666 383.77 539.793 386.44 543.553L386.349 544.16C381.579 549.451 376.774 554.723 372.093 560.092C369.064 563.567 366.16 567.64 362.651 570.629C361.317 571.766 359.815 572.897 358.003 572.958C353.527 573.11 349.957 569.191 346.874 566.432C341.289 569.531 335.047 571.468 329.256 574.176C328.197 565.388 327.889 556.169 327.506 547.315C329.271 545.746 331.316 544.668 333.353 543.495C335.301 540.669 337.698 539.912 340.787 538.793Z"/>
	<path fill="#67B6D3" transform="scale(0.820312 0.820312)" d="M333.353 543.495C332.457 547.233 332.203 548.915 334.219 552.312C337.331 557.558 342.624 562.085 346.874 566.432C341.289 569.531 335.047 571.468 329.256 574.176C328.197 565.388 327.889 556.169 327.506 547.315C329.271 545.746 331.316 544.668 333.353 543.495Z"/>
	<path fill="#67B6D3" transform="scale(0.820312 0.820312)" d="M340.787 538.793C350.446 534.301 363.068 533.713 373.545 534.247L373.439 534.796Q365.822 544.774 357.795 554.426C352.414 549.202 346.961 543.067 340.787 538.793Z"/>
	<path fill="#0C65A6" transform="scale(0.820312 0.820312)" d="M384.448 341.808C384.881 350.185 389.268 380.633 385.607 386.157C384.197 388.285 381.827 389.54 379.354 389.965C370.898 391.419 360.257 391.051 351.479 391.603C341.408 392.236 325.539 394.417 316.045 393.822Q315.405 393.787 314.779 393.655Q314.152 393.522 313.553 393.296Q312.954 393.069 312.397 392.753Q311.839 392.437 311.337 392.04C308.591 389.908 307.616 387.711 307.244 384.352C306.22 375.115 306.242 365.635 305.671 356.347C305.168 348.155 303.405 338.803 304.367 330.712C304.554 329.135 305.189 327.963 306.192 326.757C307.633 325.024 309.132 323.9 311.326 323.316C319.162 321.231 328.986 321.67 337.149 321.204Q358.914 320.015 380.658 318.491C377.639 322.117 374.107 326.301 370.53 329.344C368.714 331.038 366.933 332.831 365.001 334.39C368.898 335.561 372.158 336.489 374.074 340.447C375.363 343.109 375.394 347.451 375.359 350.37C378.745 347.869 380.887 344.076 384.448 341.808Z"/>
	<path fill="#FEFEFE" transform="scale(0.820312 0.820312)" d="M314.458 332.657C333.118 331.569 351.852 329.877 370.53 329.344C368.714 331.038 366.933 332.831 365.001 334.39C358.033 339.839 351.441 346.702 345.225 353.014C340.087 347.773 333.551 340.323 325.599 340.348C322.09 340.359 319.131 342.08 316.76 344.565C316.15 345.205 315.681 345.862 315.205 346.603C314.241 342.083 314.48 337.261 314.458 332.657Z"/>
	<path fill="#FEFEFE" transform="scale(0.820312 0.820312)" d="M338.977 379.853C341.498 379.716 344.049 379.665 346.4 378.636C356.366 374.272 365.88 357.722 375.13 350.7C376.436 360.374 376.88 370.212 377.525 379.95C357.572 381.399 337.105 381.381 317.285 383.919C316.698 375.983 316.617 367.855 315.363 360.001C321.099 366.676 331.111 376.19 338.977 379.853Z"/>
	<path fill="#7F954C" transform="scale(0.820312 0.820312)" d="M365.001 334.39C368.898 335.561 372.158 336.489 374.074 340.447C375.363 343.109 375.394 347.451 375.359 350.37L375.13 350.7C365.88 357.722 356.366 374.272 346.4 378.636C344.049 379.665 341.498 379.716 338.977 379.853C331.111 376.19 321.099 366.676 315.363 360.001C313.608 355.562 314.392 351.136 315.205 346.603C315.681 345.862 316.15 345.205 316.76 344.565C319.131 342.08 322.09 340.359 325.599 340.348C333.551 340.323 340.087 347.773 345.225 353.014C351.441 346.702 358.033 339.839 365.001 334.39Z"/>
	<path fill="#094984" transform="scale(0.820312 0.820312)" d="M388.101 613.21C390.68 612.903 393.309 612.981 395.904 612.96C398.734 614.599 400.519 616.288 402.341 619.018Q403.727 635.708 404.758 652.423C405.32 660.894 406.116 669.483 405.896 677.975C405.105 679.269 404.31 680.661 403.301 681.802C402.089 683.173 400.784 684.008 399.016 684.47C392.821 686.086 385.229 685.763 378.844 686.12L341.616 688.287Q340.301 688.406 338.983 688.474C335.304 688.644 332.282 687.856 329.63 685.202C328.711 684.282 328.167 683.352 327.848 682.09C325.484 672.748 325.796 661.856 325.081 652.203C324.434 643.458 322.905 633.8 323.426 625.078C323.636 621.563 326.02 619.506 328.51 617.353C336.048 615.711 344.436 615.825 352.13 615.411Q370.129 614.526 388.101 613.21Z"/>
	<path fill="#FEFEFE" transform="scale(0.820312 0.820312)" d="M381.87 622.789C385.35 622.455 388.92 622.46 392.417 622.328C394.705 639.88 395.367 657.828 396.55 675.493C380.106 677.026 363.38 677.213 346.876 678.209Q341.635 678.55 336.399 678.96C334.657 661.397 334.464 643.55 333.067 625.925C349.255 624.392 365.64 623.966 381.87 622.789Z"/>
	<path fill="#F3B222" transform="scale(0.820312 0.820312)" d="M363.603 671.973C360.685 671.507 358.042 670.915 355.378 669.554C350.213 666.916 346.159 662.389 344.58 656.762C342.968 651.022 343.858 644.131 346.941 639.024C350.327 633.413 355.732 630.698 361.881 629.181C361.135 634.245 361.971 640.073 362.267 645.184C362.784 654.114 363.372 663.03 363.603 671.973Z"/>
	<path fill="#D19F5A" transform="scale(0.820312 0.820312)" d="M361.881 629.181C368.579 628.767 374.657 629.512 379.929 634.115Q380.333 634.468 380.719 634.841Q381.105 635.214 381.472 635.605Q381.839 635.996 382.186 636.406Q382.533 636.815 382.859 637.241Q383.185 637.667 383.49 638.109Q383.795 638.55 384.077 639.007Q384.359 639.463 384.619 639.933Q384.878 640.403 385.113 640.885Q385.349 641.367 385.56 641.86Q385.771 642.353 385.958 642.856Q386.144 643.36 386.305 643.871Q386.467 644.383 386.602 644.902Q386.738 645.422 386.847 645.947Q386.957 646.472 387.04 647.002Q387.123 647.532 387.18 648.066Q387.237 648.599 387.267 649.135C387.547 654.885 385.296 660.506 381.385 664.688C376.587 669.818 370.44 671.756 363.603 671.973C363.372 663.03 362.784 654.114 362.267 645.184C361.971 640.073 361.135 634.245 361.881 629.181Z"/>
	<path fill="#1C94CD" transform="scale(0.820312 0.820312)" d="M372.269 419.797C376.932 419.353 382.062 418.947 385.948 422.119C388.434 424.147 388.658 427.04 389 430.05C389.996 438.814 390.25 447.744 390.955 456.547C391.504 463.403 393.507 476.596 392.696 482.797C392.398 485.069 391.29 487.395 389.811 489.134C388.201 491.028 386.338 491.879 383.94 492.404C377.064 493.908 369.208 493.35 362.137 493.591Q346.428 494.195 330.731 495.055C328.322 495.332 325.719 495.638 323.3 495.52C320.742 495.395 317.506 494.27 315.931 492.122C312.69 487.704 310.107 437.265 310.537 429.782C311.224 428.619 311.918 427.569 312.812 426.55C314.099 425.084 315.222 424.16 317.122 423.619C323.127 421.908 330.436 422.183 336.682 421.834Q354.482 420.926 372.269 419.797Z"/>
	<path fill="#FEFEFE" transform="scale(0.820312 0.820312)" d="M377.304 429.725L378.308 429.81C379.758 433.443 381.724 474.354 382.443 482.452C363.505 483.453 344.248 484.222 325.385 486.101L323.959 485.81C321.864 482.505 320.258 440.207 319.874 433.002L377.304 429.725Z"/>
	<path fill="#D52D2D" transform="scale(0.820312 0.820312)" d="M350.949 437.668C355.449 437.698 359.692 438.643 363.493 441.144Q363.919 441.424 364.331 441.725Q364.743 442.027 365.139 442.348Q365.536 442.669 365.915 443.01Q366.295 443.351 366.657 443.711Q367.019 444.07 367.363 444.448Q367.706 444.825 368.031 445.219Q368.355 445.613 368.659 446.022Q368.963 446.432 369.247 446.856Q369.53 447.281 369.792 447.719Q370.053 448.157 370.293 448.607Q370.532 449.058 370.749 449.52Q370.965 449.982 371.158 450.454Q371.351 450.927 371.521 451.408Q371.69 451.889 371.835 452.379Q371.979 452.868 372.1 453.364Q372.22 453.86 372.315 454.361Q372.411 454.884 372.481 455.412Q372.55 455.939 372.594 456.469Q372.638 456.999 372.656 457.531Q372.673 458.063 372.665 458.595Q372.656 459.127 372.621 459.657Q372.587 460.188 372.526 460.717Q372.465 461.245 372.378 461.77Q372.291 462.295 372.179 462.815Q372.066 463.335 371.928 463.849Q371.79 464.362 371.627 464.869Q371.464 465.375 371.276 465.873Q371.089 466.371 370.877 466.859Q370.664 467.346 370.429 467.823Q370.193 468.3 369.934 468.765Q369.675 469.229 369.393 469.681Q369.111 470.132 368.808 470.569C364.801 476.304 359.497 478.498 352.854 479.581C347.836 479.609 343.321 478.79 339.11 475.874Q338.669 475.566 338.244 475.236Q337.819 474.906 337.411 474.555Q337.003 474.204 336.614 473.833Q336.225 473.461 335.855 473.07Q335.486 472.679 335.136 472.27Q334.787 471.861 334.459 471.434Q334.131 471.007 333.826 470.565Q333.52 470.122 333.237 469.664Q332.955 469.206 332.696 468.734Q332.437 468.263 332.203 467.778Q331.968 467.294 331.759 466.799Q331.55 466.303 331.366 465.797Q331.182 465.292 331.024 464.777Q330.867 464.263 330.735 463.741Q330.604 463.219 330.5 462.691Q330.395 462.163 330.318 461.631C329.489 456 330.944 449.999 334.495 445.523C338.756 440.154 344.429 438.431 350.949 437.668Z"/>
	<path fill="#AFD0D6" transform="scale(0.820312 0.820312)" d="M718.058 640.82C718.466 643.529 718.549 646.184 718.617 648.917C718.52 653.255 715.226 658.629 713.355 662.604Q711.126 667.424 708.676 672.137Q706.227 676.849 703.562 681.443Q700.896 686.036 698.022 690.502Q695.147 694.968 692.068 699.295Q688.99 703.623 685.715 707.804Q682.439 711.984 678.974 716.009Q675.508 720.033 671.861 723.893Q668.213 727.753 664.39 731.44C646.255 748.815 624.928 761.603 601.721 771.013C594.986 773.744 586.48 774.879 580.285 778.514C564.859 780.266 543.658 781.783 528.259 781.619C528.953 780.836 529.406 780.443 530.446 780.167C535.203 778.904 540.353 778.395 545.221 777.557C554.788 775.908 564.185 773.824 573.329 770.508C592.916 763.407 611.042 750.692 619.977 731.302C628.45 712.913 626.676 690.495 619.77 671.927C634.031 676.147 648.161 678.481 662.997 676.336C684.207 673.271 703.604 663.038 716.65 645.766C717.946 644.051 718.033 642.969 718.058 640.82Z"/>
	<path fill="#682213" transform="scale(0.820312 0.820312)" d="M445.116 133.549C455.695 125.493 465.789 123.082 478.947 123.749L481.781 124.138C486.711 125.007 490.874 126.491 495.37 128.675C504.067 131.488 510.137 137.14 514.241 145.251C515.625 147.987 516.63 150.789 517.477 153.729C518.527 162.396 518.51 169.265 516.706 177.856L511.572 178.051C508.769 178.145 505.654 177.852 502.917 178.398C504.482 178.426 505.741 178.252 507.137 179.032C509.192 188.258 507.646 198.168 509.432 207.387C536.671 204.873 564.2 203.893 591.501 201.95Q592.39 217.753 593.614 233.534L594.219 244.975L594.511 250.989C599.146 250.51 602.555 250.107 606.496 253.163Q607 253.562 607.463 254.01Q607.925 254.457 608.34 254.948Q608.756 255.439 609.12 255.969Q609.485 256.499 609.795 257.063Q610.105 257.627 610.357 258.218Q610.609 258.81 610.802 259.424Q610.994 260.038 611.125 260.667Q611.255 261.297 611.322 261.937C611.725 265.725 610.488 269.311 607.972 272.151C605.868 274.526 603.538 275.559 600.437 276.021C589.453 277.657 577.713 277.539 566.588 278.125L510.655 281.34Q449.898 285.038 389.096 287.908C375.162 288.58 361.188 289.565 347.248 289.996Q345.19 290.048 343.135 289.934C339.144 287.684 336.341 285.343 335.19 280.714C334.352 277.342 335.051 273.536 336.937 270.631C338.806 267.752 341.873 265.913 345.235 265.322C346.135 265.164 347.091 265.097 348.006 265.102L347.777 259.386C347.474 257.669 347.534 255.756 347.442 254.007C347.032 251.399 347.665 246.39 346.141 244.39C347.77 241.661 345.704 225.259 345.502 221.087Q344.878 210.707 344.084 200.339L343.462 186.92C353.595 185.697 364.087 185.61 374.295 185.024L434.198 181.514C432.474 176.244 431.475 170.489 431.468 164.939C431.453 152.382 436.387 142.316 445.116 133.549Z"/>
	<path fill="#9C4A22" transform="scale(0.820312 0.820312)" d="M347.777 259.386C351.394 258.191 356.97 258.587 360.835 258.36L389.854 256.62Q456.886 251.714 524.027 248.631C547.335 247.344 570.881 245.049 594.219 244.975L594.511 250.989L431.307 260.547L373.287 264.128C366.69 264.518 353.953 266.198 348.006 265.102L347.777 259.386Z"/>
	<path fill="#A8723E" transform="scale(0.820312 0.820312)" d="M509.432 207.387C536.671 204.873 564.2 203.893 591.501 201.95Q592.39 217.753 593.614 233.534L594.219 244.975C570.881 245.049 547.335 247.344 524.027 248.631Q456.886 251.714 389.854 256.62L360.835 258.36C356.97 258.587 351.394 258.191 347.777 259.386C347.474 257.669 347.534 255.756 347.442 254.007C364.945 253.906 383.91 252.026 401.517 250.841C426.911 249.132 452.349 247.721 477.717 245.685C487.4 244.908 495.127 243.287 501.694 235.455C507.405 228.642 510.429 219.303 509.681 210.443L509.432 207.387Z"/>
	<path fill="#D19F5A" transform="scale(0.820312 0.820312)" d="M509.681 210.443C510.429 219.303 507.405 228.642 501.694 235.455C495.127 243.287 487.4 244.908 477.717 245.685C452.349 247.721 426.911 249.132 401.517 250.841C383.91 252.026 364.945 253.906 347.442 254.007C347.032 251.399 347.665 246.39 346.141 244.39C347.77 241.661 345.704 225.259 345.502 221.087L509.681 210.443Z"/>
	<path fill="#F0D599" transform="scale(0.820312 0.820312)" d="M445.116 133.549C455.695 125.493 465.789 123.082 478.947 123.749L481.781 124.138C486.711 125.007 490.874 126.491 495.37 128.675C504.067 131.488 510.137 137.14 514.241 145.251C515.625 147.987 516.63 150.789 517.477 153.729C518.527 162.396 518.51 169.265 516.706 177.856L511.572 178.051C508.769 178.145 505.654 177.852 502.917 178.398C504.482 178.426 505.741 178.252 507.137 179.032C509.192 188.258 507.646 198.168 509.432 207.387L509.681 210.443L345.502 221.087Q344.878 210.707 344.084 200.339L343.462 186.92C353.595 185.697 364.087 185.61 374.295 185.024L434.198 181.514C432.474 176.244 431.475 170.489 431.468 164.939C431.453 152.382 436.387 142.316 445.116 133.549Z"/>
	<path fill="#E08F1E" transform="scale(0.820312 0.820312)" d="M445.116 133.549C455.695 125.493 465.789 123.082 478.947 123.749L481.781 124.138C486.711 125.007 490.874 126.491 495.37 128.675C504.067 131.488 510.137 137.14 514.241 145.251C515.625 147.987 516.63 150.789 517.477 153.729C518.527 162.396 518.51 169.265 516.706 177.856L511.572 178.051C508.769 178.145 505.654 177.852 502.917 178.398C497.143 178.628 483.747 180.289 478.876 179.125C475.61 179.388 472.387 179.656 469.106 179.573L468.006 179.609C457.694 181.293 444.844 181.013 434.198 181.514C432.474 176.244 431.475 170.489 431.468 164.939C431.453 152.382 436.387 142.316 445.116 133.549Z"/>
	<path fill="#682213" transform="scale(0.820312 0.820312)" d="M495.37 128.675C504.067 131.488 510.137 137.14 514.241 145.251C515.625 147.987 516.63 150.789 517.477 153.729C518.527 162.396 518.51 169.265 516.706 177.856L511.572 178.051C512.858 172.763 513.752 167.496 513.563 162.032C513.067 147.634 505.465 138.088 495.37 128.675Z"/>
	<path fill="#0C65A6" transform="scale(0.820312 0.820312)" d="M468.006 179.609C466.486 179.01 465.043 178.334 463.678 177.427Q463.013 176.977 462.395 176.464Q461.777 175.951 461.213 175.38Q460.648 174.808 460.142 174.185Q459.636 173.561 459.194 172.891Q458.752 172.22 458.377 171.51Q458.002 170.799 457.699 170.056Q457.396 169.312 457.167 168.542Q456.938 167.773 456.786 166.984C455.984 162.66 457.053 158.289 459.598 154.726C462.697 150.387 466.879 148.603 471.933 147.656C472.181 158.727 470.11 168.705 469.106 179.573L468.006 179.609Z"/>
	<path fill="#094984" transform="scale(0.820312 0.820312)" d="M471.933 147.656C476.872 147.825 481.059 148.861 484.632 152.514Q485.209 153.113 485.725 153.766Q486.241 154.419 486.691 155.119Q487.141 155.819 487.521 156.56Q487.9 157.301 488.205 158.075Q488.511 158.849 488.739 159.649Q488.967 160.45 489.116 161.268Q489.266 162.087 489.334 162.917Q489.403 163.746 489.39 164.578C489.286 168.843 487.207 172.932 484.063 175.775C482.507 177.183 480.714 178.145 478.876 179.125C475.61 179.388 472.387 179.656 469.106 179.573C470.11 168.705 472.181 158.727 471.933 147.656Z"/>
	<path fill="#52100E" transform="scale(0.820312 0.820312)" d="M692.489 254.023C695.077 252.395 707.71 240.882 708.21 240.78L708.978 244.632Q712.715 289.523 715.864 334.459L718.05 363.235C718.418 368.12 719.147 373.27 718.972 378.163C718.976 378.361 718.976 378.559 718.983 378.757C719.263 386.692 720.288 394.762 720.909 402.691L725.979 465.356L740.308 660.531Q743.107 697.964 745.45 735.428C746.312 747.829 748.527 763.5 747.941 775.599C747.737 779.826 745.683 784.181 742.826 787.27C739.53 790.835 735.342 792.714 730.627 793.47C721.82 794.882 712.388 794.645 703.468 795.065Q679.365 796.277 655.276 797.73L573.927 802.695C562.119 803.416 549.92 805.17 538.138 805.162C536.702 805.161 535.3 804.863 533.909 804.53C525.353 804.102 516.524 805.004 507.96 805.424Q484.319 806.555 460.691 807.925L315.54 816.256C306.282 816.715 298.588 815.419 291.56 808.9C286.908 804.586 284.109 799.597 282.74 793.415C280.809 784.693 280.762 774.992 280.115 766.062L276.734 717.51Q274.48 682.591 271.859 647.698C270.521 629.897 268.917 612.088 268.077 594.255L268.342 593.304C268.71 591.945 268.875 590.576 269.042 589.181C274.244 587.233 281.134 586.836 286.634 585.818C285.95 590.165 286.341 595.573 287.018 599.939L288.022 601.273C289.835 619.353 290.358 637.759 291.576 655.901C294.691 702.319 297.405 748.837 301.068 795.208Q380.505 790.031 459.993 785.741L503.372 783.251C511.59 782.787 520.105 782.679 528.259 781.619C543.658 781.783 564.859 780.266 580.285 778.514C586.48 774.879 594.986 773.744 601.721 771.013C624.928 761.603 646.255 748.815 664.39 731.44Q668.213 727.753 671.861 723.893Q675.508 720.033 678.974 716.009Q682.439 711.984 685.715 707.804Q688.99 703.623 692.068 699.295Q695.147 694.968 698.022 690.502Q700.896 686.036 703.562 681.443Q706.227 676.849 708.676 672.137Q711.126 667.424 713.355 662.604C715.226 658.629 718.52 653.255 718.617 648.917C718.549 646.184 718.466 643.529 718.058 640.82C717.904 629.186 716.522 617.325 715.744 605.697L710.977 534.403Q706.182 450.807 700.126 367.293C697.554 329.565 694.322 291.792 692.489 254.023Z"/>
	<path fill="#8B9496" transform="scale(0.820312 0.820312)" d="M718.617 648.917C720.443 667.949 720.859 687.288 721.965 706.383C722.628 717.827 726.308 758.707 724.236 767.151C720.875 770.935 717.063 770.875 712.333 771.159L625.173 776.247C610.804 777.069 594.453 778.889 580.285 778.514C586.48 774.879 594.986 773.744 601.721 771.013C624.928 761.603 646.255 748.815 664.39 731.44Q668.213 727.753 671.861 723.893Q675.508 720.033 678.974 716.009Q682.439 711.984 685.715 707.804Q688.99 703.623 692.068 699.295Q695.147 694.968 698.022 690.502Q700.896 686.036 703.562 681.443Q706.227 676.849 708.676 672.137Q711.126 667.424 713.355 662.604C715.226 658.629 718.52 653.255 718.617 648.917Z"/>
	<path fill="#9C4A22" transform="scale(0.820312 0.820312)" d="M212.182 242.174C211.97 233.028 215.762 224.014 221.863 217.267C225.738 212.982 230.343 210.035 235.931 208.453C246.678 205.408 262.762 205.542 274.21 204.762Q309.13 202.281 344.084 200.339Q344.878 210.707 345.502 221.087C345.704 225.259 347.77 241.661 346.141 244.39L300.45 247.187C292.558 247.656 283.888 247.311 276.192 249.099C273.625 249.696 271.743 250.791 269.956 252.734C268.576 254.235 267.606 255.855 266.741 257.69C265.146 266.894 266.829 277.649 267.383 286.99L270.92 340.944L281.21 500.405L285.731 566.537C286.517 578.052 287.837 589.738 288.022 601.273L287.018 599.939C286.341 595.573 285.95 590.165 286.634 585.818C281.134 586.836 274.244 587.233 269.042 589.181C268.875 590.576 268.71 591.945 268.342 593.304L268.077 594.255C268.917 612.088 270.521 629.897 271.859 647.698Q274.479 682.591 276.734 717.51L280.115 766.062C280.762 774.992 280.809 784.693 282.74 793.415C284.109 799.597 286.908 804.586 291.56 808.9C298.588 815.419 306.282 816.715 315.54 816.256L460.691 807.925Q484.319 806.555 507.96 805.424C516.524 805.004 525.353 804.102 533.909 804.53Q525.241 815.47 516.734 826.535C513.904 830.19 510.676 833.818 508.227 837.723C489.73 839.286 471.119 840.081 452.584 841.103L383.012 845.269L320.109 849.011C309.305 849.615 298.266 850.754 287.45 850.626C283.088 850.574 279.152 849.724 275.075 848.155C272.763 845.976 269.596 844.327 267.13 842.17C263.396 838.905 260.535 834.985 258.966 830.246C255.408 819.494 255.41 806.443 254.394 795.146Q251.537 764.202 249.403 733.201C247.038 713.14 246.578 692.805 244.578 672.698C244.405 662.976 243.119 652.962 242.265 643.268C239.224 605.164 237.252 566.891 233.605 528.849C232.572 516.165 231.991 503.435 230.727 490.772C229.411 467.902 227.388 444.969 225.649 422.118C224.9 412.282 223.831 402.387 223.501 392.53C222.452 383.264 222.102 373.8 221.437 364.494L218.015 316.027L214.294 266.402C213.708 258.587 213.718 249.833 212.182 242.174Z"/>
	<path fill="#682213" transform="scale(0.820312 0.820312)" d="M268.077 594.255C267.061 588.382 267.067 582.113 266.669 576.15L264.465 546.254L257.159 441.614L249.667 328.34C248.586 311.771 246.344 294.876 246.239 278.306C246.213 274.037 246.603 270.919 249.171 267.317C253.478 261.276 259.78 259.016 266.741 257.69C265.146 266.894 266.829 277.649 267.383 286.99L270.92 340.944L281.21 500.405L285.731 566.537C286.517 578.052 287.837 589.738 288.022 601.273L287.018 599.939C286.341 595.573 285.95 590.165 286.634 585.818C281.134 586.836 274.244 587.233 269.042 589.181C268.875 590.576 268.71 591.945 268.342 593.304L268.077 594.255Z"/>
	<path fill="#001632" transform="scale(0.820312 0.820312)" d="M630.488 183.397C643.98 182.362 657.511 181.791 671.016 180.928C681.579 180.254 697.379 178.003 707.226 179.621C712.075 180.419 715.955 182.465 719.672 185.617C721.291 186.989 722.72 188.554 724.146 190.122C729.781 195.106 735.379 200.202 740.744 205.475C747.678 212.098 754.759 218.597 761.612 225.298C758.199 225.817 745.034 230.351 742.786 232.41C745.65 259.109 747.351 286.042 749.613 312.806L767.317 519.498Q777.266 620.001 783.762 720.786Q786.171 751.377 788.162 781.998C788.854 792.13 790.178 802.597 789.866 812.74C789.692 818.409 787.326 823.611 783.822 827.998C777.467 835.953 769.351 838.423 759.558 839.456C745.528 840.935 731.282 841.33 717.202 842.249Q681.203 844.84 645.174 846.983C631.523 847.788 617.497 847.943 603.937 849.534C596.227 849.443 588.288 850.39 580.586 850.934Q559.131 852.521 537.653 853.778L384.504 861.698L334.711 864.645C325.636 865.149 316.239 866.046 307.156 865.749C302.332 865.591 297.68 864.667 292.909 864.301C286.672 860.381 280.203 853.441 275.075 848.155C279.152 849.724 283.088 850.574 287.45 850.626C298.266 850.754 309.305 849.615 320.109 849.011L383.012 845.269L452.584 841.103C471.119 840.081 489.73 839.286 508.227 837.723C510.676 833.818 513.904 830.19 516.734 826.535Q525.241 815.47 533.909 804.53C535.3 804.863 536.702 805.161 538.138 805.162C549.92 805.17 562.119 803.416 573.927 802.695L655.276 797.73Q679.365 796.277 703.468 795.065C712.388 794.645 721.82 794.882 730.627 793.47C735.342 792.714 739.53 790.835 742.826 787.27C745.683 784.181 747.737 779.826 747.941 775.599C748.527 763.5 746.312 747.829 745.45 735.428Q743.107 697.964 740.308 660.531L725.979 465.356L720.909 402.691C720.288 394.762 719.263 386.692 718.983 378.757C718.976 378.559 718.976 378.361 718.972 378.163C719.147 373.27 718.418 368.12 718.05 363.235L715.864 334.459Q712.715 289.523 708.978 244.632L708.21 240.78C707.71 240.882 695.077 252.395 692.489 254.023L690.892 227.421C671.425 229.624 651.733 229.687 632.221 231.383C619.35 231.89 606.481 233.209 593.614 233.534Q592.39 217.753 591.501 201.95C591.518 196.604 590.921 191.161 590.576 185.821C603.857 184.851 617.194 184.297 630.488 183.397Z"/>
	<defs>
		<linearGradient id="gradient_2" gradientUnits="userSpaceOnUse" x1="690.75525" y1="179.26337" x2="681.33905" y2="374.13187">
			<stop offset="0" stop-color="#8D3F21"/>
			<stop offset="1" stop-color="#A65E38"/>
		</linearGradient>
	</defs>
	<path fill="url(#gradient_2)" transform="scale(0.820312 0.820312)" d="M630.488 183.397C643.98 182.362 657.511 181.791 671.016 180.928C681.579 180.254 697.379 178.003 707.226 179.621C712.075 180.419 715.955 182.465 719.672 185.617C721.291 186.989 722.72 188.554 724.146 190.122C726.128 193.659 728.059 197.166 728.779 201.209C729.794 206.91 729.92 212.908 730.34 218.687L732.532 248.355L738.439 317.037C739.703 331.88 740.597 346.825 742.241 361.625C738.854 365.916 724.082 375.016 718.972 378.163C719.147 373.27 718.418 368.12 718.05 363.235L715.864 334.459Q712.715 289.523 708.978 244.632L708.21 240.78C707.71 240.882 695.077 252.395 692.489 254.023L690.892 227.421C671.425 229.624 651.733 229.687 632.221 231.383C619.35 231.89 606.481 233.209 593.614 233.534Q592.39 217.753 591.501 201.95C591.518 196.604 590.921 191.161 590.576 185.821C603.857 184.851 617.194 184.297 630.488 183.397Z"/>
	<path fill="#682213" transform="scale(0.820312 0.820312)" d="M690.892 227.421C692.363 227.377 693.493 227.069 694.751 227.985C699.732 231.611 702.271 237.116 708.807 240.865C708.988 242.169 709.018 243.325 708.978 244.632L708.21 240.78C707.71 240.882 695.077 252.395 692.489 254.023L690.892 227.421Z"/>
	<path fill="#52100E" transform="scale(0.820312 0.820312)" d="M590.576 185.821C603.857 184.851 617.194 184.297 630.488 183.397C630.99 190.338 633.404 226.83 632.221 231.383C619.35 231.89 606.481 233.209 593.614 233.534Q592.39 217.753 591.501 201.95C591.518 196.604 590.921 191.161 590.576 185.821Z"/>
	<path fill="#682213" transform="scale(0.820312 0.820312)" d="M742.241 361.625C743.63 369.747 743.921 378.265 744.574 386.486L747.908 429.028L758.57 574.635L770.405 728.305L773.383 771.169C773.993 779.722 775.003 788.425 775.058 796.988C775.097 802.905 773.739 808.366 770.361 813.303C766.188 819.403 759.469 822.97 752.262 824.105C743.986 825.408 734.922 825.264 726.541 825.73L676.344 828.546L508.227 837.723C510.676 833.818 513.904 830.19 516.734 826.535Q525.241 815.47 533.909 804.53C535.3 804.863 536.702 805.161 538.138 805.162C549.92 805.17 562.119 803.416 573.927 802.695L655.276 797.73Q679.365 796.277 703.468 795.065C712.388 794.645 721.82 794.882 730.627 793.47C735.342 792.714 739.53 790.835 742.826 787.27C745.683 784.181 747.737 779.826 747.941 775.599C748.527 763.5 746.312 747.829 745.45 735.428Q743.107 697.964 740.308 660.531L725.979 465.356L720.909 402.691C720.288 394.762 719.263 386.692 718.983 378.757C718.976 378.559 718.976 378.361 718.972 378.163C724.082 375.016 738.854 365.916 742.241 361.625Z"/>
</svg>
